<svg width="594" height="591" viewBox="0 0 594 591" fill="none" xmlns="http://www.w3.org/2000/svg">
    <path d="M361.522 101.313C360.003 101.313 356.139 100.992 350.778 100.548C312.58 97.5114 275.29 85.552 241.113 65.3762C212.236 48.494 173.774 41.2869 152.96 47.7782H152.77C150.969 48.34 149.091 48.4802 147.244 48.1908C145.397 47.9014 143.617 47.188 142.007 46.0916C140.396 44.9953 138.987 43.5376 137.86 41.8024C136.733 40.0672 135.91 38.0886 135.439 35.9804C130.499 14.9516 106.561 0.0439453 81.2928 0.0439453C50.9373 0.0439453 26.408 19.9373 26.408 44.4709C26.408 54.8371 30.841 64.3642 38.2082 71.9415C48.5935 82.404 56.7082 95.5974 61.886 110.438C67.0638 125.279 69.157 141.345 67.9938 157.315C67.2846 165.849 67.6688 174.459 69.1337 182.861C69.8426 186.835 70.8383 190.732 72.1102 194.51C80.2163 218.328 111.585 247.699 113.506 270.11C128.283 441.351 166.744 503.623 307.714 527.959C448.684 552.295 574.792 476.498 589.675 358.767C604.557 241.035 580.365 104.743 361.522 101.313Z" fill="#E1E1FF"/>
    <path d="M166.277 19.8859C165.005 19.7203 163.826 19.02 162.951 17.9118C161.917 16.6863 160.685 15.7206 159.329 15.0724C157.974 14.4242 156.522 14.1068 155.061 14.1389C149.518 14.1389 145 18.5918 145 24.0756C145 29.5593 149.509 34.0122 155.061 34.0122C157.61 34.053 160.093 33.0498 162.092 31.1716C162.55 30.7594 163.073 30.4598 163.63 30.2903C164.186 30.1208 164.766 30.0849 165.335 30.1845C166.462 30.2751 167.575 29.8438 168.441 28.9811C169.306 28.1184 169.856 26.8914 169.975 25.5575C170.095 24.2236 169.775 22.8866 169.082 21.8271C168.389 20.7676 167.377 20.0679 166.259 19.875L166.277 19.8859Z" fill="#E1E1FF"/>
    <path d="M209.132 26.5027C213.26 26.5027 216.605 23.6628 216.605 20.1596C216.605 16.6563 213.26 13.8164 209.132 13.8164C205.005 13.8164 201.66 16.6563 201.66 20.1596C201.66 23.6628 205.005 26.5027 209.132 26.5027Z" fill="#E1E1FF"/>
    <path d="M489.573 104.768C498.305 104.768 505.384 99.7625 505.384 93.5875C505.384 87.4125 498.305 82.4067 489.573 82.4067C480.841 82.4067 473.762 87.4125 473.762 93.5875C473.762 99.7625 480.841 104.768 489.573 104.768Z" fill="#E1E1FF"/>
    <path d="M514.313 79.2964C516.983 79.2964 519.147 76.7658 519.147 73.6443C519.147 70.5227 516.983 67.9922 514.313 67.9922C511.644 67.9922 509.479 70.5227 509.479 73.6443C509.479 76.7658 511.644 79.2964 514.313 79.2964Z" fill="#E1E1FF"/>
    <path d="M59.5289 410.598C58.0934 398.257 55.8558 378.66 45.5121 363.456C29.3633 339.836 0.23207 335.541 0.23207 335.541C0.23207 335.541 -2.84993 369.824 13.4256 393.321C22.3338 406.254 40.868 415.534 51.275 419.434C53.4416 420.236 55.3288 421.834 56.6562 423.991C57.9836 426.148 58.6801 428.748 58.6423 431.404C57.629 513.841 46.7365 553.258 46.7365 553.258L57.1435 551.851C66.0939 462.775 61.5132 427.875 59.5289 410.598Z" fill="#E1E1FF"/>
    <path d="M89.2087 396.751C91.9952 386.558 96.4071 370.416 107.089 359.408C123.765 342.131 148.928 343.711 148.928 343.711C148.928 343.711 147.133 373.18 130.351 390.26C121.19 399.614 104.323 404.205 94.9928 405.661C93.0642 405.965 91.2702 406.986 89.8753 408.572C88.4804 410.159 87.5585 412.227 87.2456 414.473C77.5141 484.248 81.6515 519.444 81.6515 519.444L73.0388 516.433C77.0074 439.574 85.3457 410.919 89.2087 396.751Z" fill="#E1E1FF"/>
    <path d="M74.8755 343.193C77.1554 330.852 80.744 311.403 92.1854 297.088C110.044 274.751 139.64 273.146 139.64 273.146C139.64 273.146 140.4 307.898 122.435 330.112C112.598 342.28 93.3042 349.857 82.6016 352.868C80.3723 353.476 78.3688 354.905 76.8866 356.944C75.4044 358.984 74.5218 361.526 74.3689 364.197C71.6023 414.351 72.0398 464.677 75.6777 514.755L65.2918 512.287C62.3576 421.853 71.7724 360.273 74.8755 343.193Z" fill="#B0B0FF"/>
    <path d="M52.4783 474.4C51.6012 468.167 49.5063 462.255 46.3565 457.123C44.8798 454.68 43.0848 452.523 41.0369 450.731C32.0653 443.326 19.5896 445.646 19.5896 445.646C19.5896 445.646 21.7006 460.233 30.651 467.711C35.4621 471.377 41.1006 473.276 46.842 473.166C47.4896 473.166 48.1306 473.317 48.7278 473.609C49.325 473.902 49.8664 474.331 50.3203 474.871C50.7742 475.411 51.1316 476.051 51.3717 476.754C51.6117 477.457 51.7296 478.209 51.7183 478.966C51.2418 492.25 50.1849 505.497 48.5519 518.654L54.2093 517.544C55.3393 503.138 54.7568 488.619 52.4783 474.4Z" fill="#B0B0FF"/>
    <path d="M107.131 422.938C107.131 422.938 95.4786 428.689 91.3201 440.611C89.0191 447.201 90.2224 457.345 90.7923 461.195C90.9269 462.275 90.9269 463.373 90.7923 464.453L86.5493 509.151H93.5366C92.2576 496.444 92.0879 483.618 93.0299 470.87C93.1442 469.281 93.5503 467.74 94.2206 466.351C94.891 464.963 95.8097 463.76 96.9141 462.824C100.46 459.838 105.78 454.605 107.87 448.583C112.007 436.637 107.131 422.938 107.131 422.938Z" fill="#B0B0FF"/>
    <path d="M56.6367 582.9H84.3114C85.2023 582.906 86.0804 582.652 86.8656 582.16C92.322 578.715 96.8801 573.609 100.057 567.382C103.235 561.156 104.913 554.041 104.914 546.791V515.569C104.914 513.867 104.336 512.234 103.307 511.031C102.277 509.827 100.881 509.151 99.4258 509.151H41.5012C40.0455 509.151 38.6495 509.827 37.6202 511.031C36.5909 512.234 36.0127 513.867 36.0127 515.569V546.816C36.0121 554.063 37.6871 561.177 40.8605 567.403C44.034 573.629 48.5878 578.736 54.0403 582.184C54.8404 582.675 55.7335 582.921 56.6367 582.9Z" fill="#8888EA"/>
    <path d="M104.914 527.366H36.0337V546.495H104.914V527.366Z" fill="#E1E1FF"/>
    <path d="M104.914 527.366H36.0337V531.957H104.914V527.366Z" fill="#FFF0F2"/>
    <path d="M240.131 65.9513L235.255 64.8823L216.037 184.721L220.912 185.79L240.131 65.9513Z" fill="white"/>
    <path d="M300.642 109.63C279.533 93.7104 252.217 117.38 231.698 98.3259C231.233 97.9076 230.875 97.3481 230.663 96.7084C230.451 96.0687 230.393 95.3733 230.495 94.6977L238.073 47.4817C238.158 46.8734 238.371 46.2995 238.695 45.8128C239.018 45.3261 239.441 44.9423 239.924 44.6966C240.408 44.4508 240.936 44.3511 241.461 44.4065C241.986 44.4619 242.491 44.6706 242.929 45.0136C264.038 60.9332 291.354 37.2636 311.872 56.3178C312.359 56.7531 312.73 57.3424 312.939 58.016C313.149 58.6896 313.189 59.4193 313.054 60.1187L305.497 107.261C305.401 107.861 305.179 108.423 304.851 108.898C304.523 109.372 304.099 109.744 303.617 109.979C303.135 110.214 302.611 110.305 302.092 110.244C301.573 110.183 301.074 109.972 300.642 109.63Z" fill="#FFA50A"/>
    <path d="M225.154 156.871C224.717 157.14 224.329 157.507 224.014 157.952C223.699 158.397 223.462 158.91 223.318 159.463C223.244 159.819 223.244 160.192 223.318 160.549C223.373 160.999 223.335 161.459 223.206 161.888C223.077 162.318 222.862 162.705 222.579 163.017C222.095 163.569 221.726 164.245 221.502 164.991C221.088 166.335 220.986 167.783 221.207 169.187C221.429 170.266 221.429 171.391 221.207 172.47C221.129 172.879 221.127 173.302 221.2 173.713C221.274 174.123 221.422 174.509 221.634 174.847C221.846 175.185 222.117 175.466 222.43 175.671C222.742 175.876 223.089 176 223.446 176.036C223.803 176.071 224.162 176.017 224.5 175.877C224.837 175.736 225.146 175.513 225.403 175.222C225.661 174.931 225.863 174.579 225.995 174.19C226.126 173.8 226.185 173.382 226.168 172.963C226.145 172.399 226.303 171.844 226.611 171.409L226.716 171.211C227.067 170.566 227.202 169.793 227.096 169.039C227.032 168.659 227.057 168.265 227.169 167.9C227.28 167.535 227.474 167.212 227.73 166.966C228.334 166.407 228.77 165.637 228.975 164.769C229.09 164.243 229.09 163.691 228.975 163.165C228.907 162.783 228.927 162.387 229.035 162.018C229.143 161.649 229.334 161.32 229.587 161.067C229.854 160.804 230.062 160.469 230.191 160.09C230.32 159.711 230.366 159.3 230.326 158.895C230.094 156.575 226.505 155.958 225.154 156.871Z" fill="#FAB9AF"/>
    <path d="M210.42 164.917C210.941 163.713 211.594 162.593 212.362 161.585L215.043 158.056C217.006 155.908 218.041 154.057 220.299 153.761C224.015 153.292 229.229 153.07 229.397 155.365C229.566 157.661 224.669 159.043 221.882 159.463C221.427 159.534 221.002 159.766 220.662 160.128C220.323 160.489 220.086 160.963 219.983 161.486C219.983 161.486 221.355 174.37 215.571 174.864L214.177 179.529L207.317 178.221L208.773 170.273C209.119 168.411 209.673 166.61 210.42 164.917Z" fill="#FAB9AF"/>
    <path d="M152.115 224.646C152.115 224.646 136.325 217.242 130.52 229.188C124.715 241.134 133.328 273.195 112.324 277.539C91.3197 281.883 89.1032 306.515 90.7286 317.301C95.5416 348.375 133.961 379.45 160.559 346.598C187.157 313.747 154.226 291.558 151.651 275.022C149.075 258.485 165.752 236.346 152.115 224.646Z" fill="#5046AF"/>
    <path d="M163.493 281.858C163.388 269.122 185.236 255.72 162.459 229.78C162.148 229.407 161.729 229.182 161.284 229.15C160.839 229.118 160.4 229.281 160.052 229.607C158.174 231.433 152.157 232.273 149.118 235.432C143.439 241.331 134.573 257.645 137.381 265.889C143.376 283.512 133.286 298.37 132.462 318.239C131.808 338.65 160.242 358.914 174.006 353.237C176.186 352.367 178.156 350.901 179.754 348.961C181.351 347.02 182.529 344.661 183.189 342.081C183.734 340.17 183.941 338.15 183.796 336.142C183.651 334.135 183.157 332.183 182.344 330.407C177.003 318.732 163.873 324.335 163.493 281.858Z" fill="#41378C"/>
    <path d="M199.169 466.132C204.17 434.045 204.598 401.211 200.435 368.96C199.88 364.855 198.183 361.078 195.608 358.214C193.032 355.35 189.721 353.558 186.186 353.115C183.727 352.838 181.245 353.184 178.911 354.129C176.576 355.074 174.443 356.596 172.656 358.592C170.87 360.587 169.471 363.009 168.557 365.692C167.642 368.376 167.233 371.258 167.356 374.144C167.684 380.544 168.39 386.911 169.467 393.198C174.28 421.903 182.598 559.749 182.661 559.774C182.661 560.437 182.605 561.099 182.492 561.749C182.126 563.378 181.447 564.889 180.508 566.167C178.756 569.005 179.832 570.93 183.442 574.262C186.461 577.051 184.877 581.938 187.959 582.506C192.181 583.296 195.116 582.925 195.496 581.716C196.023 579.964 194.799 579.816 191.274 577.668C188.508 576.039 188.17 566.019 188.149 562.119C188.146 561.161 188.203 560.204 188.318 559.256L199.169 466.132Z" fill="#FAB9AF"/>
    <path d="M163.05 472.055C169.89 448.559 181.774 373.329 179.389 352.226L163.135 350.647C159.153 350.426 155.221 351.761 151.961 354.443C148.7 357.124 146.296 360.999 145.128 365.456C141.582 379.179 138.204 402.305 141.371 435.971C141.371 435.971 143.819 454.285 141.371 466.058C139.154 476.745 126.362 543.287 124.019 555.43C123.647 556.779 123.218 558.106 122.731 559.404C122.11 560.799 121.212 562.001 120.113 562.909C117.812 565.155 118.446 567.327 121.253 571.596C123.596 575.175 121.042 579.445 123.913 580.901C127.882 582.901 130.774 583.37 131.386 582.284C132.251 580.753 131.111 580.235 128.051 577.15C126.847 575.94 126.953 571.671 127.354 567.721C127.807 563.425 128.885 559.252 130.542 555.381C137.212 539.782 157.351 491.603 163.05 472.055Z" fill="#FAB9AF"/>
    <path d="M196.973 485.555C177.459 491.265 157.043 491.265 137.529 485.555C139.323 476.349 140.759 469.093 141.371 466.131C143.819 454.358 141.371 436.044 141.371 436.044C138.204 402.354 141.582 379.277 145.128 365.529C146.296 361.072 148.7 357.198 151.961 354.516C155.221 351.835 159.153 350.499 163.135 350.72L179.389 352.3L186.186 353.04C189.746 353.46 193.086 355.247 195.683 358.124C198.281 361 199.989 364.802 200.541 368.935C204.704 401.185 204.276 434.019 199.274 466.106L196.973 485.555Z" fill="#6469D4"/>
    <path d="M148.295 434.095C146.184 439.796 144.242 445.621 142.447 451.52C142.383 446.334 142.045 441.157 141.434 436.02C138.268 402.329 141.645 379.252 145.191 365.504C146.359 361.048 148.763 357.173 152.024 354.492C155.285 351.81 159.216 350.474 163.198 350.695L169.087 351.263L179.431 352.275L186.228 353.016C189.783 353.447 193.116 355.243 195.705 358.123C198.295 361.003 199.995 364.805 200.541 368.935C200.942 371.971 201.364 375.501 201.744 379.376C174.766 378.191 158.132 407.142 148.295 434.095Z" fill="#5159BF"/>
    <path d="M210.631 231.064C213.101 216.255 215.613 177.974 215.613 177.974C214.346 175.9 209.027 173.358 207.359 175.925L196.973 228.398C185.764 244.96 176.56 260.04 172.233 267.445C171.408 268.842 170.329 270.009 169.074 270.862C167.819 271.716 166.418 272.234 164.971 272.381C158.879 272.892 152.831 273.957 146.88 275.565C119.227 283.932 130.562 295.878 130.562 295.878C133.976 299.786 136.777 304.364 138.837 309.403L149.603 336.232C150.722 340.453 147.492 352.892 146.247 357.088L143.798 365.875C143.702 366.186 143.661 366.516 143.676 366.846C143.691 367.176 143.763 367.499 143.887 367.796C144.011 368.093 144.185 368.358 144.398 368.574C144.611 368.791 144.859 368.956 145.128 369.059C157.583 373.995 182.682 374.859 198.725 368.886C199.137 368.727 199.515 368.466 199.833 368.121C200.151 367.776 200.402 367.355 200.568 366.887C200.734 366.418 200.812 365.914 200.797 365.407C200.781 364.9 200.672 364.403 200.477 363.95L188.593 326.088C185.426 318.091 186.017 316.215 188.255 311.452C189.519 308.797 189.837 305.667 189.141 302.739C188.346 300.131 187.282 297.644 185.975 295.335C184.86 293.237 184.334 290.783 184.47 288.319C184.606 285.854 185.398 283.5 186.735 281.587C195.875 268.382 208.33 244.787 210.631 231.064Z" fill="#B0B0FF"/>
    <path d="M144.474 227.534C136.199 230.224 134.742 238.122 137.613 250.908C138.848 255.298 141.029 259.242 143.946 262.36C144.757 263.289 145.399 264.399 145.834 265.625C146.269 266.85 146.489 268.166 146.479 269.493L146.268 277.317C146.627 284.4 150.194 287.189 154.522 287.189C155.621 287.157 156.703 286.863 157.702 286.324C158.7 285.785 159.593 285.013 160.327 284.055C162.016 281.834 161.383 278.428 160.327 275.737L159.377 273.837C159.057 273.229 158.844 272.553 158.752 271.847C158.661 271.142 158.691 270.422 158.843 269.73C158.995 269.039 159.264 268.391 159.635 267.824C160.006 267.257 160.471 266.784 161.003 266.432C162.76 265.371 164.34 263.95 165.668 262.236C166.744 260.731 167.42 249.451 163.008 237.728C158.427 225.609 152.749 224.844 144.474 227.534Z" fill="#FAB9AF"/>
    <path d="M163.24 252.463C163.364 252.774 163.427 253.113 163.424 253.456C163.42 253.799 163.351 254.137 163.222 254.445C163.092 254.753 162.905 255.023 162.675 255.235C162.444 255.447 162.176 255.596 161.889 255.671C161.4 255.801 160.887 255.707 160.455 255.409C160.024 255.111 159.706 254.631 159.567 254.067L157.731 244.515C157.661 244.158 157.716 243.784 157.882 243.474C158.048 243.164 158.312 242.944 158.617 242.861C158.827 242.81 159.045 242.843 159.237 242.955C159.429 243.067 159.582 243.252 159.673 243.479L163.24 252.463Z" fill="#FA968C"/>
    <path d="M142.025 251.698C142.722 254.66 143.545 258.387 141.328 259.102C139.112 259.818 135.608 255.178 134.996 252.216C134.383 249.254 135.545 248.07 137.761 247.28C139.977 246.49 141.307 248.736 142.025 251.698Z" fill="#FAB9AF"/>
    <path d="M133.56 237.037C140.252 221.883 154.67 216.946 161.868 222.228C165.773 225.017 171.22 237.037 162.544 237.333C160.428 237.369 158.356 236.636 156.612 235.236C156.014 234.799 155.301 234.632 154.606 234.767L148.949 237.037C146.734 237.937 144.908 239.815 143.862 242.269C142.817 244.723 142.635 247.559 143.355 250.168L143.904 252.118C143.958 252.34 143.956 252.576 143.898 252.796C143.839 253.017 143.727 253.213 143.574 253.36C143.422 253.507 143.236 253.598 143.039 253.623C142.843 253.648 142.644 253.605 142.468 253.5L142.131 252.759C141.693 251.813 141.092 250.984 140.365 250.326C139.638 249.667 138.801 249.193 137.909 248.934C134.193 247.7 129.549 246.145 133.56 237.037Z" fill="#5046AF"/>
    <path d="M146.585 418.891C145.234 416.423 144.115 413.954 143.503 413.115C143.045 412.631 142.558 412.185 142.046 411.782C141.286 411.091 139.935 410.178 139.682 409.141L138.204 404.748C137.529 402.601 136.093 401.367 134.278 402.28C132.294 403.144 132.04 405.513 132.99 407.71L133.982 410.795C134.614 412.611 134.916 414.561 134.869 416.521C135.387 420.565 136.898 424.346 139.217 427.406C140.463 429.257 143.165 429.528 146.775 429.677C148.548 429.677 151.313 429.232 149.646 427.505C147.978 425.777 142.785 425.407 142.342 419.113C142.342 418.817 142.342 418.002 142.616 417.854C143.524 417.435 144.432 419.705 145.255 420.668C146.395 422.025 147.556 422.247 148.105 421.803C148.653 421.359 147.535 420.47 146.585 418.891Z" fill="#FAB9AF"/>
    <path d="M277.654 392.433L249.325 420.076C242.96 426.288 237.839 434.06 234.326 442.842C230.814 451.624 228.994 461.201 228.997 470.895V582.925C234.248 582.925 239.284 580.486 242.998 576.144C246.711 571.803 248.797 565.914 248.797 559.774V546.693C248.801 532.453 251.475 518.387 256.632 505.487C261.79 492.587 269.304 481.167 278.646 472.031L304.78 446.436L277.654 392.433Z" fill="#827DDC"/>
    <path d="M379.107 392.433L407.415 420.051C413.78 426.264 418.9 434.036 422.413 442.817C425.926 451.599 427.746 461.176 427.743 470.871V582.901C422.492 582.901 417.455 580.462 413.742 576.12C410.029 571.778 407.942 565.889 407.942 559.749V546.668C407.943 532.436 405.274 518.377 400.124 505.482C394.974 492.586 387.468 481.168 378.136 472.031L352.002 446.436L379.107 392.433Z" fill="#827DDC"/>
    <g style="mix-blend-mode:overlay" opacity="0.21">
        <path d="M379.107 392.433L407.415 420.051C413.78 426.264 418.9 434.036 422.413 442.817C425.926 451.599 427.746 461.176 427.743 470.871V582.901C422.492 582.901 417.455 580.462 413.742 576.12C410.029 571.778 407.942 565.889 407.942 559.749V546.668C407.943 532.436 405.274 518.377 400.124 505.482C394.974 492.586 387.468 481.168 378.136 472.031L352.002 446.436L379.107 392.433Z" fill="black"/>
    </g>
    <path d="M365.069 525.194H292.367C291.166 525.205 289.976 524.916 288.878 524.346C287.78 523.776 286.798 522.938 285.999 521.889C285.2 520.84 284.601 519.604 284.243 518.263C283.885 516.922 283.776 515.507 283.923 514.112L290.362 451.767H366.947L373.386 514.112C373.532 515.494 373.426 516.897 373.076 518.227C372.725 519.558 372.138 520.787 371.352 521.834C370.567 522.88 369.601 523.721 368.518 524.3C367.435 524.879 366.26 525.184 365.069 525.194Z" fill="#6469D4"/>
    <path d="M365.069 525.194H345.099V451.767H367.011L373.449 514.112C373.596 515.5 373.488 516.909 373.134 518.245C372.78 519.581 372.187 520.814 371.395 521.861C370.602 522.909 369.629 523.748 368.538 524.323C367.448 524.897 366.265 525.194 365.069 525.194Z" fill="#6469D4"/>
    <path d="M354.197 465.984C360.351 465.993 366.316 463.503 371.071 458.937C375.827 454.372 379.078 448.015 380.268 440.957C386.524 401.779 389.578 361.994 389.387 322.139C389.387 197.744 341.975 67.9185 328.739 67.9185C313.034 67.9185 268.091 197.67 268.091 322.139C267.901 361.994 270.954 401.779 277.211 440.957C278.4 448.015 281.651 454.372 286.407 458.937C291.163 463.503 297.128 465.993 303.281 465.984H354.197Z" fill="white"/>
    <path d="M370.008 171.186C355.232 110.939 336.339 67.9185 328.718 67.9185C319.683 67.9185 300.938 110.939 286.668 171.186H370.008Z" fill="white"/>
    <path d="M366.061 155.883C352.086 103.83 335.642 67.9922 328.718 67.9922C320.464 67.9922 304.147 103.83 290.51 155.883H366.061Z" fill="#827DDC"/>
    <path d="M298.109 155.883H306.215C313.773 127.08 317.171 106.742 323.441 87.6634C323.54 87.3429 323.535 86.9907 323.426 86.6744C323.317 86.3581 323.112 86.1001 322.85 85.9501C322.588 85.8 322.288 85.7685 322.007 85.8615C321.727 85.9545 321.485 86.1656 321.33 86.454C315.06 98.9676 307.376 120.515 298.109 155.883Z" fill="#928DEB"/>
    <g style="mix-blend-mode:overlay" opacity="0.39">
        <path d="M328.296 352.053C352.196 352.053 371.571 329.4 371.571 301.456C371.571 273.512 352.196 250.858 328.296 250.858C304.396 250.858 285.021 273.512 285.021 301.456C285.021 329.4 304.396 352.053 328.296 352.053Z" fill="black"/>
    </g>
    <path d="M328.296 346.722C352.196 346.722 371.571 324.069 371.571 296.125C371.571 268.181 352.196 245.527 328.296 245.527C304.396 245.527 285.021 268.181 285.021 296.125C285.021 324.069 304.396 346.722 328.296 346.722Z" fill="#827DDC"/>
    <g style="mix-blend-mode:overlay" opacity="0.21">
        <path d="M328.296 245.502H327.831V346.697H328.296C339.539 346.286 350.204 340.775 358.033 331.331C365.862 321.887 370.24 309.251 370.24 296.099C370.24 282.947 365.862 270.311 358.033 260.867C350.204 251.423 339.539 245.913 328.296 245.502Z" fill="black"/>
    </g>
    <path d="M328.296 330.753C344.653 330.753 357.913 315.249 357.913 296.124C357.913 277 344.653 261.496 328.296 261.496C311.939 261.496 298.679 277 298.679 296.124C298.679 315.249 311.939 330.753 328.296 330.753Z" fill="#D2F0FF"/>
    <path d="M291.734 525.194H365.618V539.534C365.618 542.402 364.644 545.151 362.91 547.179C361.176 549.206 358.824 550.345 356.372 550.345H301.001C298.549 550.345 296.197 549.206 294.463 547.179C292.729 545.151 291.755 542.402 291.755 539.534V525.194H291.734Z" fill="#B0B0FF"/>
    <path d="M349.701 525.194H365.66V539.534C365.66 542.402 364.686 545.151 362.952 547.179C361.218 549.206 358.866 550.345 356.414 550.345H349.701V525.194Z" fill="#9797EF"/>
    <path d="M329.182 582.259L328.739 582.9C324.224 577.023 321.63 569.471 321.414 561.576L317.446 415.115C317.3 409.74 318.245 404.401 320.205 399.536C322.164 394.671 325.082 390.418 328.718 387.126C332.363 390.426 335.286 394.691 337.246 399.57C339.206 404.448 340.146 409.802 339.991 415.189L335.769 561.97C335.558 569.4 333.241 576.537 329.182 582.259Z" fill="#827DDC"/>
    <g style="mix-blend-mode:overlay" opacity="0.21">
        <path d="M329.183 582.259L328.739 582.9V387.126C332.384 390.426 335.307 394.691 337.267 399.57C339.227 404.448 340.168 409.802 340.012 415.189L335.79 561.97C335.573 569.403 333.249 576.54 329.183 582.259Z" fill="black"/>
    </g>
    <path d="M344.698 267.296C344.698 267.987 344.698 268.654 344.698 269.345C344.698 281.232 340.659 292.633 333.47 301.039C326.281 309.444 316.53 314.167 306.363 314.167C305.202 314.167 304.041 314.167 302.922 313.969C305.229 318.368 308.348 322.106 312.052 324.911C315.755 327.716 319.949 329.515 324.325 330.177C328.701 330.839 333.148 330.347 337.34 328.737C341.532 327.127 345.363 324.44 348.551 320.873C351.739 317.306 354.203 312.949 355.763 308.123C357.323 303.297 357.938 298.124 357.565 292.983C357.191 287.843 355.838 282.865 353.604 278.416C351.37 273.967 348.313 270.159 344.656 267.271L344.698 267.296Z" fill="#AFE6FF"/>
    <path d="M131.048 283.611C133.708 280.402 140.21 279.464 146.141 280.896C151.735 282.253 139.64 328.037 128.367 349.585C127.762 350.731 127.363 352.009 127.196 353.342C127.029 354.675 127.097 356.034 127.396 357.335L139.323 407.093C137.888 410.499 135.207 411.066 132.484 411.535L112.261 359.704C110.353 354.807 109.936 349.293 111.078 344.081C114.688 328.013 122.984 293.335 131.048 283.611Z" fill="#B0B0FF"/>
    <path d="M485.71 551.53L488.898 566.092C489.043 566.636 489.257 567.152 489.531 567.623L491.79 571.547C492.126 572.131 492.339 572.8 492.413 573.499C492.486 574.198 492.417 574.907 492.211 575.569C492.005 576.23 491.668 576.826 491.228 577.307C490.788 577.787 490.257 578.139 489.679 578.334C489.679 578.334 485.119 580.21 480.411 582.012C475.704 583.814 469.54 582.308 469.54 580.827C469.54 577.52 472.179 580.136 476.57 576.705C478.047 575.545 479.567 574.237 480.918 573.102C484.718 569.622 481.404 560.761 479.082 555.825C478.237 554.048 479.082 549.58 480.834 549.161L481.931 548.889C482.731 548.671 483.572 548.824 484.277 549.316C484.982 549.809 485.496 550.603 485.71 551.53Z" fill="#FAB9AF"/>
    <path d="M482.86 426.295C481.953 423.605 481.277 420.767 480.749 419.73C480.376 419.137 479.967 418.576 479.525 418.052C478.892 417.163 477.773 415.929 477.625 414.794L476.95 410.03C476.654 407.71 475.472 406.131 473.488 406.476C471.377 406.846 470.638 409.166 471.208 411.61L471.63 414.967C471.936 416.948 471.886 418.982 471.482 420.94C471.26 425.121 472.081 429.289 473.846 432.935C474.754 435.107 477.414 436.069 481.003 437.106C482.776 437.624 485.626 437.797 484.275 435.65C482.924 433.502 477.773 431.849 478.491 425.407C478.491 425.086 478.659 424.296 478.997 424.222C479.968 424.025 480.475 426.542 481.108 427.702C481.995 429.331 483.219 429.85 483.747 429.553C484.275 429.257 483.515 428.221 482.86 426.295Z" fill="#FAB9AF"/>
    <path d="M493.964 277.317C488.306 298.124 473.804 337.096 452.673 350.943C438.213 360.396 403.446 374.045 403.446 374.045C402.748 373.038 402.113 371.974 401.546 370.861C401.024 369.711 400.6 368.504 400.279 367.257C400.279 367.257 443.575 341.292 449.38 333.764C455.185 326.236 474.564 278.255 480.348 270.727C487.23 261.867 497.236 265.594 493.964 277.317Z" fill="#B0B0FF"/>
    <path d="M475.24 377.994L488.918 265.52L525.86 259.571L545.091 377.204L475.24 377.994Z" fill="#FAB9AF"/>
    <path d="M554.548 548.815L558.285 563.328C558.453 563.968 558.702 564.575 559.024 565.129L561.662 569.72C562.057 570.399 562.309 571.177 562.398 571.991C562.488 572.805 562.413 573.632 562.178 574.406C561.944 575.179 561.558 575.878 561.05 576.444C560.542 577.011 559.928 577.43 559.256 577.668C559.256 577.668 553.915 579.864 548.406 581.987C542.896 584.11 535.74 582.333 535.74 580.605C535.74 576.73 538.822 579.815 543.972 575.669C545.703 574.311 547.477 572.904 549.081 571.448C553.514 567.375 549.651 557.059 546.97 551.234C546.742 550.742 546.617 550.194 546.605 549.634C546.593 549.075 546.694 548.52 546.899 548.015C547.105 547.51 547.41 547.069 547.789 546.727C548.168 546.386 548.611 546.154 549.081 546.051L550.369 545.73C551.268 545.555 552.19 545.773 552.961 546.342C553.732 546.911 554.297 547.791 554.548 548.815Z" fill="#FAB9AF"/>
    <path d="M516.382 379.104L475.451 375.081C475.451 375.081 460.97 435.872 457.128 462.849C454.341 482.397 479.673 557.972 479.673 557.972C482.185 559.255 484.612 557.626 487.209 556.861C487.209 556.861 479.525 490.221 482.142 473.857C484.866 456.901 506.714 422.544 508.128 413.56C510.024 401.817 512.785 390.289 516.382 379.104Z" fill="#5046AF"/>
    <path d="M507.938 379.696C503.716 406.204 494.28 445.868 512.456 483.137C530.631 520.406 549.735 559.132 549.735 559.132C552.204 559.185 554.607 558.205 556.511 556.367C556.511 556.367 553.324 539.485 548.722 519.765C543.445 497.206 536.774 470.673 538.674 456.826C542.241 430.886 546.337 396.356 545.007 379.598C543.677 362.839 510.155 365.751 507.938 379.696Z" fill="#5046AF"/>
    <path d="M475.809 379.598C475.11 379.205 474.538 378.556 474.181 377.751C473.823 376.945 473.698 376.026 473.825 375.131L488.94 265.495L525.881 259.571L545.745 375.328C545.834 375.844 545.835 376.375 545.747 376.891C545.659 377.406 545.484 377.897 545.232 378.333C544.981 378.769 544.658 379.143 544.282 379.432C543.907 379.721 543.486 379.92 543.043 380.018C529.182 383.051 515.116 384.629 501.014 384.732C487.124 384.757 479.335 381.597 475.809 379.598Z" fill="#D2F0FF"/>
    <path d="M517.564 288.596C522.06 302.837 529.238 330.974 525.121 355.705C519.316 390.531 511.886 404.624 521.533 412.745C531.18 420.865 549.714 407.315 550.242 402.872C550.77 398.429 546.632 342.896 541.946 318.955C537.259 295.013 524.108 260.36 524.108 260.36L517.248 261.076C517.248 261.076 515.411 281.809 517.564 288.596Z" fill="#B0B0FF"/>
    <path d="M495.399 264.458C493.559 277.309 493.346 290.407 494.766 303.332C497.004 326.582 502.176 397.418 484.085 408.13C478.343 411.511 465.255 394.061 465.255 390.853C465.255 385.299 469.625 366.665 473.699 349.733C477.034 336.133 480.39 290.67 481.573 273.22C481.709 271.275 482.412 269.445 483.565 268.034C484.718 266.623 486.25 265.718 487.905 265.47L495.399 264.458Z" fill="#B0B0FF"/>
    <path d="M522.166 216.922C521.831 220.937 522.779 224.954 524.826 228.201C528.182 232.965 523.306 237.408 522.166 240.542C521.026 243.677 522.44 248.588 519.253 250.785C516.065 252.982 506.988 253.574 505.553 249.699C504.117 245.824 511.928 214.701 522.166 216.922Z" fill="#41378C"/>
    <path d="M485.52 225.485C485.035 246.786 501.964 250.858 511.823 250.858C521.681 250.858 522.082 225.337 522.082 216.131C522.082 206.925 514.419 205.493 504.519 205.493C496.75 205.493 489.404 212.527 486.386 219.266C485.714 221.24 485.418 223.363 485.52 225.485Z" fill="#41378C"/>
    <path d="M504.118 213.737C512.371 213.737 515.432 220.599 515.601 233.285C515.448 237.697 514.329 241.988 512.35 245.749C511.796 246.856 511.441 248.084 511.307 249.357C511.172 250.631 511.262 251.922 511.569 253.154L513.385 260.311C514.609 266.951 511.907 270.604 507.938 271.936C506.914 272.236 505.849 272.288 504.807 272.088C503.765 271.889 502.769 271.442 501.88 270.776C499.769 269.222 499.663 265.84 500.043 263.076L500.508 261.027C500.667 260.374 500.713 259.69 500.642 259.016C500.571 258.342 500.386 257.691 500.097 257.102C499.808 256.513 499.42 255.998 498.958 255.587C498.496 255.176 497.967 254.877 497.405 254.709C491.072 253.08 490.143 245.354 488.454 233.334C486.66 220.747 495.864 213.737 504.118 213.737Z" fill="#FAB9AF"/>
    <path d="M484.908 208.208L489.636 209.886C491.379 210.492 493.235 210.492 494.977 209.886L504.413 206.678C510.134 206.678 519.57 210.454 518.388 220.105L517.332 226.917C517.114 228.231 516.533 229.425 515.679 230.317C514.825 231.208 513.745 231.748 512.604 231.853C512.474 232.343 512.199 232.764 511.829 233.04C511.46 233.316 511.018 233.431 510.583 233.363C510.148 233.295 509.748 233.049 509.453 232.668C509.158 232.288 508.988 231.798 508.973 231.285C508.964 229.796 508.523 228.355 507.721 227.198C506.919 226.041 505.805 225.236 504.561 224.917C501.269 223.954 497.825 223.954 494.534 224.917C493.006 225.464 491.395 225.616 489.812 225.362C488.23 225.108 486.713 224.455 485.368 223.448C484.022 222.44 482.88 221.103 482.021 219.529C481.161 217.954 480.605 216.18 480.39 214.329C480.39 213.835 480.39 213.317 480.39 212.799C480.369 212.128 480.476 211.46 480.704 210.844C480.932 210.228 481.276 209.679 481.709 209.239C482.143 208.799 482.655 208.477 483.208 208.299C483.762 208.121 484.343 208.089 484.908 208.208Z" fill="#41378C"/>
    <path d="M511.041 233.507C511.041 236.444 511.97 238.838 514.398 238.838C516.825 238.838 518.366 234.79 518.366 231.853C518.366 228.916 516.804 228.176 514.398 228.176C511.991 228.176 511.041 230.57 511.041 233.507Z" fill="#FAB9AF"/>
    <path d="M490.861 242.319C490.801 242.643 490.804 242.979 490.869 243.301C490.935 243.624 491.061 243.925 491.239 244.183C491.418 244.441 491.643 244.65 491.899 244.792C492.155 244.935 492.435 245.01 492.718 245.009C493.197 245.004 493.657 244.788 494.005 244.404C494.354 244.019 494.565 243.495 494.597 242.936V233.557C494.597 233.21 494.479 232.877 494.269 232.632C494.06 232.387 493.775 232.249 493.478 232.249C493.271 232.249 493.069 232.333 492.908 232.485C492.747 232.638 492.635 232.851 492.592 233.088L490.861 242.319Z" fill="#FA968C"/>
    <path d="M507.812 281.365C508.051 281.363 508.285 281.45 508.479 281.615C508.672 281.779 508.816 282.012 508.888 282.278C510.155 286.993 515.897 308.787 517.184 320.535C518.24 330.111 514.926 346.969 512.962 355.534C512.207 358.925 510.332 361.828 507.748 363.604L506.461 364.493C506.199 364.675 505.909 364.794 505.608 364.844C505.307 364.894 505 364.874 504.706 364.784C504.411 364.695 504.135 364.538 503.893 364.323C503.65 364.107 503.447 363.838 503.294 363.53L502.239 361.383C501.844 360.586 501.607 359.696 501.545 358.777C501.483 357.859 501.597 356.936 501.88 356.077C504.118 349.289 509.585 331.247 509.12 319.276C508.952 315.056 505.469 289.411 504.561 282.896C504.537 282.71 504.547 282.521 504.591 282.34C504.635 282.16 504.711 281.992 504.815 281.849C504.92 281.707 505.049 281.592 505.194 281.512C505.34 281.433 505.498 281.391 505.659 281.39L507.812 281.365Z" fill="#AFE6FF"/>
    <path d="M506.629 278.181C506.868 278.186 507.099 278.279 507.289 278.448C507.479 278.616 507.617 278.852 507.685 279.119C508.867 283.883 514.187 305.8 515.242 317.573C516.108 327.174 512.477 343.933 510.408 352.448C509.588 355.815 507.659 358.663 505.046 360.371L503.737 361.235C503.472 361.409 503.179 361.519 502.877 361.56C502.574 361.601 502.268 361.571 501.975 361.472C501.683 361.374 501.41 361.208 501.172 360.985C500.935 360.762 500.738 360.486 500.592 360.174L499.579 358.002C499.199 357.191 498.979 356.292 498.936 355.37C498.892 354.447 499.025 353.525 499.325 352.67C501.69 345.932 507.516 327.989 507.284 316.068C507.284 311.847 504.202 286.129 503.442 279.563C503.42 279.376 503.434 279.185 503.482 279.004C503.53 278.823 503.611 278.656 503.719 278.515C503.828 278.374 503.961 278.263 504.11 278.188C504.259 278.113 504.42 278.077 504.582 278.083L506.629 278.181Z" fill="#5159BF"/>
    <path d="M503.463 278.848H507.01C507.295 278.848 507.569 278.715 507.771 278.479C507.973 278.243 508.086 277.923 508.086 277.589V273.443C508.086 273.109 507.973 272.789 507.771 272.553C507.569 272.317 507.295 272.184 507.01 272.184L503.801 271.789C503.444 271.863 503.114 272.064 502.857 272.364C502.601 272.664 502.429 273.049 502.365 273.467V277.614C502.368 277.779 502.399 277.942 502.455 278.094C502.512 278.245 502.594 278.382 502.696 278.497C502.798 278.611 502.918 278.701 503.05 278.762C503.181 278.822 503.322 278.851 503.463 278.848Z" fill="#5159BF"/>
    <path d="M513.152 259.374L519.147 260.608C518.299 267.589 516.269 274.302 513.173 280.353C513.093 280.496 512.983 280.613 512.854 280.694C512.725 280.775 512.581 280.817 512.435 280.817C512.288 280.817 512.144 280.775 512.015 280.694C511.886 280.613 511.777 280.496 511.696 280.353L507.474 273.467C507.251 273.067 507.133 272.6 507.133 272.122C507.133 271.645 507.251 271.177 507.474 270.777L513.152 259.374Z" fill="white"/>
    <path d="M500.17 262.359L494.196 264.655C494.376 270.093 495.909 275.351 498.608 279.785C498.689 279.922 498.798 280.034 498.925 280.112C499.052 280.19 499.193 280.23 499.336 280.23C499.479 280.23 499.62 280.19 499.747 280.112C499.874 280.034 499.983 279.922 500.064 279.785L503.547 273.466C503.752 273.104 503.872 272.685 503.894 272.252C503.916 271.819 503.84 271.386 503.674 270.998L500.17 262.359Z" fill="white"/>
    <path d="M511.633 349.338V334.752C511.633 333.128 511.081 331.571 510.099 330.423C509.117 329.275 507.786 328.631 506.397 328.631H502.513C501.308 328.637 500.131 328.202 499.147 327.388C498.163 326.574 497.421 325.42 497.025 324.089C496.424 322.026 495.719 320.007 494.914 318.042C494.39 316.774 494.216 315.347 494.416 313.959C494.617 312.57 495.182 311.289 496.033 310.292L498.777 307.084C499.264 306.515 499.65 305.84 499.914 305.097C500.177 304.353 500.313 303.557 500.313 302.752C500.313 301.947 500.177 301.151 499.914 300.407C499.65 299.664 499.264 298.989 498.777 298.42L489.953 288.103C489.467 287.534 488.889 287.082 488.254 286.774C487.618 286.466 486.936 286.307 486.248 286.307C485.56 286.307 484.879 286.466 484.243 286.774C483.607 287.082 483.03 287.534 482.544 288.103L479.799 291.312C478.947 292.307 477.851 292.968 476.664 293.202C475.476 293.436 474.255 293.233 473.171 292.62C471.49 291.678 469.763 290.854 467.999 290.152C466.862 289.686 465.877 288.818 465.181 287.668C464.486 286.518 464.113 285.143 464.115 283.735V279.193C464.115 277.57 463.563 276.013 462.582 274.865C461.6 273.717 460.268 273.072 458.88 273.072H446.404C445.016 273.072 443.684 273.717 442.702 274.865C441.72 276.013 441.169 277.57 441.169 279.193V283.735C441.174 285.144 440.803 286.52 440.106 287.671C439.41 288.822 438.423 289.689 437.285 290.152C435.521 290.855 433.794 291.679 432.113 292.62C431.028 293.233 429.808 293.436 428.62 293.202C427.433 292.968 426.337 292.307 425.484 291.312L422.74 288.103C422.254 287.534 421.676 287.082 421.041 286.774C420.405 286.466 419.724 286.307 419.035 286.307C418.347 286.307 417.666 286.466 417.03 286.774C416.394 287.082 415.817 287.534 415.331 288.103L406.507 298.42C406.02 298.989 405.634 299.664 405.37 300.407C405.106 301.151 404.971 301.947 404.971 302.752C404.971 303.557 405.106 304.353 405.37 305.097C405.634 305.84 406.02 306.515 406.507 307.084L409.251 310.292C410.105 311.287 410.672 312.568 410.872 313.958C411.073 315.347 410.897 316.775 410.37 318.042C409.563 320.006 408.858 322.026 408.259 324.089C407.86 325.418 407.118 326.57 406.134 327.384C405.151 328.197 403.975 328.633 402.77 328.631H398.886C397.498 328.631 396.166 329.275 395.184 330.423C394.203 331.571 393.651 333.128 393.651 334.752V349.338C393.651 350.962 394.203 352.519 395.184 353.667C396.166 354.815 397.498 355.46 398.886 355.46H402.77C403.975 355.457 405.151 355.893 406.134 356.707C407.118 357.52 407.86 358.672 408.259 360.001C408.858 362.064 409.563 364.084 410.37 366.048C410.894 367.316 411.068 368.743 410.868 370.132C410.667 371.52 410.102 372.801 409.251 373.798L406.507 377.007C406.02 377.575 405.634 378.25 405.37 378.994C405.106 379.737 404.971 380.534 404.971 381.338C404.971 382.143 405.106 382.94 405.37 383.683C405.634 384.426 406.02 385.101 406.507 385.67L415.331 395.987C415.817 396.556 416.394 397.008 417.03 397.316C417.666 397.624 418.347 397.783 419.035 397.783C419.724 397.783 420.405 397.624 421.041 397.316C421.676 397.008 422.254 396.556 422.74 395.987L425.484 392.778C426.337 391.783 427.433 391.123 428.62 390.888C429.808 390.654 431.028 390.857 432.113 391.47C433.793 392.412 435.52 393.237 437.285 393.938C438.423 394.401 439.41 395.269 440.106 396.419C440.803 397.57 441.174 398.946 441.169 400.355V404.897C441.169 406.52 441.72 408.077 442.702 409.225C443.684 410.373 445.016 411.018 446.404 411.018H458.88C460.268 411.018 461.6 410.373 462.582 409.225C463.563 408.077 464.115 406.52 464.115 404.897V400.355C464.113 398.947 464.486 397.572 465.181 396.422C465.877 395.272 466.862 394.404 467.999 393.938C469.764 393.238 471.491 392.413 473.171 391.47C474.255 390.857 475.476 390.654 476.664 390.888C477.851 391.123 478.947 391.783 479.799 392.778L482.544 395.987C483.03 396.556 483.607 397.008 484.243 397.316C484.879 397.624 485.56 397.783 486.248 397.783C486.936 397.783 487.618 397.624 488.254 397.316C488.889 397.008 489.467 396.556 489.953 395.987L498.777 385.67C499.264 385.101 499.65 384.426 499.914 383.683C500.177 382.94 500.313 382.143 500.313 381.338C500.313 380.534 500.177 379.737 499.914 378.994C499.65 378.25 499.264 377.575 498.777 377.007L496.033 373.798C495.182 372.801 494.617 371.52 494.416 370.132C494.216 368.743 494.39 367.316 494.914 366.048C495.72 364.083 496.425 362.064 497.025 360.001C497.421 358.67 498.163 357.516 499.147 356.702C500.131 355.888 501.308 355.453 502.513 355.46H506.397C507.786 355.46 509.117 354.815 510.099 353.667C511.081 352.519 511.633 350.962 511.633 349.338ZM454.932 375.155C449.136 375.704 443.335 374.16 438.313 370.732C433.291 367.304 429.29 362.156 426.849 355.985C424.409 349.813 423.647 342.915 424.666 336.22C425.685 329.526 428.436 323.359 432.548 318.551C436.66 313.743 441.935 310.527 447.66 309.335C453.385 308.143 459.286 309.035 464.564 311.888C469.842 314.742 474.245 319.42 477.177 325.292C480.109 331.164 481.43 337.946 480.96 344.723C480.416 352.582 477.499 359.958 472.731 365.533C467.963 371.109 461.654 374.519 454.932 375.155Z" fill="#6E64C3"/>
    <path d="M529.111 351.486V332.58C529.111 330.479 528.397 328.463 527.127 326.978C525.856 325.492 524.132 324.657 522.335 324.657H517.184C515.621 324.661 514.096 324.095 512.821 323.038C511.546 321.98 510.584 320.484 510.071 318.758C509.276 316.087 508.346 313.475 507.284 310.934C506.604 309.29 506.379 307.44 506.64 305.639C506.901 303.839 507.635 302.178 508.741 300.889L512.308 296.717C512.941 295.981 513.443 295.106 513.785 294.143C514.127 293.179 514.304 292.146 514.304 291.102C514.304 290.059 514.127 289.026 513.785 288.062C513.443 287.098 512.941 286.223 512.308 285.487L500.867 272.11C499.592 270.622 497.865 269.787 496.064 269.787C494.263 269.787 492.536 270.622 491.262 272.11L487.694 276.281C486.591 277.573 485.171 278.432 483.631 278.737C482.091 279.042 480.509 278.779 479.103 277.984C476.93 276.743 474.695 275.655 472.411 274.726C470.935 274.125 469.655 273.001 468.751 271.51C467.847 270.02 467.362 268.236 467.366 266.408V260.534C467.366 258.433 466.652 256.418 465.381 254.932C464.11 253.446 462.387 252.611 460.59 252.611H444.42C442.623 252.611 440.899 253.446 439.628 254.932C438.357 256.418 437.644 258.433 437.644 260.534V266.408C437.647 268.236 437.163 270.02 436.258 271.51C435.354 273.001 434.075 274.125 432.598 274.726C430.314 275.655 428.08 276.743 425.907 277.984C424.501 278.779 422.918 279.042 421.378 278.737C419.838 278.432 418.418 277.573 417.315 276.281L413.748 272.11C412.473 270.622 410.746 269.787 408.945 269.787C407.144 269.787 405.417 270.622 404.143 272.11L392.701 285.487C391.429 286.977 390.714 288.997 390.714 291.102C390.714 293.208 391.429 295.227 392.701 296.717L396.269 300.889C397.374 302.178 398.108 303.839 398.37 305.639C398.631 307.44 398.405 309.29 397.725 310.934C396.664 313.475 395.733 316.087 394.939 318.758C394.425 320.484 393.464 321.98 392.189 323.038C390.914 324.095 389.388 324.661 387.825 324.657H382.928C382.038 324.657 381.157 324.862 380.334 325.26C379.512 325.658 378.765 326.242 378.136 326.978C377.507 327.713 377.008 328.587 376.667 329.548C376.327 330.509 376.151 331.539 376.151 332.58V351.486C376.151 353.587 376.865 355.602 378.136 357.088C379.407 358.574 381.13 359.409 382.928 359.409H387.952C389.515 359.405 391.04 359.971 392.315 361.028C393.59 362.085 394.552 363.581 395.066 365.308C395.86 367.978 396.79 370.591 397.852 373.132C398.532 374.776 398.757 376.626 398.496 378.426C398.235 380.227 397.501 381.887 396.395 383.177L392.828 387.348C391.556 388.838 390.841 390.858 390.841 392.963C390.841 395.069 391.556 397.088 392.828 398.578L404.269 411.956C404.899 412.695 405.647 413.282 406.471 413.683C407.296 414.083 408.179 414.289 409.072 414.289C409.964 414.289 410.848 414.083 411.672 413.683C412.496 413.282 413.245 412.695 413.874 411.956L417.421 407.809C418.524 406.517 419.944 405.658 421.484 405.353C423.023 405.048 424.606 405.311 426.012 406.106C428.185 407.347 430.42 408.435 432.704 409.364C434.18 409.965 435.46 411.089 436.364 412.58C437.268 414.071 437.752 415.854 437.749 417.682V423.556C437.749 425.658 438.463 427.673 439.734 429.159C441.005 430.644 442.728 431.479 444.525 431.479H460.695C462.492 431.479 464.216 430.644 465.487 429.159C466.757 427.673 467.471 425.658 467.471 423.556V417.682C467.468 415.854 467.952 414.071 468.856 412.58C469.761 411.089 471.04 409.965 472.517 409.364C474.801 408.435 477.035 407.347 479.208 406.106C480.614 405.311 482.197 405.048 483.737 405.353C485.277 405.658 486.697 406.517 487.8 407.809L491.367 411.956C491.997 412.695 492.745 413.282 493.57 413.683C494.394 414.083 495.277 414.289 496.17 414.289C497.062 414.289 497.946 414.083 498.77 413.683C499.594 413.282 500.343 412.695 500.972 411.956L512.414 398.578C513.046 397.842 513.548 396.967 513.891 396.004C514.233 395.04 514.409 394.007 514.409 392.963C514.409 391.92 514.233 390.887 513.891 389.923C513.548 388.96 513.046 388.084 512.414 387.348L508.846 383.177C507.741 381.887 507.006 380.227 506.745 378.426C506.484 376.626 506.71 374.776 507.39 373.132C508.451 370.591 509.382 367.978 510.176 365.308C510.69 363.581 511.651 362.085 512.926 361.028C514.201 359.971 515.727 359.405 517.29 359.409H522.314C523.206 359.412 524.089 359.209 524.914 358.813C525.738 358.416 526.488 357.833 527.119 357.097C527.751 356.361 528.252 355.486 528.594 354.524C528.935 353.561 529.111 352.528 529.111 351.486ZM455.608 384.954C448.095 385.658 440.579 383.651 434.073 379.203C427.566 374.756 422.383 368.082 419.223 360.082C416.063 352.082 415.078 343.142 416.4 334.466C417.722 325.791 421.288 317.799 426.618 311.568C431.947 305.337 438.782 301.167 446.202 299.621C453.622 298.075 461.269 299.227 468.111 302.922C474.953 306.617 480.661 312.677 484.465 320.284C488.269 327.892 489.985 336.68 489.383 345.464C488.684 355.664 484.901 365.241 478.712 372.477C472.523 379.713 464.332 384.137 455.608 384.954Z" fill="#827DDC"/>
    <path d="M452.61 399.442C479.728 399.442 501.711 373.739 501.711 342.032C501.711 310.326 479.728 284.623 452.61 284.623C425.492 284.623 403.509 310.326 403.509 342.032C403.509 373.739 425.492 399.442 452.61 399.442Z" stroke="#41378C" stroke-width="2.96" stroke-miterlimit="10"/>
    <path d="M403.509 342.032C403.532 326.824 408.715 312.247 417.92 301.502C427.126 290.757 439.602 284.722 452.61 284.722" stroke="#5046AF" stroke-width="2.96" stroke-miterlimit="10" stroke-linecap="round"/>
    <path d="M453.644 284.846C454.298 284.197 454.714 283.281 454.808 282.285C454.902 281.289 454.667 280.289 454.151 279.49L452.863 277.49C451.278 275.26 450.385 272.467 450.33 269.568C450.33 267.593 449.275 262.015 447.523 262.361C445.771 262.706 447.523 269.518 446.087 269.345C445.391 269.345 442.857 264.409 440.979 261.472C439.965 259.892 438.066 259.004 437.728 260.534C437.517 261.423 436.757 261.571 435.807 262.361C434.857 263.15 435.385 268.087 435.406 269.395C435.427 270.703 434.899 271.517 437.073 274.331C439.869 277.158 442.84 279.74 445.961 282.057L449.148 284.525C449.75 285.185 450.54 285.563 451.366 285.586C452.191 285.609 452.995 285.275 453.623 284.648L453.644 284.846Z" fill="#FAB9AF"/>
    <path d="M452.61 277.045C452.61 277.045 482.438 310.538 489.425 313.327C496.413 316.116 516.425 267.617 520.013 262.607C525.945 254.313 538.759 262.853 536.542 278.205C533.756 297.556 494.323 334.973 489.404 335.393C484.486 335.812 447.523 284.326 447.523 284.326C448.39 281.247 450.203 278.653 452.61 277.045Z" fill="#B0B0FF"/>
    <path d="M274.635 65.9437L276.134 71.3984C276.209 71.6735 276.341 71.9229 276.518 72.125C276.694 72.3272 276.91 72.4759 277.147 72.5584L281.834 74.2121C282.103 74.3098 282.344 74.4932 282.529 74.7417C282.714 74.9902 282.837 75.2941 282.883 75.6194C282.929 75.9447 282.896 76.2785 282.789 76.5835C282.682 76.8885 282.505 77.1528 282.277 77.3466L278.308 80.6787C278.108 80.8469 277.945 81.0696 277.835 81.3276C277.725 81.5856 277.67 81.8712 277.675 82.1596V87.8857C277.677 88.2137 277.601 88.5359 277.456 88.8168C277.311 89.0976 277.103 89.326 276.854 89.4768C276.605 89.6275 276.325 89.6947 276.045 89.6709C275.765 89.6471 275.496 89.5333 275.268 89.3419L271.321 85.9605C271.123 85.7909 270.893 85.6799 270.65 85.6369C270.408 85.5939 270.16 85.6203 269.928 85.7137L265.305 87.5895C265.038 87.6967 264.751 87.7151 264.476 87.6427C264.201 87.5702 263.949 87.4098 263.748 87.1794C263.546 86.9489 263.403 86.6575 263.335 86.3376C263.267 86.0178 263.277 85.6821 263.363 85.3682L264.904 79.9382C264.981 79.665 265 79.374 264.959 79.0903C264.919 78.8065 264.82 78.5385 264.671 78.3092L261.758 73.7431C261.59 73.4784 261.488 73.164 261.463 72.8353C261.439 72.5065 261.493 72.1762 261.62 71.8815C261.747 71.5869 261.942 71.3394 262.183 71.1669C262.423 70.9944 262.7 70.9036 262.983 70.9047H267.88C268.125 70.904 268.366 70.834 268.583 70.7008C268.8 70.5676 268.986 70.3751 269.126 70.1396L271.912 65.4501C272.073 65.1688 272.299 64.9471 272.564 64.811C272.829 64.675 273.122 64.6303 273.408 64.6821C273.694 64.734 273.962 64.8802 274.179 65.1037C274.396 65.3272 274.555 65.6187 274.635 65.9437Z" fill="white"/>
    <path d="M271.764 58.4901C272.577 58.4935 273.389 58.5677 274.192 58.7123C278.423 59.4613 282.227 62.1436 284.768 66.1698C287.31 70.196 288.38 75.237 287.744 80.1853C287.432 82.6386 286.709 84.9959 285.617 87.122C284.524 89.2481 283.084 91.1014 281.378 92.5756C279.672 94.0498 277.734 95.1161 275.675 95.7132C273.616 96.3104 271.476 96.4267 269.379 96.0556C265.148 95.3066 261.343 92.6243 258.802 88.5981C256.261 84.5718 255.191 79.5309 255.827 74.5826C256.418 70.1275 258.347 66.0642 261.267 63.1201C264.187 60.1761 267.908 58.5435 271.764 58.5148V58.4901ZM271.764 56.7131C267.183 56.7347 262.786 58.8316 259.499 62.5631C256.212 66.2946 254.289 71.3705 254.135 76.7245C253.981 82.0785 255.607 87.2939 258.673 91.2754C261.738 95.2568 266.004 97.6944 270.574 98.076C275.144 98.4577 279.663 96.7538 283.181 93.3222C286.699 89.8906 288.943 84.9984 289.442 79.6731C289.94 74.3479 288.654 69.0041 285.854 64.7641C283.053 60.5242 278.957 57.718 274.424 56.9352C273.544 56.783 272.654 56.7088 271.764 56.7131Z" fill="white"/>
    <path d="M584.123 590.897H28.941C28.034 590.897 27.1642 590.476 26.5229 589.726C25.8815 588.976 25.5212 587.959 25.5212 586.899C25.5212 585.838 25.8815 584.821 26.5229 584.072C27.1642 583.322 28.034 582.9 28.941 582.9H584.123C585.03 582.9 585.899 583.322 586.541 584.072C587.182 584.821 587.542 585.838 587.542 586.899C587.542 587.959 587.182 588.976 586.541 589.726C585.899 590.476 585.03 590.897 584.123 590.897Z" fill="#D2F0FF"/>
</svg>
