<svg width="594" height="509" viewBox="0 0 594 509" fill="none" xmlns="http://www.w3.org/2000/svg">
    <path d="M456.788 5.589C442.108 0.0396524 426.168 -1.28988 410.772 1.75088C395.375 4.79164 381.138 12.0813 369.67 22.7948C364.704 27.5416 358.427 30.6864 351.652 31.8213C344.877 32.9562 337.918 32.0287 331.677 29.1592C302.42 15.6559 268.177 18.4389 243.155 38.839C227.81 51.2591 214.579 66.0838 203.976 82.7367C185.993 111.679 159.504 134.356 128.135 147.664C125.812 148.632 123.521 149.64 121.263 150.689C111.737 155.061 103.831 162.326 98.67 171.449C93.5089 180.572 91.3548 191.09 92.514 201.507C92.7715 203.394 92.7715 205.307 92.514 207.194C91.8688 211.444 89.9054 215.384 86.9008 218.458C83.8961 221.532 80.002 223.585 75.768 224.327L74.7516 224.473C66.2665 225.495 58.4436 229.571 52.7436 235.939C47.0435 242.307 43.8561 250.532 43.7764 259.078C43.7764 259.239 43.7764 259.4 43.7764 259.562C43.7764 328.917 113.156 385.157 198.653 385.157C227.967 385.344 256.889 378.419 282.939 364.974C309.375 350.724 339.122 343.751 369.137 344.768C372.509 344.913 375.905 344.986 379.325 344.986C490.134 344.986 579.938 265.975 579.938 168.499C579.987 95.1268 529.144 32.2567 456.788 5.589ZM437.598 78.3566C433.431 79.0714 429.145 78.4417 425.359 76.5587C421.574 74.6757 418.486 71.637 416.543 67.8825C414.6 64.128 413.901 59.8524 414.549 55.6747C415.197 51.497 417.158 47.6338 420.147 44.6444C423.137 41.655 427 39.6944 431.178 39.0464C435.355 38.3985 439.631 39.0967 443.385 41.0401C447.14 42.9836 450.179 46.0713 452.062 49.8565C453.945 53.6416 454.574 57.9278 453.859 62.0946C453.16 66.1526 451.221 69.8944 448.309 72.8062C445.397 75.718 441.655 77.6569 437.598 78.3566Z" fill="#B0B0FF"/>
    <path d="M265.927 77.9694C265.504 76.954 264.776 76.0948 263.844 75.5098C262.913 74.9247 261.823 74.6427 260.724 74.7025L256.804 74.9203L258.982 71.8227C259.646 70.8581 260.001 69.7147 260.001 68.5437C260.001 67.3727 259.646 66.2293 258.982 65.2647C253.359 57.0123 246.263 49.8671 238.049 44.187C237.061 43.4972 235.896 43.1034 234.691 43.052C233.487 43.0006 232.293 43.2936 231.249 43.8966L227.256 46.3166L227.571 44.066C227.811 42.3859 227.502 40.6732 226.691 39.1823C225.881 37.6913 224.61 36.5016 223.07 35.7898C186.335 18.9712 145.196 26.957 159.038 42.0575C160.414 43.517 162.006 44.7574 163.757 45.7358C167.024 47.6233 174.502 52.1244 183.407 58.4889C184.639 59.3776 186.08 59.9317 187.59 60.0971C189.1 60.2625 190.627 60.0336 192.022 59.4326L192.917 59.0455C193.152 58.9495 193.409 58.9202 193.659 58.9607C193.91 59.0012 194.144 59.11 194.337 59.2751C194.529 59.4402 194.673 59.6551 194.751 59.8964C194.829 60.1377 194.84 60.3959 194.781 60.6426C194.382 62.2404 194.441 63.9181 194.95 65.4842C195.459 67.0502 196.398 68.4416 197.66 69.4996C201.097 72.3793 204.533 75.4526 207.848 78.6954C209.098 79.9276 210.686 80.7586 212.411 81.082C214.135 81.4054 215.917 81.2063 217.528 80.5103L218.327 80.1715C218.562 80.0756 218.818 80.0463 219.069 80.0868C219.319 80.1273 219.553 80.2361 219.746 80.4011C219.939 80.5662 220.082 80.7812 220.16 81.0225C220.239 81.2638 220.249 81.522 220.19 81.7687L219.149 85.6164C218.835 86.8808 218.806 88.1994 219.066 89.4763C219.326 90.7531 219.867 91.956 220.65 92.9972C222.978 96.0727 225.089 99.3072 226.966 102.677C227.593 103.824 228.467 104.817 229.527 105.583C230.586 106.349 231.803 106.869 233.088 107.105L235.194 107.493C235.456 107.533 235.701 107.648 235.899 107.824C236.098 107.999 236.241 108.229 236.313 108.484C236.384 108.739 236.381 109.01 236.302 109.263C236.224 109.517 236.074 109.742 235.871 109.913L235.557 110.203C234.434 111.235 233.595 112.538 233.121 113.987C232.646 115.436 232.552 116.983 232.846 118.479V118.745C239.84 157.755 249.786 259.707 249.786 259.707C249.786 259.707 292.111 139.847 265.927 77.9694Z" fill="#C2C5FF"/>
    <path d="M265.976 77.9939C265.553 76.9761 264.827 76.1137 263.895 75.5246C262.964 74.9355 261.874 74.6485 260.773 74.7028H259.224C259.004 74.7169 258.785 74.6683 258.592 74.5625C258.399 74.4567 258.239 74.2982 258.133 74.1054C258.026 73.9126 257.977 73.6935 257.99 73.4736C258.003 73.2538 258.079 73.0422 258.208 72.8636L259.006 71.7262C259.67 70.7616 260.026 69.6182 260.026 68.4472C260.026 67.2762 259.67 66.1328 259.006 65.1682C253.383 56.9158 246.287 49.7705 238.074 44.0905C237.085 43.4007 235.921 43.0069 234.716 42.9555C233.512 42.9041 232.318 43.1971 231.274 43.8001L229.362 44.9133C229.17 45.0237 228.951 45.0782 228.73 45.0706C228.509 45.0629 228.294 44.9935 228.11 44.87C227.926 44.7466 227.78 44.5742 227.69 44.3723C227.599 44.1703 227.566 43.947 227.596 43.7275C227.826 42.0798 227.52 40.4016 226.723 38.9415C225.925 37.4814 224.678 36.317 223.167 35.6207C187.788 19.5039 148.27 26.3281 157.684 40.267C158.106 40.8929 158.687 41.3953 159.367 41.7228C160.048 42.0502 160.803 42.1908 161.555 42.1304C180.17 41.0348 198.726 45.096 215.181 53.8671C216.026 54.3252 216.962 54.587 217.922 54.6331C218.881 54.6792 219.839 54.5084 220.723 54.1333L224.837 52.3425L224.304 54.4963C224.009 55.7097 224.081 56.9836 224.512 58.1558C224.943 59.328 225.713 60.3454 226.724 61.0785C231.847 64.8421 236.517 69.1866 240.639 74.0252C241.31 74.7731 242.197 75.2937 243.177 75.5148C244.157 75.736 245.181 75.6467 246.108 75.2593L247.463 74.6786C247.724 74.5667 248.011 74.5299 248.291 74.572C248.572 74.6142 248.835 74.7338 249.051 74.9174C249.267 75.1009 249.428 75.3411 249.515 75.611C249.602 75.8809 249.612 76.1698 249.544 76.4451L248.262 81.527C247.908 82.9451 248.116 84.4452 248.843 85.7135C270.913 124.433 258.813 193.619 247.851 236.863C247.762 237.359 247.762 237.867 247.851 238.363V238.751C247.95 239.745 248.393 240.674 249.103 241.379C249.813 242.083 250.746 242.518 251.742 242.609C252.738 242.701 253.734 242.443 254.561 241.88C255.387 241.318 255.992 240.485 256.272 239.525C266.871 202.863 285.553 124.336 265.976 77.9939Z" fill="#D2D2FF"/>
    <path d="M266.193 185.923C257.264 161.724 246.834 144.203 235.46 131.644C235.082 131.203 234.569 130.898 234.001 130.776C233.433 130.653 232.841 130.72 232.314 130.966L227.741 132.854C227.242 133.033 226.7 133.06 226.186 132.93C225.672 132.8 225.208 132.519 224.855 132.124C224.501 131.729 224.274 131.237 224.202 130.712C224.129 130.186 224.216 129.651 224.45 129.175L226.337 125.158C226.583 124.632 226.65 124.039 226.527 123.471C226.405 122.903 226.1 122.391 225.659 122.012C213.799 111.752 199.212 105.161 183.674 103.04C183.212 102.991 182.746 103.064 182.322 103.251C181.898 103.437 181.529 103.732 181.254 104.105L179.971 105.871C179.659 106.321 179.217 106.664 178.703 106.853C178.189 107.042 177.63 107.069 177.101 106.929C176.572 106.788 176.099 106.489 175.746 106.07C175.394 105.651 175.179 105.134 175.131 104.589C175.072 103.938 174.775 103.331 174.298 102.885C173.82 102.439 173.195 102.184 172.542 102.169C162.766 102.134 153.019 103.246 143.502 105.484C131.403 108.17 101.154 122.641 101.589 135.346C101.928 145.655 148.1 143.816 187.666 168.403C188.077 168.645 188.545 168.773 189.022 168.773C189.498 168.773 189.966 168.645 190.377 168.403L192.361 167.289C192.827 167.026 193.36 166.909 193.893 166.954C194.426 166.998 194.933 167.202 195.348 167.539C195.764 167.876 196.068 168.33 196.221 168.843C196.375 169.355 196.37 169.901 196.209 170.411L195.822 171.645C195.656 172.171 195.659 172.735 195.828 173.259C195.997 173.784 196.324 174.243 196.765 174.573C202.89 179.188 208.512 184.436 213.536 190.23C214.794 191.699 216.028 193.215 217.238 194.78C217.55 195.184 217.971 195.49 218.451 195.662C218.932 195.833 219.451 195.863 219.948 195.748L223.046 195.022C223.605 194.84 224.209 194.849 224.763 195.047C225.317 195.245 225.789 195.62 226.107 196.115C226.425 196.61 226.57 197.196 226.52 197.782C226.469 198.368 226.226 198.92 225.829 199.354L224.087 201.774C223.802 202.204 223.651 202.709 223.651 203.225C223.651 203.742 223.802 204.247 224.087 204.677C250.052 245.816 260.531 308.735 263.749 332.716C263.828 333.304 264.101 333.849 264.525 334.264C264.949 334.678 265.499 334.94 266.088 335.007C266.677 335.073 267.272 334.941 267.778 334.632C268.283 334.322 268.671 333.852 268.88 333.297C276.841 312.22 292.135 256.44 266.193 185.923Z" fill="white"/>
    <path d="M266.193 185.923C257.264 161.724 246.834 144.203 235.46 131.644C235.082 131.203 234.569 130.898 234.001 130.776C233.433 130.653 232.841 130.72 232.314 130.966L227.741 132.854C227.242 133.033 226.7 133.06 226.186 132.93C225.672 132.8 225.208 132.519 224.855 132.124C224.501 131.729 224.274 131.237 224.202 130.712C224.129 130.186 224.216 129.651 224.45 129.175L226.337 125.158C226.583 124.632 226.65 124.039 226.527 123.471C226.405 122.903 226.1 122.391 225.659 122.012C213.799 111.752 199.212 105.161 183.674 103.04C183.212 102.991 182.746 103.064 182.322 103.251C181.898 103.437 181.529 103.732 181.254 104.105L179.971 105.871C179.659 106.321 179.217 106.664 178.703 106.853C178.189 107.042 177.63 107.069 177.101 106.929C176.572 106.788 176.099 106.489 175.746 106.07C175.394 105.651 175.179 105.134 175.131 104.589C175.072 103.938 174.775 103.331 174.298 102.885C173.82 102.439 173.195 102.184 172.542 102.169C162.766 102.134 153.019 103.246 143.502 105.484C131.403 108.17 101.154 122.641 101.589 135.346C101.589 137.137 103.089 138.565 105.655 139.823C108.418 141.126 111.422 141.839 114.475 141.919C117.529 141.998 120.566 141.441 123.393 140.283C126.224 139.136 129.136 138.198 132.105 137.476C137.927 136.15 143.827 135.196 149.77 134.62C150.289 134.576 150.783 134.38 151.192 134.057C151.6 133.735 151.905 133.299 152.069 132.805L154.876 124.335C155.062 123.859 155.381 123.446 155.794 123.146C156.208 122.846 156.7 122.672 157.21 122.644C157.721 122.616 158.229 122.735 158.673 122.988C159.117 123.241 159.479 123.616 159.716 124.069L163.709 132.902C163.909 133.339 164.224 133.714 164.62 133.987C165.017 134.26 165.479 134.42 165.96 134.451C170.497 134.747 175.004 135.402 179.439 136.411C179.893 136.516 180.367 136.499 180.813 136.363C181.258 136.227 181.661 135.977 181.98 135.637L187.352 129.901C187.718 129.513 188.193 129.244 188.715 129.129C189.236 129.014 189.781 129.058 190.276 129.257C190.772 129.455 191.197 129.798 191.495 130.241C191.794 130.684 191.952 131.206 191.95 131.74V138.565C191.956 139.082 192.112 139.586 192.4 140.016C192.688 140.446 193.095 140.782 193.571 140.985C204.627 145.987 214.524 153.23 222.635 162.256C222.939 162.581 223.32 162.824 223.743 162.964C224.166 163.103 224.617 163.134 225.054 163.054L232.314 162.087C232.846 162.012 233.387 162.101 233.867 162.339C234.347 162.578 234.744 162.956 235.006 163.425C235.267 163.893 235.381 164.429 235.333 164.963C235.285 165.498 235.076 166.005 234.734 166.418L231.83 169.903C231.467 170.37 231.27 170.945 231.27 171.536C231.27 172.128 231.467 172.703 231.83 173.17C239.297 183.665 245.548 194.974 250.464 206.88C250.611 207.231 250.832 207.547 251.112 207.806C251.391 208.065 251.723 208.261 252.085 208.38L259.611 210.8C260.089 210.983 260.504 211.3 260.806 211.712C261.108 212.125 261.286 212.616 261.316 213.126C261.347 213.637 261.23 214.145 260.979 214.591C260.728 215.037 260.354 215.401 259.902 215.64L257.094 216.922C256.492 217.203 256.017 217.699 255.762 218.312C255.506 218.926 255.49 219.613 255.715 220.238C273.502 270.113 270.719 312.413 264.814 340.025C264.769 340.305 264.769 340.591 264.814 340.872C264.814 341.912 264.984 342.469 264.984 342.469C264.984 342.469 299.492 276.404 266.193 185.923Z" fill="#D2D2FF"/>
    <path d="M277.591 175.735C288.432 158.287 299.37 146.284 310.284 138.298C310.639 138.049 311.061 137.916 311.494 137.916C311.927 137.916 312.35 138.049 312.704 138.298L315.971 140.501C316.326 140.732 316.742 140.853 317.166 140.847C317.59 140.842 318.002 140.709 318.351 140.468C318.699 140.226 318.967 139.886 319.121 139.491C319.275 139.096 319.307 138.664 319.214 138.25L318.391 134.814C318.262 134.355 318.291 133.866 318.476 133.426C318.661 132.986 318.989 132.622 319.408 132.394C330.319 126.287 342.772 123.488 355.247 124.335C355.625 124.363 355.989 124.492 356.3 124.709C356.611 124.926 356.857 125.224 357.013 125.569L357.739 127.142C357.922 127.526 358.215 127.847 358.581 128.063C358.947 128.279 359.369 128.38 359.793 128.354C360.218 128.328 360.624 128.176 360.961 127.917C361.298 127.658 361.55 127.304 361.684 126.9C361.836 126.402 362.168 125.977 362.615 125.709C363.062 125.441 363.592 125.348 364.104 125.448C371.735 126.995 379.159 129.431 386.222 132.708C395.176 136.725 416.52 152.891 414.148 162.716C412.212 170.701 376.494 161.869 341.55 174.815C341.193 174.95 340.807 174.985 340.432 174.916C340.057 174.848 339.707 174.679 339.42 174.428L338.065 173.242C337.743 172.965 337.346 172.791 336.924 172.742C336.502 172.692 336.075 172.77 335.698 172.965C335.321 173.16 335.011 173.464 334.807 173.837C334.604 174.209 334.516 174.634 334.556 175.057V176.074C334.598 176.51 334.505 176.949 334.288 177.33C334.072 177.711 333.743 178.016 333.346 178.203C327.823 180.823 322.591 184.019 317.738 187.738C316.528 188.682 315.318 189.674 314.108 190.69C313.801 190.958 313.423 191.133 313.02 191.193C312.617 191.253 312.205 191.196 311.833 191.029L309.413 189.964C309.026 189.788 308.595 189.733 308.175 189.804C307.756 189.876 307.368 190.071 307.06 190.365C306.753 190.659 306.541 191.039 306.451 191.455C306.362 191.871 306.399 192.304 306.558 192.699L307.501 195.119C307.659 195.499 307.702 195.917 307.625 196.321C307.547 196.726 307.353 197.098 307.066 197.393C280.205 225.319 261.934 272.726 255.594 290.972C255.447 291.427 255.151 291.817 254.753 292.081C254.355 292.344 253.879 292.465 253.404 292.423C252.929 292.381 252.482 292.178 252.137 291.849C251.791 291.519 251.568 291.082 251.504 290.609C249.012 272.605 246.011 226.626 277.591 175.735Z" fill="#C2C5FF"/>
    <path d="M277.592 175.735C288.433 158.287 299.371 146.284 310.285 138.298C310.639 138.049 311.062 137.916 311.495 137.916C311.928 137.916 312.35 138.049 312.705 138.298L315.972 140.501C316.327 140.732 316.743 140.853 317.167 140.847C317.59 140.842 318.003 140.709 318.351 140.468C318.699 140.226 318.968 139.886 319.122 139.491C319.275 139.096 319.308 138.664 319.214 138.25L318.392 134.814C318.262 134.355 318.292 133.866 318.477 133.426C318.661 132.986 318.99 132.622 319.408 132.394C330.32 126.287 342.772 123.488 355.247 124.335C355.626 124.363 355.99 124.492 356.301 124.709C356.612 124.926 356.858 125.224 357.014 125.569L357.74 127.142C357.922 127.526 358.215 127.847 358.581 128.063C358.947 128.279 359.37 128.38 359.794 128.354C360.218 128.328 360.625 128.176 360.962 127.917C361.299 127.658 361.55 127.304 361.684 126.9C361.836 126.402 362.168 125.977 362.615 125.709C363.062 125.441 363.593 125.348 364.104 125.448C371.736 126.995 379.159 129.431 386.223 132.708C395.176 136.725 416.52 152.891 414.149 162.716C413.81 164.095 412.455 164.99 410.253 165.547C407.892 166.13 405.436 166.216 403.041 165.799C400.646 165.382 398.363 164.472 396.338 163.127C394.307 161.779 392.18 160.582 389.974 159.545C385.641 157.578 381.187 155.889 376.64 154.488C376.242 154.368 375.889 154.135 375.622 153.817C375.355 153.498 375.188 153.109 375.139 152.697L374.317 145.558C374.262 145.137 374.082 144.742 373.801 144.424C373.52 144.105 373.151 143.878 372.74 143.772C372.329 143.665 371.895 143.684 371.495 143.825C371.094 143.967 370.746 144.225 370.493 144.566L365.968 150.809C365.742 151.12 365.436 151.364 365.082 151.513C364.728 151.662 364.339 151.712 363.959 151.656C360.376 151.162 356.759 150.951 353.142 151.027C352.772 151.038 352.406 150.952 352.079 150.778C351.752 150.604 351.476 150.348 351.279 150.035L348.012 144.711C347.787 144.349 347.458 144.062 347.068 143.889C346.678 143.716 346.245 143.664 345.825 143.739C345.406 143.815 345.018 144.015 344.713 144.313C344.408 144.612 344.2 144.995 344.116 145.413L343.075 150.761C342.994 151.17 342.795 151.546 342.503 151.843C342.21 152.14 341.837 152.344 341.43 152.431C331.984 154.521 323.076 158.551 315.27 164.264C314.994 164.464 314.674 164.595 314.337 164.645C314 164.696 313.656 164.665 313.334 164.555L307.768 162.619C307.385 162.512 306.979 162.516 306.597 162.628C306.216 162.741 305.873 162.958 305.609 163.255C305.344 163.553 305.168 163.918 305.101 164.31C305.033 164.703 305.077 165.106 305.227 165.474L306.945 168.644C307.164 169.063 307.237 169.541 307.154 170.006C307.07 170.47 306.835 170.893 306.486 171.21C298.968 178.204 292.271 186.03 286.521 194.538C286.349 194.785 286.126 194.992 285.867 195.146C285.608 195.301 285.32 195.398 285.021 195.433L278.753 196.111C278.33 196.162 277.932 196.338 277.61 196.617C277.289 196.897 277.058 197.266 276.949 197.678C276.84 198.09 276.856 198.525 276.997 198.927C277.137 199.329 277.395 199.68 277.737 199.934L279.721 201.386C280.146 201.701 280.438 202.163 280.541 202.682C280.644 203.201 280.55 203.74 280.278 204.193C263.096 231.789 253.984 263.644 253.973 296.151C254.009 296.375 254.009 296.604 253.973 296.829L253.586 298.039C253.586 298.039 237.154 241.025 277.592 175.735Z" fill="#D2D2FF"/>
    <path d="M590.732 430.676H142.123C141.481 430.676 140.866 430.421 140.412 429.967C139.958 429.513 139.703 428.898 139.703 428.256C139.703 427.614 139.958 426.999 140.412 426.545C140.866 426.091 141.481 425.836 142.123 425.836H590.732C591.373 425.836 591.989 426.091 592.443 426.545C592.897 426.999 593.152 427.614 593.152 428.256C593.152 428.898 592.897 429.513 592.443 429.967C591.989 430.421 591.373 430.676 590.732 430.676Z" fill="#D2F0FF"/>
    <path d="M537.154 202.572H275.776C263.948 202.572 254.36 212.161 254.36 223.989V383.85C254.36 395.678 263.948 405.266 275.776 405.266H537.154C548.982 405.266 558.571 395.678 558.571 383.85V223.989C558.571 212.161 548.982 202.572 537.154 202.572Z" fill="#5046AF"/>
    <path d="M542.72 218.423H270.186V389.392H542.72V218.423Z" fill="#C2C5FF"/>
    <path d="M542.72 373.057H270.186V389.392H542.72V373.057Z" fill="#B0B0FF"/>
    <path d="M542.72 218.423H270.186V226.53H542.72V218.423Z" fill="#B0B0FF"/>
    <path d="M555.57 425.715H257.361C251.937 425.715 246.736 423.56 242.901 419.725C239.066 415.891 236.912 410.689 236.912 405.266H575.946C575.946 410.677 573.801 415.867 569.982 419.7C566.163 423.533 560.981 425.695 555.57 425.715Z" fill="#C2C5FF"/>
    <path d="M555.57 418.673H257.361C253.174 418.671 249.089 417.385 245.657 414.987C242.225 412.59 239.612 409.196 238.17 405.266H236.912C236.912 410.689 239.066 415.891 242.901 419.725C246.736 423.56 251.937 425.715 257.361 425.715H555.57C560.993 425.715 566.194 423.56 570.029 419.725C573.864 415.891 576.018 410.689 576.018 405.266H574.736C573.296 409.193 570.686 412.583 567.259 414.98C563.832 417.377 559.752 418.666 555.57 418.673Z" fill="#B0B0FF"/>
    <path d="M566.339 401.249H246.568V405.266H566.339V401.249Z" fill="#B0B0FF"/>
    <path d="M425.716 412.091H387.19C385.374 412.091 383.632 411.369 382.348 410.085C381.063 408.8 380.342 407.059 380.342 405.242H432.564C432.564 407.059 431.843 408.8 430.558 410.085C429.274 411.369 427.532 412.091 425.716 412.091Z" fill="#5046AF"/>
    <path d="M317.303 394.788H279.891V401.249H317.303V394.788Z" fill="#8383DD"/>
    <path d="M533.815 394.788H496.402V401.249H533.815V394.788Z" fill="#8383DD"/>
    <path d="M375.091 327.175H478.35C480.474 327.175 482.511 328.019 484.014 329.521C485.516 331.023 486.36 333.06 486.36 335.185V337.29C486.36 339.415 485.516 341.452 484.014 342.954C482.511 344.456 480.474 345.3 478.35 345.3H375.091V327.126V327.175Z" fill="#827DDC"/>
    <path d="M375.986 327.175H314.205V330.635H371.049V341.912H314.205V345.373H375.986C377.16 345.373 378.287 344.906 379.117 344.076C379.948 343.245 380.414 342.119 380.414 340.944V331.627C380.418 331.044 380.305 330.465 380.084 329.925C379.863 329.385 379.537 328.894 379.126 328.48C378.714 328.067 378.225 327.738 377.686 327.514C377.147 327.29 376.569 327.175 375.986 327.175Z" fill="#5046AF"/>
    <path d="M375.188 330.611H316.964V341.888H375.188V330.611Z" fill="white"/>
    <path d="M375.188 330.611H316.964V333.249H375.188V330.611Z" fill="#C2C5FF"/>
    <path d="M383.584 309.001H449.6C450.652 309.001 451.694 309.208 452.666 309.611C453.638 310.013 454.521 310.603 455.264 311.347C456.008 312.091 456.598 312.974 457.001 313.946C457.403 314.918 457.61 315.959 457.61 317.011V319.165C457.61 321.289 456.767 323.327 455.264 324.829C453.762 326.331 451.725 327.175 449.6 327.175H383.584V309.001Z" fill="#5046AF"/>
    <path d="M384.383 309.001H322.602V312.462H379.447V323.738H322.602V327.199H384.383C384.965 327.199 385.541 327.084 386.078 326.862C386.615 326.639 387.104 326.313 387.515 325.902C387.926 325.491 388.252 325.002 388.475 324.465C388.697 323.928 388.812 323.352 388.812 322.77V313.454C388.815 312.87 388.703 312.292 388.482 311.752C388.261 311.211 387.935 310.72 387.523 310.307C387.112 309.893 386.623 309.564 386.084 309.34C385.545 309.116 384.967 309.001 384.383 309.001Z" fill="#5046AF"/>
    <path d="M383.585 312.438H325.361V323.714H383.585V312.438Z" fill="white"/>
    <path d="M383.585 312.438H325.361V315.075H383.585V312.438Z" fill="#C2C5FF"/>
    <path d="M311.979 285.431V289.908H395.805V304.524H311.979V309.001H397.862V285.431H311.979Z" fill="#827DDC"/>
    <path d="M454.029 308.977H397.862V285.407H454.029C455.955 285.407 457.801 286.172 459.163 287.533C460.524 288.895 461.289 290.741 461.289 292.667V301.669C461.295 302.626 461.112 303.576 460.75 304.462C460.388 305.348 459.854 306.154 459.18 306.834C458.505 307.513 457.702 308.052 456.818 308.42C455.935 308.788 454.987 308.977 454.029 308.977Z" fill="#5046AF"/>
    <path d="M456.087 289.908H397.863V304.524H456.087V289.908Z" fill="#C2C5FF"/>
    <path d="M456.087 289.908H397.863V293.344H456.087V289.908Z" fill="#827DDC"/>
    <path d="M402.702 289.908H316.456V304.524H402.702V289.908Z" fill="white"/>
    <path d="M402.702 289.908H316.456V293.344H402.702V289.908Z" fill="#C2C5FF"/>
    <path d="M338.961 345.349V349.826H422.788V368.58H338.961V373.057H424.845V345.349H338.961Z" fill="#827DDC"/>
    <path d="M481.012 373.033H424.845V345.324H481.012C482.937 345.324 484.783 346.089 486.145 347.451C487.506 348.812 488.271 350.659 488.271 352.584V365.724C488.278 366.682 488.095 367.631 487.733 368.518C487.371 369.404 486.837 370.21 486.162 370.889C485.487 371.569 484.685 372.108 483.801 372.476C482.917 372.843 481.969 373.033 481.012 373.033Z" fill="#5046AF"/>
    <path d="M483.068 349.826H424.845V368.58H483.068V349.826Z" fill="#C2C5FF"/>
    <path d="M483.068 349.826H424.845V353.262H483.068V349.826Z" fill="#827DDC"/>
    <path d="M429.685 349.826H343.438V368.58H429.685V349.826Z" fill="white"/>
    <path d="M429.685 349.826H343.438V353.262H429.685V349.826Z" fill="#C2C5FF"/>
    <path style="mix-blend-mode:lighten" opacity="0.51" d="M361.079 218.423L270.186 309.316V389.392H270.38L441.348 218.423H361.079Z" fill="url(#paint0_linear)"/>
    <path style="mix-blend-mode:lighten" opacity="0.51" d="M295.596 389.392H345.446L516.415 218.423H466.565L295.596 389.392Z" fill="url(#paint1_linear)"/>
    <g style="mix-blend-mode:lighten" opacity="0.51">
        <path d="M510.655 389.392L542.72 357.327V307.477L460.805 389.392H510.655Z" fill="white"/>
    </g>
    <path d="M243.76 239.331L229.192 136.992L189.893 131.62L169.468 238.581L243.76 239.331Z" fill="#FAB9AF"/>
    <path d="M213.39 397.789V409.332C213.401 411.68 213.083 414.017 212.447 416.277L211.454 419.834C211.259 420.514 211.224 421.231 211.354 421.927C211.484 422.622 211.774 423.278 212.201 423.842C212.629 424.406 213.182 424.862 213.817 425.175C214.452 425.487 215.151 425.647 215.859 425.642C223.723 425.642 237.13 425.642 240.59 425.642C240.865 425.652 241.135 425.562 241.348 425.388C241.562 425.215 241.705 424.97 241.752 424.699C242.042 421.335 232.314 419.084 224.982 416.253C219.392 414.099 219.706 404.153 220.384 398.2C220.443 397.682 220.386 397.156 220.218 396.662C220.05 396.168 219.774 395.717 219.411 395.342C219.047 394.967 218.605 394.678 218.117 394.494C217.628 394.31 217.105 394.237 216.585 394.28C215.712 394.364 214.901 394.77 214.311 395.418C213.72 396.067 213.392 396.912 213.39 397.789Z" fill="#FAB9AF"/>
    <path d="M159.402 394.643L155.433 407.831C155.259 408.416 154.998 408.97 154.658 409.477L151.851 413.663C151.443 414.287 151.184 414.996 151.095 415.736C151.005 416.476 151.088 417.226 151.336 417.929C151.584 418.631 151.991 419.267 152.526 419.786C153.06 420.306 153.707 420.695 154.416 420.923C154.416 420.923 160.103 422.932 165.96 424.844C171.816 426.755 179.487 425.158 179.487 423.585C179.487 420.076 176.22 422.859 170.727 419.181C168.888 417.947 167 416.761 165.306 415.333C160.466 411.631 164.701 402.241 167.605 396.942C167.846 396.498 167.98 396.004 167.996 395.5C168.012 394.996 167.911 394.494 167.699 394.036C167.488 393.578 167.172 393.175 166.778 392.861C166.383 392.546 165.921 392.327 165.427 392.223L164.048 391.932C163.074 391.712 162.053 391.87 161.191 392.373C160.329 392.876 159.689 393.687 159.402 394.643Z" fill="#FAB9AF"/>
    <path d="M199.984 240.323L243.543 236.669C243.543 236.669 247.923 268.346 236.912 325.699C231.758 352.584 220.989 403.984 220.989 403.984C218.445 405.157 215.578 405.43 212.858 404.758C212.858 404.758 212.035 382.083 211.551 357.666C211.067 334.241 210.946 309.267 209.446 301.039C206.397 284.342 199.984 240.323 199.984 240.323Z" fill="#5046AF"/>
    <path d="M222.393 305.323C233.282 263.337 219.029 242.114 219.029 242.114L199.984 240.323C199.984 240.323 206.397 284.342 209.446 301.064C210.56 311.173 211.102 321.337 211.067 331.507C211.237 339.71 218.884 318.826 222.393 305.323Z" fill="#41378C"/>
    <path d="M208.962 240.855C213.463 265.055 223.482 301.039 204.122 334.943C184.762 368.846 164.556 404.056 164.556 404.056C161.925 404.143 159.349 403.285 157.296 401.636C157.296 401.636 160.684 386.27 165.597 368.338C171.211 347.817 178.301 323.69 176.293 311.106C172.493 287.512 168.137 256.101 169.468 240.928C170.799 225.755 206.615 228.175 208.962 240.855Z" fill="#5046AF"/>
    <path d="M245.261 236.717L229.193 136.992L189.893 131.595L168.791 236.887C168.696 237.356 168.695 237.839 168.787 238.308C168.879 238.778 169.063 239.224 169.328 239.622C169.594 240.02 169.935 240.362 170.333 240.628C170.731 240.893 171.177 241.078 171.647 241.17C186.388 243.927 201.346 245.36 216.343 245.453C231.081 245.453 239.357 242.598 243.132 240.783C243.879 240.427 244.49 239.838 244.874 239.105C245.258 238.372 245.394 237.534 245.261 236.717Z" fill="white"/>
    <path d="M167.508 275.316C166.903 272.75 166.588 270.088 166.25 269.096C165.945 268.499 165.597 267.925 165.209 267.378C164.444 266.444 163.913 265.34 163.66 264.16V259.755C163.66 257.626 162.644 256.004 160.514 256.004C158.094 256.004 157.175 257.965 157.441 260.263V263.337C157.494 265.167 157.164 266.989 156.473 268.685C155.678 272.409 155.98 276.285 157.344 279.841C157.998 281.922 160.66 283.205 164.314 284.681C166.104 285.431 169.154 286.036 167.944 283.882C166.734 281.728 161.628 279.429 163.225 273.767C163.225 273.476 163.563 272.799 163.902 272.775C164.967 272.775 165.161 275.195 165.669 276.235C166.371 277.832 167.508 278.486 168.089 278.316C168.67 278.147 167.919 277.155 167.508 275.316Z" fill="#FAB9AF"/>
    <path d="M202.186 137.815C202.172 144.997 200.902 152.122 198.435 158.868C193.595 172.081 186.335 197.055 190.715 219.052C196.886 250.729 204.799 263.555 194.539 270.936C184.278 278.316 164.58 266.096 163.999 261.885C163.418 257.674 167.823 207.315 172.808 185.463C177.793 163.611 191.756 132.225 191.756 132.225L197.685 132.854C198.921 132.985 200.065 133.57 200.896 134.495C201.727 135.42 202.187 136.62 202.186 137.863V137.815Z" fill="#827DDC"/>
    <path d="M182.44 192.529C186.191 183.067 190.474 171.185 193.717 162.135C195.823 155.757 196.75 149.049 196.451 142.34L191.176 131.595C191.176 131.595 177.745 163.514 172.76 185.366C167.775 207.218 177.503 204.992 182.44 192.529Z" fill="#6E64C3"/>
    <path d="M183.722 134.33C183.722 134.33 149.504 180.309 149.577 206.081C149.577 221.593 155.312 253.197 156.667 260.481C156.748 260.934 156.973 261.348 157.309 261.663C157.645 261.977 158.073 262.174 158.531 262.224C159.175 262.257 159.822 262.257 160.466 262.224C161.228 262.209 161.988 262.145 162.741 262.03C163.363 261.936 163.93 261.619 164.335 261.138C164.74 260.657 164.956 260.045 164.943 259.417C164.75 249.737 164.121 211.72 166.686 204.097C169.614 195.361 198.145 153.714 198.702 144.518C199.258 135.322 192.168 127.094 183.722 134.33Z" fill="#827DDC"/>
    <path d="M218.521 135.54C222.981 146.943 224.503 159.283 222.949 171.428C220.529 192.578 215.06 256.997 234.323 266.725C240.421 269.798 254.336 256.174 254.336 251.092C254.336 246.01 249.689 229.095 245.285 213.68C240.881 198.265 230.281 137.137 230.281 137.137L218.521 135.54Z" fill="#827DDC"/>
    <path d="M246.834 218.979L245.333 213.704C244.462 210.703 243.325 205.936 242.066 200.225C235.073 203.516 228.007 206.686 221.207 210.146C220.693 213.615 220.442 217.118 220.456 220.625C229.217 220.238 238.025 219.754 246.834 218.979Z" fill="#6E64C3"/>
    <path d="M271.687 195.966C270.404 191.779 263.459 193.546 255.812 195.966C251.214 197.369 227.233 206.589 219.634 209.517C218.521 209.953 217.989 209.517 216.827 209.832C215.06 210.292 209.204 211.937 209.93 220.044C210.124 222.246 211.164 222.464 212.011 224.497C212.786 225.79 214.037 226.729 215.496 227.11C216.972 227.594 217.432 229.53 218.182 229.24C219.973 228.828 219.779 223.867 219.731 222.174C219.731 221.157 219.053 216.898 219.053 216.898C219.148 216.506 219.353 216.149 219.645 215.87C219.937 215.591 220.303 215.402 220.699 215.325C227.209 214.067 255.449 209.299 260.144 207.872C267.815 205.428 272.97 200.152 271.687 195.966Z" fill="#FAB9AF"/>
    <path d="M193.837 92.8764C194.193 96.5289 193.184 100.184 191.006 103.137C187.449 107.469 192.627 111.51 193.837 114.438C195.047 117.366 193.547 121.698 196.935 123.755C200.323 125.812 209.978 126.175 211.454 122.763C212.931 119.351 204.727 90.7952 193.837 92.8764Z" fill="#5046AF"/>
    <path d="M232.726 100.596C233.258 119.955 215.23 123.682 204.751 123.682C194.273 123.682 193.837 100.475 193.837 92.2227C193.837 83.9707 202.065 82.543 212.544 82.543C220.796 82.543 228.612 88.9316 231.903 95.0783C232.565 96.8385 232.845 98.7191 232.726 100.596Z" fill="#5046AF"/>
    <path d="M212.955 89.8999C204.194 89.8999 200.855 96.1434 200.855 107.686C201.01 111.701 202.193 115.609 204.291 119.036C204.872 120.036 205.245 121.143 205.386 122.291C205.527 123.439 205.435 124.604 205.114 125.715L203.275 132.225C201.968 138.275 204.848 141.59 209.083 142.8C210.148 143.054 211.253 143.093 212.334 142.914C213.414 142.735 214.448 142.343 215.375 141.759C217.553 140.356 217.795 137.331 217.335 134.766L216.827 132.902C216.656 132.301 216.61 131.672 216.689 131.053C216.769 130.434 216.973 129.837 217.29 129.298C217.606 128.76 218.029 128.292 218.531 127.921C219.034 127.551 219.607 127.286 220.215 127.143C226.966 125.667 227.934 118.625 229.749 107.783C231.612 96.2886 221.812 89.8999 212.955 89.8999Z" fill="#FAB9AF"/>
    <path d="M233.452 84.8418L228.418 86.3663C226.57 86.9136 224.603 86.9136 222.755 86.3663L212.713 83.4624C206.639 83.4624 196.596 86.8987 197.854 95.5621L198.967 101.757C199.188 102.964 199.8 104.065 200.711 104.888C201.621 105.71 202.778 106.209 204.001 106.307C204.107 106.785 204.389 107.206 204.79 107.487C205.192 107.768 205.684 107.889 206.169 107.825C206.655 107.761 207.1 107.518 207.415 107.143C207.73 106.768 207.894 106.288 207.873 105.798C207.908 104.465 208.39 103.182 209.241 102.155C210.092 101.128 211.264 100.417 212.567 100.136C216.071 99.2578 219.736 99.2578 223.239 100.136C224.867 100.632 226.583 100.767 228.268 100.533C229.953 100.299 231.566 99.7 232.997 98.7788C234.427 97.8575 235.639 96.6358 236.55 95.1985C237.46 93.7612 238.046 92.1428 238.267 90.456C238.267 90.0043 238.267 89.5445 238.267 89.0767C238.299 88.4606 238.191 87.8454 237.952 87.277C237.712 86.7086 237.347 86.2018 236.884 85.7944C236.421 85.3871 235.871 85.0898 235.277 84.9248C234.682 84.7598 234.058 84.7314 233.452 84.8418Z" fill="#5046AF"/>
    <path d="M205.695 107.904C205.695 110.59 204.703 112.744 202.113 112.744C199.524 112.744 197.878 109.066 197.878 106.38C197.878 103.693 199.524 103.04 202.113 103.04C204.703 103.04 205.695 105.218 205.695 107.904Z" fill="#FAB9AF"/>
    <path d="M227.136 115.914C227.197 116.206 227.192 116.508 227.122 116.798C227.052 117.088 226.918 117.358 226.731 117.59C226.543 117.822 226.306 118.009 226.037 118.137C225.768 118.266 225.474 118.333 225.176 118.334C224.663 118.335 224.17 118.14 223.797 117.789C223.423 117.439 223.198 116.958 223.167 116.447V107.904C223.167 107.583 223.295 107.276 223.522 107.049C223.749 106.822 224.056 106.694 224.377 106.694C224.596 106.694 224.809 106.768 224.98 106.905C225.152 107.041 225.272 107.231 225.321 107.445L227.136 115.914Z" fill="#FA968C"/>
    <path d="M226.772 137.766C226.772 137.766 232.314 134.306 241.994 143.695C251.674 153.084 272.049 187.786 274.034 198.361C276.018 208.937 221.182 216.196 221.182 216.196C219.432 214.098 218.518 211.426 218.617 208.695C218.617 208.695 252.496 196.038 253.126 191.586C253.755 187.133 227.716 160.804 225.659 157.005C221.932 150.156 220.553 142.824 226.772 137.766Z" fill="#827DDC"/>
    <path d="M212.568 211.938C212.568 211.938 206.034 217.866 205.816 218.399C205.332 219.488 206.494 220.649 207.341 219.73C208.502 218.423 212.011 216.826 213.149 218.665L212.568 211.938Z" fill="#FAB9AF"/>
    <path d="M30.6122 154.706C47.5189 154.706 61.2245 141 61.2245 124.094C61.2245 107.187 47.5189 93.4814 30.6122 93.4814C13.7056 93.4814 0 107.187 0 124.094C0 141 13.7056 154.706 30.6122 154.706Z" fill="#B0B0FF"/>
    <path d="M62.7728 68.241C68.9207 68.241 73.9046 63.2572 73.9046 57.1093C73.9046 50.9614 68.9207 45.9775 62.7728 45.9775C56.625 45.9775 51.6411 50.9614 51.6411 57.1093C51.6411 63.2572 56.625 68.241 62.7728 68.241Z" fill="#B0B0FF"/>
    <path d="M513.487 480.067C510.716 480.894 508.105 482.187 505.768 483.89C504.682 484.843 503.265 485.33 501.823 485.245H498.435C498.057 485.242 497.682 485.313 497.331 485.455C496.981 485.597 496.661 485.806 496.392 486.072C496.122 486.337 495.907 486.652 495.76 487.001C495.612 487.349 495.534 487.723 495.531 488.101C495.529 488.518 495.618 488.931 495.792 489.31C495.966 489.69 496.222 490.026 496.54 490.296C496.859 490.566 497.232 490.763 497.635 490.873C498.038 490.983 498.459 491.003 498.871 490.932C500.419 490.593 501.933 490.115 503.396 489.504C504.124 489.248 504.918 489.248 505.647 489.504C506.87 489.768 508.135 489.772 509.36 489.518C510.585 489.264 511.744 488.756 512.761 488.028C514.126 487.704 515.449 487.225 516.706 486.6C517.504 486.165 518.497 486.213 518.521 485.632C518.545 485.052 517.456 484.495 516.488 484.616C514.794 484.834 512.326 485.584 511.89 484.931C511.212 483.914 513.39 483.237 515.738 482.511C518.085 481.785 521.352 484.156 522.998 481.882C523.312 481.107 516.077 479.002 513.487 480.067Z" fill="#FAB9AF"/>
    <path d="M580.52 454.827C579.939 454.684 579.327 454.76 578.799 455.042C578.272 455.323 577.868 455.79 577.664 456.352L564.742 494.587C564.528 495.212 564.511 495.889 564.693 496.524C564.874 497.16 565.246 497.725 565.758 498.144L568.759 500.564L584.295 455.868L580.52 454.827Z" fill="#D2F0FF"/>
    <path d="M493.039 462.377C494.182 459.205 494.453 455.785 493.823 452.473C493.193 449.162 491.685 446.08 489.457 443.55C485.677 439.249 483.52 433.762 483.359 428.038C483.218 423.511 481.719 419.131 479.056 415.467C476.393 411.803 472.69 409.024 468.428 407.492C463.806 405.823 450.375 401.394 450.375 401.394C450.375 401.394 457.199 396.772 450.859 396.433C445.656 396.143 435.88 401.128 434.573 412.526C434.064 416.381 432.655 420.062 430.459 423.27C429.023 425.437 428.052 427.878 427.606 430.439C427.161 433 427.252 435.625 427.873 438.15C428.494 440.674 429.631 443.042 431.213 445.104C432.795 447.167 434.788 448.878 437.065 450.132L438.106 450.664C442.186 452.683 445.407 456.099 447.183 460.291C448.959 464.483 449.173 469.172 447.786 473.508C447.018 475.372 446.673 477.383 446.778 479.397C446.883 481.41 447.434 483.374 448.391 485.148C450.393 488.183 453.244 490.563 456.587 491.992C459.931 493.422 463.621 493.837 467.198 493.188C470.776 492.538 474.084 490.852 476.712 488.339C479.34 485.825 481.171 482.595 481.98 479.05C482.596 475.845 484.307 472.954 486.819 470.871C489.665 468.695 491.824 465.746 493.039 462.377Z" fill="#827DDC"/>
    <path d="M439.462 457.513C438.619 452.856 439.08 448.058 440.793 443.647C441.954 440.791 443.721 438.056 446.334 437.597C451.586 436.653 465.694 472.008 468.283 479.558C468.428 480.01 468.703 480.409 469.073 480.706C469.443 481.003 469.892 481.184 470.364 481.228L499.621 484.423C500.724 486.498 500.959 488.926 500.275 491.174L466.783 496.474C465.467 496.699 464.116 496.597 462.849 496.174C461.583 495.752 460.44 495.024 459.523 494.054C453.812 487.835 442.172 473.63 439.462 457.513Z" fill="#41378C"/>
    <path d="M590.732 508.622H142.123C141.481 508.622 140.866 508.367 140.412 507.913C139.958 507.459 139.703 506.844 139.703 506.202C139.703 505.56 139.958 504.945 140.412 504.491C140.866 504.037 141.481 503.782 142.123 503.782H590.732C591.373 503.782 591.989 504.037 592.443 504.491C592.897 504.945 593.152 505.56 593.152 506.202C593.152 506.844 592.897 507.459 592.443 507.913C591.989 508.367 591.373 508.622 590.732 508.622Z" fill="#D2F0FF"/>
    <path d="M196.935 498.555C196.895 497.658 196.537 496.806 195.925 496.149C195.313 495.493 194.487 495.076 193.596 494.973C188.55 494.712 183.61 493.427 179.076 491.198C172.373 487.302 170.558 488.512 165.573 493.618C160.588 498.724 153.279 499.039 148.923 499.596C144.568 500.152 142.801 503.613 149.698 503.758C155.941 503.903 177.576 500.394 192.676 502.548C193.222 502.623 193.778 502.577 194.304 502.413C194.83 502.249 195.314 501.972 195.72 501.6C196.127 501.228 196.447 500.771 196.657 500.261C196.866 499.752 196.962 499.202 196.935 498.652V498.555Z" fill="#FAB9AF"/>
    <path d="M248.794 404.734C249.14 404.183 249.323 403.545 249.323 402.895C249.323 402.244 249.14 401.607 248.794 401.056C245.885 396.508 243.949 391.408 243.107 386.076C242.478 378.356 240.445 377.534 233.428 376.396C226.41 375.259 223.022 370.855 220.07 367.588C217.117 364.321 213.294 364.853 217.093 370.613C220.433 375.646 235.243 390.892 242.696 404.613C242.986 405.141 243.408 405.585 243.921 405.901C244.434 406.217 245.021 406.395 245.623 406.417C246.225 406.439 246.823 406.304 247.357 406.026C247.892 405.748 248.345 405.336 248.673 404.831L248.794 404.734Z" fill="#FAB9AF"/>
    <path d="M467.048 414.583C461.724 429.393 448.173 428.28 439.897 425.279C431.62 422.279 436.606 410.276 438.904 403.911C441.203 397.547 449.455 394.619 457.732 397.595C466.008 400.572 469.468 408.219 467.048 414.583Z" fill="#827DDC"/>
    <path d="M240.228 401.249C240.945 399.938 242.031 398.865 243.351 398.164C244.671 397.463 246.168 397.164 247.657 397.305C247.657 397.305 282.141 448.946 289.667 455.601C297.193 462.256 366.427 458.578 366.427 458.578L367.589 496.281C367.589 496.281 293.95 497.708 275.171 478.083C256.393 458.457 240.228 401.249 240.228 401.249Z" fill="#827DDC"/>
    <path d="M366.427 458.578C366.427 458.578 350.48 459.425 333.056 459.57C331.943 460.126 305.904 472.879 291.917 473.412C271.227 474.21 264.741 463.151 264.741 463.151C267.628 468.533 271.154 473.547 275.244 478.082C294.022 497.708 367.661 496.28 367.661 496.28L366.427 458.578Z" fill="#6E64C3"/>
    <path d="M396.071 498.918L390.457 463.248C390.457 463.248 378.793 449.333 348.858 458.142C318.924 466.95 299.806 477.719 285.166 479.292C270.525 480.865 191.102 493.812 191.102 493.812C190.358 495.252 189.969 496.849 189.969 498.47C189.969 500.091 190.358 501.689 191.102 503.129L350.819 504.024C350.819 504.024 380.802 504.145 396.071 498.918Z" fill="#827DDC"/>
    <path d="M445.68 436.314L445.269 436.096C440.969 433.845 436.112 432.876 431.277 433.305C426.443 433.734 421.833 435.543 417.996 438.516L416.689 439.605L405.291 449.914C403.437 451.608 401.165 452.778 398.709 453.302C396.941 453.671 395.243 454.316 393.676 455.214H393.531C388.691 457.852 386.271 452.649 384.117 455.214C381.963 457.779 367.613 453.641 367.613 453.641C367.613 453.641 353.819 453.641 360.861 472.783C367.903 491.924 381.116 503.661 390.336 503.661C395.442 503.661 404.227 499.596 411.075 495.966C411.811 495.57 412.515 495.117 413.18 494.611C415.464 492.824 418.011 491.403 420.731 490.4L422.836 489.674C426.484 488.418 430.456 488.478 434.065 489.843C438.904 491.658 446.164 492.263 448.875 482.777L451.875 446.793C451.972 443.622 448.681 437.282 445.68 436.314Z" fill="#5046AF"/>
    <path d="M436.654 438.347C433.968 439.315 430.12 443.985 427.119 448.027C424.536 451.675 422.407 455.624 420.779 459.787C415.431 473.024 406.26 485.173 393.797 492.142C388.554 495.183 382.626 496.847 376.567 496.982C381.407 501.217 386.247 503.516 390.336 503.516C395.442 503.516 404.227 499.45 411.075 495.82C411.812 495.425 412.516 494.972 413.181 494.465C415.464 492.679 418.011 491.258 420.731 490.254L422.836 489.528C426.484 488.273 430.456 488.333 434.065 489.698C438.905 491.513 446.164 492.118 448.875 482.632L451.875 446.647C451.572 443.605 450.367 440.723 448.415 438.371C446.575 437.509 444.569 437.059 442.537 437.055C440.505 437.051 438.497 437.492 436.654 438.347Z" fill="#41378C"/>
    <path d="M457.732 402.048C449.988 399.12 445.027 403.548 441.034 413.688C439.834 417.281 439.575 421.122 440.284 424.844C440.463 425.92 440.423 427.022 440.165 428.083C439.907 429.143 439.437 430.14 438.783 431.014L434.911 436.12C431.741 440.96 433.169 444.905 436.509 447.373C437.379 447.982 438.365 448.405 439.406 448.617C440.446 448.829 441.519 448.826 442.559 448.607C444.978 448.099 446.116 445.486 446.624 443.09L446.793 441.275C446.841 440.693 447.006 440.127 447.277 439.61C447.549 439.093 447.921 438.635 448.373 438.265C448.824 437.895 449.345 437.619 449.906 437.455C450.466 437.29 451.053 437.239 451.633 437.306C453.521 437.572 455.166 438.565 456.764 438.177C458.361 437.79 464.895 429.659 467.169 419.374C469.444 409.09 465.475 405.048 457.732 402.048Z" fill="#FAB9AF"/>
    <path d="M460.176 429.248C460.12 429.525 460.003 429.786 459.833 430.012C459.663 430.238 459.445 430.422 459.194 430.552C458.943 430.682 458.666 430.755 458.384 430.763C458.102 430.772 457.821 430.717 457.562 430.603C457.112 430.411 456.754 430.05 456.565 429.599C456.375 429.147 456.368 428.64 456.546 428.183L459.765 420.802C459.825 420.666 459.912 420.542 460.02 420.439C460.128 420.336 460.255 420.255 460.394 420.201C460.534 420.147 460.682 420.121 460.832 420.125C460.981 420.128 461.128 420.161 461.265 420.222C461.456 420.306 461.612 420.452 461.709 420.637C461.806 420.821 461.837 421.033 461.797 421.238L460.176 429.248Z" fill="#FA968C"/>
    <path d="M475.809 404.686C474.323 403.659 472.527 403.18 470.727 403.331C466.614 403.816 462.444 403.403 458.506 402.121L457.974 401.927C453.651 400.373 448.91 400.45 444.64 402.145C443.897 402.442 443.223 402.89 442.661 403.461C442.099 404.031 441.662 404.712 441.375 405.459C441.089 406.207 440.96 407.006 440.997 407.805C441.035 408.605 441.236 409.388 441.591 410.106L444.349 415.648C444.422 415.826 444.547 415.977 444.706 416.084C444.865 416.191 445.053 416.248 445.245 416.248C445.437 416.248 445.624 416.191 445.784 416.084C445.943 415.977 446.067 415.826 446.14 415.648L447.011 413.228C447.225 412.639 447.643 412.147 448.19 411.84C448.736 411.534 449.374 411.434 449.988 411.558L451.246 411.8C452.709 412.053 454.208 412.004 455.651 411.655C457.659 411.202 459.763 411.458 461.604 412.381C462.959 413.088 464.097 414.15 464.895 415.454C465.807 416.866 467.16 417.938 468.742 418.504C469.853 418.903 471.041 419.044 472.214 418.916C473.388 418.788 474.517 418.394 475.515 417.764C476.514 417.134 477.356 416.285 477.977 415.281C478.598 414.277 478.982 413.144 479.1 411.97C479.271 410.571 479.055 409.151 478.474 407.867C477.894 406.582 476.972 405.482 475.809 404.686Z" fill="#827DDC"/>
    <path d="M444.059 416.689C443.164 419.109 442.002 422.012 439.921 421.214C437.84 420.415 437.501 415.333 438.275 412.986C439.05 410.639 440.695 410.566 442.801 411.341C444.906 412.115 444.954 414.341 444.059 416.689Z" fill="#FAB9AF"/>
    <path d="M584.319 453.012C583.514 452.904 582.697 453.09 582.018 453.534C581.338 453.978 580.841 454.651 580.616 455.432L565.54 498.458C565.45 498.707 565.286 498.922 565.069 499.073C564.852 499.225 564.594 499.306 564.33 499.305H526.337C525.149 499.305 524.011 499.777 523.171 500.616C522.332 501.456 521.86 502.595 521.86 503.782H568.492C569.111 503.78 569.714 503.586 570.217 503.226C570.72 502.866 571.098 502.358 571.299 501.773L586.859 457.416C587.035 456.961 587.107 456.473 587.069 455.986C587.031 455.5 586.885 455.029 586.642 454.606C586.398 454.184 586.063 453.822 585.661 453.546C585.259 453.27 584.8 453.087 584.319 453.012Z" fill="#46738C"/>
    <path d="M561.958 501.459C561.958 501.554 561.94 501.649 561.903 501.737C561.867 501.825 561.813 501.905 561.746 501.972C561.678 502.04 561.598 502.093 561.51 502.13C561.422 502.166 561.328 502.185 561.232 502.185H556.78C556.587 502.185 556.403 502.108 556.266 501.972C556.13 501.836 556.054 501.651 556.054 501.459C556.054 501.266 556.13 501.082 556.266 500.946C556.403 500.809 556.587 500.733 556.78 500.733H561.232C561.425 500.733 561.61 500.809 561.746 500.946C561.882 501.082 561.958 501.266 561.958 501.459Z" fill="#3C5A73"/>
    <path d="M552.013 502.548C552.614 502.548 553.102 502.06 553.102 501.459C553.102 500.858 552.614 500.37 552.013 500.37C551.411 500.37 550.924 500.858 550.924 501.459C550.924 502.06 551.411 502.548 552.013 502.548Z" fill="#3C5A73"/>
    <path d="M548.48 502.548C549.081 502.548 549.569 502.06 549.569 501.459C549.569 500.858 549.081 500.37 548.48 500.37C547.878 500.37 547.391 500.858 547.391 501.459C547.391 502.06 547.878 502.548 548.48 502.548Z" fill="#3C5A73"/>
    <path d="M563.169 499.184H527.354C527.354 498.85 527.486 498.53 527.722 498.294C527.958 498.058 528.278 497.926 528.612 497.926H561.91C562.244 497.926 562.564 498.058 562.8 498.294C563.036 498.53 563.169 498.85 563.169 499.184Z" fill="#3C5A73"/>
    <path d="M525.127 495.094C524.014 495.627 522.707 496.159 521.521 496.861C519.73 497.905 517.657 498.362 515.593 498.168C513.753 497.998 511.479 497.926 508.817 497.901C508.097 497.898 507.402 498.165 506.869 498.649C506.336 499.132 506.004 499.798 505.937 500.515C505.907 500.903 505.957 501.293 506.082 501.662C506.207 502.03 506.406 502.369 506.666 502.659C506.926 502.948 507.242 503.182 507.595 503.346C507.948 503.51 508.331 503.601 508.72 503.613C511.14 503.613 513.221 503.467 514.721 503.467H516.609C517.586 503.368 518.572 503.409 519.537 503.588C520.622 503.578 521.68 503.255 522.586 502.659C523.491 502.062 524.206 501.217 524.643 500.225C525.418 498.627 525.514 499.063 527.378 498.313C529.241 497.563 534.638 498.652 534.638 497.393C534.638 496.135 527.547 493.884 525.127 495.094Z" fill="#FAB9AF"/>
    <path d="M424.457 439.678C426.418 436.217 432.588 432.2 440.308 441.445C450.52 453.689 468.379 488.295 473.679 488.875C478.979 489.456 513.729 497.394 513.729 497.394C514.164 498.377 514.388 499.44 514.388 500.515C514.388 501.59 514.164 502.654 513.729 503.637H465.814C457.223 503.661 415.431 455.601 424.457 439.678Z" fill="#5046AF"/>
    <defs>
        <linearGradient id="paint0_linear" x1="398.782" y1="221.714" x2="283.786" y2="335.524" gradientUnits="userSpaceOnUse">
            <stop stop-color="white"/>
            <stop offset="1" stop-color="white" stop-opacity="0"/>
        </linearGradient>
        <linearGradient id="paint1_linear" x1="40760.8" y1="23451.4" x2="32874.8" y2="33531.8" gradientUnits="userSpaceOnUse">
            <stop stop-color="white"/>
            <stop offset="1" stop-color="white" stop-opacity="0"/>
        </linearGradient>
    </defs>
</svg>
