<svg width="670" height="555" viewBox="0 0 670 555" fill="none" xmlns="http://www.w3.org/2000/svg">
    <path d="M508.859 544.095H468.145L468.145 102.121H508.859C515.112 102.121 521.108 104.606 525.53 109.029C529.951 113.452 532.435 119.451 532.435 125.706V520.511C532.435 526.766 529.951 532.765 525.53 537.188C521.108 541.61 515.112 544.095 508.859 544.095Z" fill="#8888EA"/>
    <path d="M489.947 102.122H256.304C243.283 102.122 232.728 112.681 232.728 125.706V520.483C232.728 533.508 243.283 544.067 256.304 544.067H489.947C502.967 544.067 513.523 533.508 513.523 520.483V125.706C513.523 112.681 502.967 102.122 489.947 102.122Z" fill="#B0B0FF"/>
    <path d="M494.925 137.641H251.325V480.04H494.925V137.641Z" fill="#E1E4FF"/>
    <path d="M398.017 115.688H324.686C321.446 115.688 318.82 118.315 318.82 121.556V121.985C318.82 125.225 321.446 127.852 324.686 127.852H398.017C401.257 127.852 403.883 125.225 403.883 121.985V121.556C403.883 118.315 401.257 115.688 398.017 115.688Z" fill="white"/>
    <path d="M373.125 533.706C385.688 533.706 395.872 523.518 395.872 510.951C395.872 498.385 385.688 488.197 373.125 488.197C360.563 488.197 350.379 498.385 350.379 510.951C350.379 523.518 360.563 533.706 373.125 533.706Z" fill="white"/>
    <path d="M349.063 286.587C351.18 281.178 355.443 265.35 353.354 261.715C353.354 261.715 334.099 264.034 326.088 278.602C317.218 294.716 306.86 406.168 306.86 406.168L270.838 493.893C271.438 499.994 274.345 505.635 278.964 509.664L337.389 425.402C337.389 425.402 342.539 303.388 349.063 286.587Z" fill="#FAB9AF"/>
    <path d="M342.368 340.024C344.256 315.266 347.661 307.252 349.263 295.603C350.064 289.879 355.529 265.35 353.44 261.687C353.44 261.687 334.185 264.005 326.173 278.573C322.511 285.242 317.59 308.283 312.926 332.954C321.78 338.283 332.061 340.752 342.368 340.024Z" fill="#B0B0FF"/>
    <path d="M313.527 441.001L325.401 396.752C327.003 390.827 331.609 383.099 332.096 376.974L337.074 275.568C337.56 272.158 339.144 269 341.586 266.572C344.028 264.144 347.196 262.58 350.608 262.116L406.801 254.388L442.194 439.713L313.527 441.001Z" fill="#FAB9AF"/>
    <path d="M409.376 442.718L333.984 436.393L341.59 553.33H359.164H391.565C391.565 553.33 391.565 553.33 392.981 547.959C398.303 518.994 409.376 442.718 409.376 442.718Z" fill="#5046AF"/>
    <path d="M380.033 552.233H377.287L373.526 548.045C350.951 480.727 373.898 444.55 373.898 444.55L402.681 442.746C402.681 442.746 391.58 519.023 386.315 547.988L382.779 552.233H380.033Z" fill="#41378C"/>
    <path d="M373.755 443.634C368.287 472.99 367.73 512.573 373.755 553.878H432.19C438.256 514.764 444.306 467.513 442.222 443.462C439.934 417.044 377.846 421.71 373.755 443.634Z" fill="#5046AF"/>
    <path d="M328.119 446.839C325.486 445.551 330.236 379.378 331.152 365.01L336.874 275.311C337.413 271.969 339.01 268.888 341.431 266.523C343.852 264.158 346.969 262.633 350.321 262.173L411.436 253.873L443.481 436.822C443.647 437.636 443.65 438.475 443.489 439.291C443.328 440.106 443.006 440.881 442.543 441.571C442.08 442.261 441.484 442.851 440.79 443.309C440.097 443.766 439.319 444.081 438.503 444.235C412.967 449.01 387.056 451.49 361.079 451.648C335.443 451.648 334.757 449.959 328.119 446.839Z" fill="#B0B0FF"/>
    <path d="M427.859 278.287C429.635 279.87 431.042 281.824 431.979 284.012C438.131 298.179 466.313 365.812 458.674 400.301C452.952 426.747 429.347 481.872 429.347 481.872C427.531 481.782 425.724 481.562 423.939 481.214C422.168 480.783 420.443 480.179 418.789 479.411C418.789 479.411 435.127 405.939 433.553 391.857C431.979 377.776 402.767 305.993 404.941 291.94C406.944 279.403 418.103 269.815 427.859 278.287Z" fill="#FAB9AF"/>
    <path d="M448.317 319.645C442.497 300.609 435.629 281.91 427.745 263.633C426.703 261.108 425.11 258.849 423.081 257.021C412.094 247.49 397.159 257.823 394.956 272.134C393.64 280.72 404.855 308.311 413.668 334.185C428.231 333.441 438.531 326.801 448.317 319.645Z" fill="#B0B0FF"/>
    <path d="M399.991 187.156C399.382 193.472 401.124 199.791 404.884 204.902C411.064 212.4 402.023 219.384 399.991 224.507C397.96 229.631 400.478 237.187 394.641 240.65C388.804 244.113 372.066 245.029 369.406 238.933C366.745 232.836 381.108 183.664 399.991 187.156Z" fill="#4D4CAD"/>
    <path d="M332.639 200.666C331.724 234.21 362.939 240.736 381.108 240.736C399.276 240.736 399.991 200.351 399.991 186.04C399.991 171.729 385.686 169.268 367.574 169.268C353.268 169.268 339.764 180.344 334.184 190.992C332.978 194.067 332.451 197.367 332.639 200.666Z" fill="#4D4CAD"/>
    <path d="M366.716 182.119C381.909 182.119 387.574 192.938 387.86 212.944C387.582 219.903 385.523 226.673 381.88 232.607C380.889 234.323 380.252 236.22 380.006 238.187C379.76 240.153 379.911 242.149 380.45 244.056L383.797 255.333C386.058 265.808 381.079 271.561 373.755 273.622C371.868 274.091 369.905 274.171 367.987 273.856C366.068 273.541 364.234 272.838 362.596 271.79C358.819 269.357 358.504 264.091 359.22 259.655L360.078 256.449C360.371 255.419 360.455 254.341 360.325 253.278C360.195 252.215 359.853 251.189 359.319 250.26C358.786 249.332 358.072 248.52 357.219 247.872C356.367 247.224 355.393 246.754 354.356 246.489C342.654 243.941 340.994 231.749 337.847 212.801C334.557 193.224 351.523 182.119 366.716 182.119Z" fill="#FAB9AF"/>
    <path d="M331.352 173.361L339.936 176.022C343.137 176.978 346.548 176.978 349.749 176.022L367.145 170.985C377.674 170.985 395.07 176.938 392.896 192.136L390.95 202.898C390.573 204.967 389.53 206.855 387.98 208.276C386.431 209.697 384.46 210.572 382.367 210.769C382.154 211.569 381.657 212.264 380.969 212.724C380.281 213.185 379.45 213.379 378.629 213.27C377.809 213.161 377.056 212.757 376.512 212.134C375.967 211.51 375.669 210.71 375.672 209.882C375.661 207.533 374.85 205.257 373.372 203.431C371.895 201.605 369.84 200.337 367.546 199.836C361.479 198.314 355.13 198.314 349.063 199.836C336.989 203.07 324.228 195.6 323.026 183.121C323.026 182.338 323.026 181.537 323.026 180.716C322.971 179.65 323.157 178.584 323.571 177.6C323.984 176.615 324.615 175.736 325.415 175.029C326.216 174.322 327.165 173.805 328.193 173.516C329.221 173.227 330.301 173.174 331.352 173.361Z" fill="#4D4CAD"/>
    <path d="M379.477 213.316C379.477 217.953 381.193 221.702 385.657 221.702C390.12 221.702 392.982 215.32 392.982 210.683C392.982 206.046 390.12 204.959 385.657 204.959C381.193 204.959 379.477 208.68 379.477 213.316Z" fill="#FAB9AF"/>
    <path d="M342.31 227.169C342.199 227.678 342.203 228.206 342.323 228.713C342.442 229.221 342.674 229.695 343 230.101C343.327 230.508 343.74 230.836 344.21 231.061C344.68 231.287 345.194 231.404 345.715 231.405C346.582 231.371 347.405 231.015 348.024 230.406C348.643 229.798 349.013 228.98 349.063 228.114V213.316C349.063 212.762 348.842 212.231 348.451 211.839C348.059 211.447 347.528 211.227 346.974 211.227C346.592 211.225 346.221 211.355 345.924 211.595C345.627 211.835 345.422 212.17 345.343 212.544L342.31 227.169Z" fill="#FA968C"/>
    <path d="M431.207 88.2115C455.557 88.2115 475.297 68.4647 475.297 44.1058C475.297 19.7468 455.557 0 431.207 0C406.856 0 387.116 19.7468 387.116 44.1058C387.116 68.4647 406.856 88.2115 431.207 88.2115Z" fill="#4D4CAD"/>
    <path d="M315.044 88.2115C339.394 88.2115 359.134 68.4647 359.134 44.1058C359.134 19.7468 339.394 0 315.044 0C290.693 0 270.953 19.7468 270.953 44.1058C270.953 68.4647 290.693 88.2115 315.044 88.2115Z" fill="#4D4CAD"/>
    <path d="M226.833 171.958C251.184 171.958 270.924 152.211 270.924 127.852C270.924 103.494 251.184 83.7467 226.833 83.7467C202.483 83.7467 182.743 103.494 182.743 127.852C182.743 152.211 202.483 171.958 226.833 171.958Z" fill="#4D4CAD"/>
    <path d="M525.54 165.862C549.89 165.862 569.63 146.115 569.63 121.756C569.63 97.3971 549.89 77.6503 525.54 77.6503C501.189 77.6503 481.449 97.3971 481.449 121.756C481.449 146.115 501.189 165.862 525.54 165.862Z" fill="#4D4CAD"/>
    <path d="M229.351 115.688H208.122C205.261 115.688 202.943 118.008 202.943 120.869V134.807C202.943 137.669 205.261 139.988 208.122 139.988H229.351C232.212 139.988 234.53 137.669 234.53 134.807V120.869C234.53 118.008 232.212 115.688 229.351 115.688Z" fill="white"/>
    <path d="M238.65 124.618V131.087C238.66 131.683 238.834 132.265 239.152 132.77C239.469 133.274 239.919 133.682 240.453 133.949L245.975 136.811C246.469 137.064 247.019 137.187 247.574 137.168C248.129 137.149 248.67 136.989 249.146 136.702C249.622 136.416 250.016 136.012 250.292 135.53C250.569 135.049 250.717 134.504 250.724 133.949V121.928C250.717 121.372 250.569 120.828 250.292 120.346C250.016 119.864 249.622 119.461 249.146 119.174C248.67 118.888 248.129 118.727 247.574 118.708C247.019 118.689 246.469 118.812 245.975 119.066L240.453 121.928C239.944 122.18 239.51 122.561 239.194 123.033C238.878 123.505 238.69 124.051 238.65 124.618Z" fill="white"/>
    <path d="M315.473 11.7634H314.614C307.582 11.7634 301.882 17.4657 301.882 24.4999V42.646C301.882 49.6802 307.582 55.3826 314.614 55.3826H315.473C322.504 55.3826 328.205 49.6802 328.205 42.646V24.4999C328.205 17.4657 322.504 11.7634 315.473 11.7634Z" fill="white"/>
    <path d="M333.355 43.3331C333.355 48.1912 331.426 52.8504 327.992 56.2857C324.558 59.7209 319.9 61.6508 315.043 61.6508C310.187 61.6508 305.529 59.7209 302.095 56.2857C298.661 52.8504 296.732 48.1912 296.732 43.3331" stroke="white" stroke-width="0.96" stroke-miterlimit="10" stroke-linecap="round"/>
    <path d="M315.043 61.6508V72.5556" stroke="white" stroke-width="1.93" stroke-miterlimit="10"/>
    <path d="M307.69 72.5555H322.396" stroke="white" stroke-width="0.96" stroke-miterlimit="10" stroke-linecap="round"/>
    <path d="M520.447 115.803L523.766 112.483C524.414 111.833 524.778 110.953 524.778 110.036C524.778 109.118 524.414 108.238 523.766 107.588L516.756 100.576C516.107 99.9277 515.227 99.5635 514.31 99.5635C513.392 99.5635 512.512 99.9277 511.863 100.576C510.385 102.055 509.279 103.865 508.638 105.855C507.996 107.846 507.836 109.96 508.172 112.025C509.228 118.85 512.428 125.162 517.31 130.046C522.192 134.929 528.502 138.131 535.325 139.187C537.388 139.523 539.502 139.363 541.492 138.721C543.482 138.079 545.291 136.973 546.769 135.494C547.418 134.845 547.782 133.965 547.782 133.047C547.782 132.13 547.418 131.249 546.769 130.6L539.76 123.588C539.11 122.939 538.231 122.575 537.313 122.575C536.396 122.575 535.516 122.939 534.867 123.588L531.548 126.908C526.655 124.631 522.723 120.698 520.447 115.803Z" fill="white"/>
    <path d="M437.759 50.6602C433.394 49.4045 428.763 49.4045 424.397 50.6602C422.484 51.224 420.805 52.3939 419.614 53.9938C418.422 55.5938 417.781 57.5375 417.788 59.5328V61.5077C417.788 62.0467 418.002 62.5635 418.383 62.9446C418.764 63.3257 419.281 63.5398 419.82 63.5398H442.308C442.847 63.5398 443.364 63.3257 443.745 62.9446C444.126 62.5635 444.34 62.0467 444.34 61.5077V59.5328C444.349 57.5412 443.712 55.6003 442.526 54.0007C441.339 52.4012 439.667 51.2292 437.759 50.6602Z" fill="white"/>
    <path d="M431.207 29.2512C429.626 29.2456 428.078 29.7098 426.761 30.5851C425.444 31.4603 424.416 32.7072 423.809 34.1675C423.201 35.6278 423.04 37.2358 423.348 38.7874C423.655 40.3391 424.416 41.7646 425.534 42.8831C426.652 44.0016 428.077 44.7627 429.628 45.0699C431.179 45.3771 432.786 45.2166 434.246 44.6086C435.706 44.0007 436.952 42.9728 437.827 41.6552C438.702 40.3376 439.167 38.7898 439.161 37.208C439.139 35.1047 438.293 33.0938 436.806 31.6064C435.32 30.119 433.309 29.2735 431.207 29.2512Z" fill="white"/>
    <path d="M439.161 37.2081C439.161 35.6288 438.693 34.0849 437.816 32.7717C436.938 31.4585 435.692 30.435 434.233 29.8306C432.774 29.2262 431.169 29.068 429.621 29.3762C428.072 29.6843 426.65 30.4448 425.534 31.5616C424.417 32.6784 423.657 34.1012 423.349 35.6503C423.041 37.1993 423.199 38.8049 423.803 40.264C424.407 41.7232 425.431 42.9703 426.743 43.8478C428.056 44.7252 429.599 45.1935 431.178 45.1935C433.291 45.1785 435.312 44.3324 436.806 42.8381C438.3 41.3438 439.146 39.3214 439.161 37.2081Z" fill="white"/>
    <path d="M442.709 37.2079C442.709 37.4942 442.709 37.7518 442.709 38.038C443.316 38.1989 443.94 38.2854 444.568 38.2956C446.022 38.3043 447.451 37.9158 448.7 37.1718C449.949 36.4279 450.972 35.3567 451.657 34.0741C452.342 32.7914 452.664 31.3459 452.588 29.8935C452.512 28.4411 452.041 27.0371 451.226 25.8329C450.411 24.6286 449.283 23.67 447.963 23.0603C446.643 22.4507 445.181 22.2132 443.736 22.3736C442.291 22.5339 440.918 23.086 439.763 23.9702C438.609 24.8543 437.718 26.0371 437.187 27.3908C438.875 28.4122 440.27 29.8528 441.238 31.573C442.206 33.2931 442.712 35.2342 442.709 37.2079Z" fill="white"/>
    <path d="M425.313 27.3909C424.777 26.0482 423.886 24.8768 422.736 24.0025C421.585 23.1281 420.218 22.584 418.781 22.4284C417.344 22.2728 415.892 22.5117 414.581 23.1193C413.27 23.727 412.149 24.6806 411.339 25.8775C410.528 27.0745 410.059 28.4697 409.982 29.9132C409.905 31.3567 410.222 32.794 410.9 34.0707C411.578 35.3475 412.59 36.4154 413.829 37.1597C415.068 37.9041 416.486 38.2968 417.931 38.2957C418.559 38.2855 419.183 38.199 419.791 38.0381C419.791 37.7519 419.791 37.4943 419.791 37.2081C419.787 35.2344 420.294 33.2932 421.261 31.5731C422.229 29.853 423.624 28.4123 425.313 27.3909Z" fill="white"/>
    <path d="M439.161 37.2081C439.161 35.6288 438.693 34.0849 437.816 32.7717C436.938 31.4585 435.692 30.435 434.233 29.8306C432.774 29.2262 431.169 29.068 429.621 29.3762C428.072 29.6843 426.65 30.4448 425.534 31.5616C424.417 32.6784 423.657 34.1012 423.349 35.6503C423.041 37.1993 423.199 38.8049 423.803 40.264C424.407 41.7232 425.431 42.9703 426.743 43.8478C428.056 44.7252 429.599 45.1935 431.178 45.1935C433.291 45.1785 435.312 44.3324 436.806 42.8381C438.3 41.3438 439.146 39.3214 439.161 37.2081Z" fill="white"/>
    <path d="M450.834 43.6765C447.634 42.8263 444.292 42.6509 441.021 43.1613C440.116 44.6664 438.884 45.948 437.416 46.9108L438.875 47.2828C441.038 47.9224 442.991 49.1265 444.535 50.7713C446.079 52.4162 447.157 54.4425 447.659 56.6421H455.756C456.294 56.6421 456.811 56.428 457.192 56.0469C457.573 55.6658 457.787 55.1489 457.787 54.6099V52.6637C457.774 50.6101 457.087 48.6178 455.83 46.9937C454.574 45.3696 452.818 44.204 450.834 43.6765Z" fill="white"/>
    <path d="M423.453 47.2542L424.912 46.8821C423.444 45.9194 422.212 44.6378 421.307 43.1327C418.036 42.6223 414.694 42.7977 411.493 43.6479C409.515 44.1807 407.766 45.3486 406.515 46.9722C405.264 48.5958 404.58 50.5853 404.569 52.6351V54.5527C404.569 55.0917 404.783 55.6085 405.164 55.9896C405.545 56.3707 406.062 56.5848 406.601 56.5848H414.87C415.358 54.4139 416.408 52.4095 417.915 50.7721C419.421 49.1346 421.331 47.9215 423.453 47.2542Z" fill="white"/>
    <path d="M437.759 50.6602C433.394 49.4045 428.763 49.4045 424.397 50.6602C422.484 51.224 420.805 52.3939 419.614 53.9938C418.422 55.5938 417.781 57.5375 417.788 59.5328V61.5077C417.788 62.0467 418.002 62.5635 418.383 62.9446C418.764 63.3257 419.281 63.5398 419.82 63.5398H442.308C442.847 63.5398 443.364 63.3257 443.745 62.9446C444.126 62.5635 444.34 62.0467 444.34 61.5077V59.5328C444.349 57.5412 443.712 55.6003 442.526 54.0007C441.339 52.4012 439.667 51.2292 437.759 50.6602Z" fill="white"/>
    <path d="M600.846 323.795C598.47 316.438 596.671 308.907 595.467 301.27C595.227 299.826 594.572 298.482 593.581 297.404C592.59 296.327 591.306 295.561 589.887 295.203L584.451 293.771L589.143 291.682C590.544 291.07 591.725 290.047 592.532 288.749C593.339 287.451 593.734 285.939 593.664 284.412C593.278 277.739 593.278 271.05 593.664 264.377C593.664 263.538 593.664 262.688 593.664 261.83C593.695 260.666 593.264 259.536 592.465 258.689C591.666 257.842 590.565 257.345 589.401 257.308H579.101L591.547 244.857C592.023 244.384 592.385 243.808 592.603 243.172C592.822 242.537 592.891 241.86 592.806 241.194C589.401 215.234 577.956 196.086 564.223 196.086C547.857 196.086 534.61 223.363 534.61 257.021C534.61 259.54 534.686 262.03 534.838 264.492C536.125 284.694 533.641 304.96 527.514 324.253C524.848 332.653 522.933 341.274 521.791 350.013C521.547 351.929 521.791 353.877 522.502 355.673C523.212 357.47 524.365 359.057 525.854 360.288L536.698 369.161L526.999 373.74C524.971 374.71 523.274 376.256 522.119 378.186C520.964 380.115 520.402 382.341 520.504 384.588C523.05 429.581 541.619 464.528 564.165 464.528C588.457 464.528 608.142 424.028 608.142 374.055C608.325 357.025 605.863 340.07 600.846 323.795Z" fill="url(#paint0_linear)"/>
    <path d="M565.396 234.382C562.239 246.412 560.095 258.686 558.987 271.075C558.419 277.201 558.266 283.36 558.529 289.507C558.916 295.603 559.874 301.65 561.39 307.567C564.251 319.502 568.629 331.208 571.376 343.659C574.088 356.172 574.621 369.06 572.949 381.754C569.487 406.512 566.111 431.069 563.937 455.855C562.878 468.22 562.077 480.641 561.934 493.063C561.574 505.512 562.36 517.967 564.28 530.271C561.256 518.085 559.529 505.613 559.13 493.063C558.615 480.556 558.787 468.019 559.473 455.512C560.16 443.004 561.276 430.554 562.592 418.132C563.908 405.71 565.682 393.289 567.284 380.924C568.941 368.855 568.535 356.593 566.083 344.661C563.765 332.668 559.53 320.847 557.07 308.426C555.708 302.208 554.97 295.871 554.867 289.507C554.901 283.194 555.379 276.891 556.297 270.645C558.146 258.291 561.193 246.146 565.396 234.382Z" fill="#6E64C3"/>
    <path d="M591.089 502.623H528.773C528.362 502.626 527.964 502.48 527.653 502.212C527.342 501.943 527.14 501.57 527.085 501.163L525.196 487.482C525.163 487.242 525.183 486.997 525.253 486.765C525.323 486.533 525.442 486.319 525.602 486.137C525.762 485.955 525.959 485.81 526.181 485.711C526.402 485.612 526.642 485.562 526.884 485.564H592.977C593.22 485.562 593.46 485.612 593.681 485.711C593.902 485.81 594.1 485.955 594.26 486.137C594.42 486.319 594.539 486.533 594.609 486.765C594.679 486.997 594.698 487.242 594.665 487.482L592.777 501.163C592.721 501.57 592.519 501.943 592.209 502.212C591.898 502.48 591.5 502.626 591.089 502.623Z" fill="#B0B0FF"/>
    <path d="M530.232 487.539L532.092 501.106C532.153 501.518 532.36 501.895 532.675 502.168C532.99 502.441 533.392 502.592 533.808 502.594H554.638C554.867 502.594 555.094 502.549 555.305 502.461C555.517 502.373 555.71 502.245 555.872 502.083C556.034 501.921 556.162 501.728 556.25 501.516C556.338 501.304 556.383 501.077 556.383 500.848V487.282C556.383 487.052 556.338 486.825 556.25 486.613C556.162 486.402 556.034 486.209 555.872 486.047C555.71 485.885 555.517 485.756 555.305 485.669C555.094 485.581 554.867 485.536 554.638 485.536H531.92C531.672 485.541 531.428 485.599 531.205 485.706C530.981 485.813 530.783 485.966 530.623 486.156C530.464 486.345 530.346 486.567 530.279 486.805C530.211 487.044 530.195 487.294 530.232 487.539Z" fill="#CCCCFF"/>
    <path d="M546.941 485.564H540.875C539.88 485.564 539.073 486.372 539.073 487.368V500.82C539.073 501.815 539.88 502.623 540.875 502.623H546.941C547.936 502.623 548.743 501.815 548.743 500.82V487.368C548.743 486.372 547.936 485.564 546.941 485.564Z" fill="white"/>
    <path d="M582.248 544.095H537.614C536.593 544.094 535.609 543.717 534.849 543.036C534.089 542.355 533.606 541.418 533.494 540.403L529.202 502.623H590.66L586.368 540.403C586.255 541.418 585.773 542.355 585.013 543.036C584.253 543.717 583.268 544.094 582.248 544.095Z" fill="#8888EA"/>
    <path d="M529.316 502.623L529.574 504.97H572.148C573.007 504.968 573.857 505.148 574.642 505.499C575.426 505.849 576.128 506.361 576.701 507.002C577.273 507.642 577.704 508.396 577.965 509.215C578.226 510.034 578.311 510.899 578.214 511.753L574.551 544.067H582.334C583.354 544.066 584.339 543.689 585.099 543.008C585.859 542.327 586.341 541.389 586.454 540.374L590.746 502.594L529.316 502.623Z" fill="#6A6ACC"/>
    <path d="M670 544.095H0V555H670V544.095Z" fill="#D2F0FF"/>
    <path d="M47.6671 367.901C47.009 365.039 46.6657 362.177 46.2651 361.06C45.9301 360.404 45.5476 359.772 45.1206 359.171C44.2736 358.142 43.685 356.925 43.4039 355.622V350.785C43.4039 348.438 42.2881 346.664 39.9419 346.664C37.4241 346.664 36.251 348.81 36.5657 351.329V354.907C36.6235 356.915 36.263 358.913 35.5071 360.774C34.6303 364.863 34.9583 369.118 36.4513 373.024C37.1666 375.314 40.1136 376.716 44.0906 378.376C46.0648 379.178 49.3266 379.865 48.0676 377.518C46.8087 375.171 41.0578 372.509 42.9175 366.355C42.9175 366.041 43.2895 365.268 43.6614 365.268C44.8345 365.268 45.0348 367.815 45.607 369.074C46.3795 370.849 47.6385 371.565 48.4682 371.364C49.2979 371.164 48.1249 369.933 47.6671 367.901Z" fill="#FAB9AF"/>
    <path d="M124.003 166.005H118.281V156.073C118.281 153.399 117.221 150.833 115.333 148.939C113.445 147.045 110.883 145.977 108.209 145.97H106.149V140.245H108.209C112.396 140.253 116.409 141.92 119.369 144.881C122.329 147.843 123.996 151.857 124.003 156.045V166.005Z" fill="#1935D8"/>
    <path d="M85.4344 154.385C86.2446 153.206 86.7609 151.85 86.9401 150.431C87.1193 149.012 86.9562 147.571 86.4644 146.227C83.8035 139.788 74.2186 139.358 67.3518 143.365C62.3623 146.234 56.682 147.679 50.9287 147.544C43.9474 147.401 36.3939 151.236 29.3268 159.937C21.4872 169.611 16.2799 182.834 16.8235 192.537C17.2571 197.65 16.391 202.789 14.3057 207.477C12.8615 210.456 11.896 213.643 11.4445 216.923C10.6592 222.125 11.3225 227.443 13.3615 232.292C13.9782 233.662 14.777 234.943 15.7363 236.099C17.812 238.397 19.4161 241.081 20.4572 243.999C21.206 246.11 21.3643 248.386 20.915 250.582C18.9694 258.624 22.2884 259.168 24.6345 259.798C26.9807 260.427 30.3569 253.129 33.6472 250.381C44.2907 241.222 39.0834 228.686 38.3681 221.359C37.7101 214.604 39.7701 206.647 52.302 198.032C56.528 195.16 60.3237 191.7 63.575 187.757C66.6182 184.156 68.8875 179.967 70.2416 175.45C71.2879 172.59 72.6812 169.87 74.3902 167.35C74.6496 166.916 75.0577 166.59 75.5388 166.434C76.0199 166.278 76.5413 166.302 77.0061 166.501C77.471 166.7 77.8478 167.062 78.0665 167.518C78.2853 167.974 78.3312 168.494 78.1956 168.982C76.7364 174.391 83.1168 175.937 85.4344 178.14C87.7519 180.344 88.2955 184.924 92.1009 185.382C95.9062 185.84 105.033 182.319 104.976 178.484C104.804 175.479 94.7618 157.905 85.4344 154.385Z" fill="#827DDC"/>
    <path d="M39.4269 507.631L34.7918 523.058C34.5845 523.74 34.2759 524.386 33.8762 524.976L30.5859 529.87C30.1276 530.592 29.8368 531.408 29.7349 532.257C29.633 533.106 29.7226 533.967 29.997 534.777C30.2714 535.587 30.7238 536.325 31.3208 536.937C31.9179 537.549 32.6444 538.019 33.447 538.314C33.447 538.314 39.1694 540.661 46.122 542.893C53.0746 545.126 61.9443 543.265 61.9443 541.433C61.9443 537.312 58.1103 540.575 51.7013 536.31C49.5554 534.879 48.1534 533.448 46.1506 531.817C40.6286 527.495 45.4639 516.504 48.8401 510.322C49.1199 509.804 49.2751 509.229 49.2933 508.641C49.3115 508.053 49.1922 507.469 48.9449 506.935C48.6976 506.401 48.3291 505.933 47.8688 505.567C47.4086 505.201 46.8692 504.947 46.2937 504.826L44.6914 504.483C43.5806 504.27 42.4301 504.473 41.4592 505.053C40.4883 505.634 39.7649 506.552 39.4269 507.631Z" fill="#FAB9AF"/>
    <path d="M146.778 374.427C147.951 371.565 148.809 368.531 149.382 367.443C149.852 366.805 150.368 366.203 150.927 365.64C151.728 364.696 153.13 363.408 153.33 362.177L154.217 357.082C154.618 354.621 156.105 352.932 158.566 353.304C161.255 353.734 162.085 356.166 161.427 358.828L160.855 362.406C160.413 364.51 160.413 366.684 160.855 368.788C161.098 373.269 160.034 377.724 157.793 381.611C156.649 383.929 150.898 382.527 146.349 381.411C143.316 380.666 140.483 378.548 141.342 377.146C142.715 375.171 152.786 380.409 152.014 373.511C152.014 373.168 151.814 372.309 151.384 372.223C150.154 371.994 149.496 374.684 148.695 375.944C147.579 377.69 146.149 378.234 145.376 377.919C144.603 377.604 145.92 376.488 146.778 374.427Z" fill="#FAB9AF"/>
    <path d="M128.753 209.223C128.753 209.223 169.009 263.375 168.809 293.685C168.809 314.407 160.225 359.515 160.225 359.515C158.854 359.747 157.467 359.881 156.077 359.916C154.68 359.88 153.291 359.708 151.928 359.4C151.928 359.4 152.186 301.757 148.752 291.482C145.319 281.206 111.872 232.149 111.214 221.33C110.556 210.511 122.057 200.494 128.753 209.223Z" fill="#B0B0FF"/>
    <path d="M165.49 375.257H202.857C215.705 375.406 228.195 371.025 238.136 362.881C248.077 354.737 254.833 343.351 257.219 330.722C257.372 329.806 257.505 328.852 257.62 327.86C257.62 295.517 231.383 265.779 199.338 261.715L133.531 253.386C126.196 252.258 118.702 252.758 111.582 254.85C104.461 256.941 97.8874 260.573 92.3263 265.489C86.7652 270.405 82.3527 276.484 79.4015 283.295C76.4503 290.107 75.0326 297.484 75.2488 304.905C75.2488 337.247 101.486 366.985 133.531 371.049L163.544 374.942C164.203 374.942 164.861 375.114 165.49 375.257Z" fill="#6E64C3"/>
    <path d="M256.017 332.697C256.017 300.383 229.781 270.617 197.735 266.552L131.929 258.223C124.593 257.096 117.1 257.595 109.979 259.687C102.859 261.778 96.2851 265.41 90.724 270.326C85.1629 275.242 80.7504 281.321 77.7992 288.133C74.848 294.944 73.4303 302.322 73.6465 309.742C73.6465 342.056 99.8834 371.822 131.929 375.887L162.171 379.693C165.161 380.101 168.022 381.17 170.547 382.824C173.071 384.478 175.195 386.674 176.763 389.253C179.869 394.057 184.141 397.996 189.181 400.701C192.197 402.328 195.58 403.154 199.007 403.098C202.433 403.043 205.788 402.11 208.751 400.387C208.983 400.258 209.177 400.069 209.312 399.84C209.447 399.611 209.518 399.35 209.518 399.084C209.518 398.818 209.447 398.557 209.312 398.328C209.177 398.099 208.983 397.911 208.751 397.782C206.174 396.377 203.937 394.423 202.199 392.058C201.61 391.288 201.232 390.376 201.105 389.415C200.977 388.454 201.103 387.476 201.471 386.578C201.838 385.681 202.434 384.896 203.199 384.3C203.965 383.705 204.873 383.32 205.833 383.185C218.611 381.503 230.471 375.633 239.561 366.493C248.651 357.354 254.458 345.459 256.075 332.668L256.017 332.697Z" fill="#827DDC"/>
    <path d="M175.111 322.295C176.004 315.207 170.985 308.735 163.898 307.841C156.812 306.947 150.343 311.968 149.449 319.057C148.555 326.146 153.575 332.617 160.661 333.511C167.747 334.406 174.217 329.384 175.111 322.295Z" fill="white"/>
    <path d="M216.501 327.673C217.395 320.585 212.375 314.113 205.289 313.219C198.203 312.325 191.734 317.346 190.84 324.435C189.946 331.524 194.965 337.995 202.052 338.89C209.138 339.784 215.607 334.762 216.501 327.673Z" fill="white"/>
    <path d="M139.101 317.938C140.03 310.865 135.05 304.378 127.979 303.449C120.908 302.52 114.423 307.501 113.495 314.575C112.566 321.648 117.546 328.135 124.617 329.064C131.688 329.993 138.173 325.012 139.101 317.938Z" fill="white"/>
    <g style="mix-blend-mode:overlay" opacity="0.24">
        <path d="M208.694 397.668C206.117 396.263 203.88 394.308 202.142 391.943C201.552 391.173 201.175 390.262 201.047 389.301C200.92 388.339 201.046 387.361 201.413 386.464C201.781 385.566 202.377 384.781 203.142 384.186C203.907 383.59 204.815 383.206 205.775 383.071C214.726 381.886 223.278 378.633 230.753 373.568C180.654 370.219 144.146 328.031 142.057 278.516C141.826 272.161 142.412 265.803 143.802 259.597L131.957 258.109C124.622 256.981 117.129 257.481 110.008 259.572C102.887 261.664 96.3137 265.296 90.7526 270.212C85.1914 275.128 80.779 281.207 77.8278 288.018C74.8766 294.83 73.4589 302.207 73.675 309.628C73.675 341.941 99.912 371.708 131.957 375.772L162.2 379.579C165.195 380.003 168.057 381.092 170.577 382.766C173.096 384.44 175.21 386.656 176.763 389.253C179.869 394.057 184.141 397.996 189.18 400.701C192.197 402.328 195.58 403.153 199.007 403.098C202.433 403.043 205.788 402.11 208.751 400.387C208.983 400.258 209.177 400.069 209.312 399.84C209.447 399.611 209.518 399.35 209.518 399.084C209.518 398.818 209.447 398.557 209.312 398.328C209.177 398.099 208.983 397.911 208.751 397.782L208.694 397.668Z" fill="black"/>
    </g>
    <path d="M102.63 513.127V525.949C102.639 528.562 102.283 531.163 101.572 533.677L100.456 537.627C100.243 538.381 100.209 539.175 100.355 539.946C100.501 540.716 100.824 541.442 101.298 542.066C101.773 542.69 102.385 543.196 103.088 543.543C103.791 543.89 104.565 544.069 105.348 544.067C114.075 544.067 129.01 544.067 132.844 544.067C133.151 544.077 133.451 543.976 133.688 543.781C133.926 543.586 134.083 543.311 134.132 543.008C134.447 539.258 123.631 536.768 115.506 533.591C109.297 531.187 109.64 520.025 110.384 513.556C110.45 512.979 110.387 512.394 110.199 511.844C110.011 511.294 109.703 510.793 109.298 510.377C108.893 509.96 108.4 509.639 107.856 509.437C107.311 509.234 106.728 509.155 106.15 509.206C105.181 509.305 104.284 509.762 103.633 510.487C102.983 511.212 102.625 512.153 102.63 513.127Z" fill="#FAB9AF"/>
    <path d="M138.28 326.429L121.142 205.989L74.934 199.635L50.8716 325.541L138.28 326.429Z" fill="#FAB9AF"/>
    <path d="M86.7793 327.573L137.994 323.28C137.994 323.28 143.144 360.488 130.212 428.092C124.146 459.748 111.5 520.253 111.5 520.253C108.502 521.639 105.121 521.962 101.915 521.169C101.915 521.169 100.942 494.494 100.37 465.758C99.7976 438.196 99.6546 408.744 97.9092 399.099C94.4186 379.407 86.7793 327.573 86.7793 327.573Z" fill="#5046AF"/>
    <path d="M120.312 324.768C121.142 333.355 122.83 341.941 124.146 350.528C125.552 361.34 125.724 372.277 124.661 383.128V383.414C123.454 398.492 120.18 413.333 114.933 427.52C113.188 432.271 111.357 437.823 109.354 445.151C105.005 460.95 102.516 508.49 101.715 514.386C101.4 504.683 100.799 485.764 100.399 465.729C99.8264 438.167 99.6834 408.715 97.9381 399.07C94.3616 379.378 86.8081 327.516 86.8081 327.516L120.312 324.768Z" fill="#5046AF"/>
    <path d="M97.2796 328.232C102.573 356.624 114.447 399.07 91.5573 438.968C68.6679 478.867 44.8916 520.311 44.8916 520.311C41.7793 520.422 38.7314 519.405 36.3081 517.449C36.3081 517.449 40.2851 499.36 46.0647 478.266C52.674 454.109 61.0286 425.717 58.6252 410.891C54.1618 383.128 49.0403 346.149 50.5853 328.203C52.1304 310.257 94.5901 313.32 97.2796 328.232Z" fill="#5046AF"/>
    <path d="M137.565 328.146C138.435 327.721 139.145 327.026 139.589 326.165C140.032 325.303 140.185 324.322 140.026 323.366L121.142 206.075L74.9339 199.635L50.099 323.566C49.9867 324.119 49.9852 324.689 50.0946 325.242C50.2039 325.795 50.4219 326.322 50.7359 326.79C51.0499 327.259 51.4537 327.66 51.9239 327.971C52.3941 328.283 52.9214 328.498 53.4752 328.604C70.8195 331.847 88.419 333.533 106.063 333.641C123.402 333.641 133.13 330.264 137.565 328.146Z" fill="white"/>
    <path d="M89.3543 206.962C89.3543 215.549 89.669 223.706 89.6404 232.149C89.6404 250.095 89.2684 278.86 89.6404 305.993C90.184 343.716 86.9795 361.232 80.3416 363.637C66.3505 368.703 45.092 357.912 44.4053 352.989C43.7186 348.066 48.926 288.763 54.7914 263.032C60.6568 237.301 77.1085 200.351 77.1085 200.351L84.0611 201.095C85.5155 201.25 86.8609 201.939 87.8382 203.027C88.8155 204.116 89.3555 205.528 89.3543 206.991V206.962Z" fill="#B0B0FF"/>
    <path d="M65.2631 293.8C70.7852 283.468 70.6135 272.62 72.8166 261.114C75.0197 249.608 85.6346 220.386 85.6346 212.143L71.5291 208.308C64.9182 226.217 59.3299 244.488 54.7912 263.032C48.9258 288.763 61.8011 300.297 65.2631 293.8Z" fill="#9797EF"/>
    <path d="M108.725 204.272C108.725 204.272 130.212 240.02 120.169 254.302C111.586 266.61 125.205 334.128 127.179 358.685C127.837 366.699 150.727 346.263 150.727 340.31C150.727 334.357 145.262 314.551 140.083 296.29C135.906 281.664 130.269 232.378 128.266 213.946C127.809 209.796 127.179 206.504 123.059 205.932L108.725 204.272Z" fill="#B0B0FF"/>
    <path d="M102.144 150.549C91.8149 150.549 87.8379 157.905 87.8379 171.472C88.0248 176.202 89.4238 180.804 91.9007 184.838C92.5868 186.016 93.0267 187.321 93.1939 188.673C93.3612 190.026 93.2522 191.399 92.8735 192.709L90.556 200.351C89.011 207.477 92.3872 211.37 97.3942 212.772C98.6752 213.094 100.008 213.151 101.312 212.94C102.616 212.728 103.863 212.252 104.976 211.542C107.551 209.882 107.837 206.304 107.265 203.299L106.693 201.123C106.49 200.422 106.431 199.688 106.518 198.963C106.605 198.239 106.837 197.539 107.2 196.906C107.563 196.273 108.05 195.72 108.631 195.279C109.213 194.838 109.877 194.519 110.584 194.34C118.538 192.594 119.654 184.323 121.8 171.443C124.003 158.077 112.473 150.549 102.144 150.549Z" fill="#FAB9AF"/>
    <path d="M123.574 152.553C123.65 151.663 123.539 150.767 123.247 149.922C122.955 149.078 122.489 148.305 121.88 147.652C121.27 146.999 120.531 146.481 119.709 146.132C118.887 145.784 118 145.611 117.108 145.626C115.146 145.939 113.169 146.14 111.185 146.227C108.724 145.97 104.576 143.508 101.772 143.108C90.0696 140.904 82.8022 147.143 84.29 157.418L85.5489 164.431C85.7965 165.902 86.5123 167.254 87.5897 168.285C88.6672 169.316 90.0487 169.972 91.5288 170.155C91.7279 170.065 91.9446 170.019 92.1633 170.022C92.382 170.025 92.5974 170.076 92.7941 170.172C92.9908 170.267 93.164 170.405 93.3013 170.576C93.4387 170.746 93.5369 170.944 93.5888 171.157L94.4186 175.021C95.7061 175.021 95.9922 170.699 95.9922 169.296C95.9949 167.697 96.544 166.147 97.5484 164.903C98.5527 163.659 99.952 162.795 101.514 162.456C105.463 161.569 106.321 158.477 110.727 159.594L114.046 160.71C117.823 161.712 122.63 158.964 122.63 154.986C122.687 154.556 123.574 153.326 123.574 152.553Z" fill="#827DDC"/>
    <path d="M93.4744 171.729C93.4744 174.878 92.3013 177.453 89.2685 177.453C86.2356 177.453 84.29 173.132 84.29 169.983C84.29 166.835 86.2356 166.005 89.2685 166.005C92.3013 166.005 93.4744 168.581 93.4744 171.729Z" fill="#FAB9AF"/>
    <path d="M118.738 181.146C118.811 181.491 118.805 181.848 118.722 182.191C118.639 182.533 118.481 182.853 118.259 183.128C118.037 183.402 117.757 183.623 117.439 183.775C117.121 183.927 116.773 184.007 116.421 184.008C115.815 184.009 115.232 183.778 114.79 183.363C114.349 182.948 114.083 182.38 114.046 181.775V171.729C114.046 171.357 114.194 171.001 114.457 170.738C114.72 170.475 115.076 170.327 115.448 170.327C115.707 170.327 115.958 170.414 116.161 170.575C116.364 170.737 116.506 170.962 116.564 171.214L118.738 181.146Z" fill="#FA968C"/>
    <path d="M115.563 159.393C119.568 160.452 121.857 167.121 121.972 169.754C122.17 169.754 122.365 169.715 122.548 169.638C122.73 169.562 122.896 169.45 123.034 169.308C123.173 169.167 123.282 169 123.355 168.816C123.428 168.632 123.463 168.435 123.46 168.237C123.46 166.635 123.46 164.316 123.317 163.887C123.002 162.313 121.228 158.334 120.455 158.334L115.563 159.393Z" fill="#827DDC"/>
    <path d="M67.6382 202.841C67.6382 202.841 27.3816 256.993 27.4674 287.303C27.4674 308.025 36.0509 353.132 36.0509 353.132C37.4225 353.365 38.809 353.498 40.1996 353.533C41.5961 353.498 42.9856 353.325 44.3483 353.018C44.3483 353.018 44.0908 295.374 47.5242 285.099C50.9576 274.824 83.5749 225.652 85.263 214.948C87.0942 203.642 77.5951 194.311 67.6382 202.841Z" fill="#B0B0FF"/>
    <path d="M94.905 166.005H89.1826V156.073C89.1826 151.88 90.8457 147.859 93.8067 144.891C96.7678 141.924 100.785 140.253 104.976 140.245H109.382V145.97H104.976C103.654 145.97 102.344 146.23 101.122 146.737C99.9002 147.243 98.79 147.985 97.8548 148.921C96.9196 149.856 96.1777 150.967 95.6716 152.189C95.1655 153.411 94.905 154.722 94.905 156.045V166.005Z" fill="#1935D8"/>
    <path d="M108.725 192.594H103.431C103.202 192.596 102.976 192.542 102.772 192.437C102.567 192.332 102.391 192.18 102.258 191.993L94.8766 181.546C94.6565 181.235 94.5691 180.849 94.6335 180.473C94.6978 180.098 94.9088 179.763 95.2199 179.543C95.531 179.323 95.9168 179.235 96.2924 179.3C96.6681 179.364 97.0027 179.575 97.2227 179.886L104.175 189.732H108.725C109.104 189.732 109.468 189.883 109.736 190.151C110.005 190.42 110.155 190.784 110.155 191.163C110.155 191.543 110.005 191.907 109.736 192.175C109.468 192.444 109.104 192.594 108.725 192.594Z" fill="#827DDC"/>
    <path d="M93.4741 164.259H90.2982V165.003C88.8679 165.799 87.6763 166.963 86.8467 168.375C86.017 169.786 85.5796 171.394 85.5796 173.031C85.5796 174.669 86.017 176.277 86.8467 177.688C87.6763 179.1 88.8679 180.264 90.2982 181.06V181.804H93.4741C95.631 181.557 97.6217 180.525 99.0669 178.905C100.512 177.285 101.311 175.189 101.311 173.017C101.311 170.846 100.512 168.75 99.0669 167.129C97.6217 165.509 95.631 164.477 93.4741 164.23V164.259Z" fill="#827DDC"/>
    <path d="M90.8419 181.833C95.219 181.833 98.7674 177.899 98.7674 173.046C98.7674 168.193 95.219 164.259 90.8419 164.259C86.4648 164.259 82.9165 168.193 82.9165 173.046C82.9165 177.899 86.4648 181.833 90.8419 181.833Z" fill="#1935D8"/>
    <path d="M158.852 379.006C158.852 378.247 158.551 377.519 158.014 376.982C157.478 376.446 156.75 376.144 155.991 376.144H155.791C155.334 376.18 154.876 376.117 154.446 375.959C154.016 375.8 153.626 375.551 153.301 375.228C152.928 374.871 152.461 374.627 151.954 374.525C151.447 374.424 150.922 374.469 150.44 374.656C150.183 374.767 149.905 374.824 149.625 374.824C149.344 374.824 149.067 374.767 148.809 374.656C148.506 374.511 148.173 374.436 147.837 374.436C147.5 374.436 147.168 374.511 146.864 374.656C146.531 374.824 146.164 374.912 145.791 374.912C145.418 374.912 145.051 374.824 144.718 374.656C144.39 374.489 144.027 374.401 143.659 374.398C143.207 374.394 142.761 374.512 142.37 374.739C141.979 374.967 141.656 375.295 141.436 375.691C141.216 376.086 141.106 376.534 141.118 376.986C141.131 377.439 141.265 377.88 141.507 378.262C141.749 378.645 142.089 378.955 142.492 379.161C142.896 379.366 143.347 379.46 143.798 379.43C144.25 379.401 144.685 379.25 145.059 378.994C145.432 378.738 145.729 378.387 145.92 377.976C146.121 378.313 146.406 378.593 146.746 378.789C147.087 378.984 147.472 379.089 147.865 379.092C148.306 379.081 148.733 378.942 149.096 378.691C149.342 379.097 149.686 379.435 150.095 379.675C150.505 379.915 150.967 380.049 151.442 380.065C152.178 380.062 152.886 379.775 153.416 379.264C153.505 379.901 153.819 380.486 154.302 380.911C154.785 381.337 155.405 381.575 156.048 381.582C156.75 381.572 157.424 381.303 157.941 380.828C158.458 380.353 158.782 379.705 158.852 379.006Z" fill="#FAB9AF"/>
    <defs>
        <linearGradient id="paint0_linear" x1="520.521" y1="196.244" x2="763.03" y2="295.814" gradientUnits="userSpaceOnUse">
            <stop stop-color="#E100FF"/>
            <stop offset="1" stop-color="#7F00FF" stop-opacity="0"/>
        </linearGradient>
    </defs>
</svg>
