<svg width="594" height="519" viewBox="0 0 594 519" fill="none" xmlns="http://www.w3.org/2000/svg">
    <path d="M525.933 88.7514C501.105 64.7309 464.765 61.8719 432.694 83.3511C424.133 89.0691 414.353 91.1462 405.28 88.2383C400.289 86.5856 395.855 83.5734 392.476 79.5391C369.233 52.3907 334.308 45.0355 300.943 63.6313C279.634 75.6167 260.261 90.768 243.482 108.569C213.24 140.482 177.632 162.328 141.048 169.292C138.349 169.814 135.658 170.4 132.975 171.052C110.025 176.697 89.3671 199.691 83.0015 228.33C82.4371 230.849 81.62 233.306 80.5626 235.661C75.6847 246.583 65.9291 253.621 56.7587 252.766L55.6856 252.619C37.4913 249.736 17.9555 264.837 10.3949 288.027L10.1998 288.662C-19.3355 379.662 25.3455 475.622 109.805 503.137C139.613 512.8 171.668 513.022 201.606 503.772C233.8 493.998 266.262 493.607 295.334 504.994C298.586 506.265 301.902 507.454 305.284 508.562C414.694 544.165 536.982 469.464 578.443 341.762C609.539 245.679 586.053 146.934 525.933 88.7514Z" fill="#B0B0FF"/>
    <path d="M535.299 264.373C554.249 225.96 550.713 185.469 527.397 173.96C522.154 171.375 517.661 167.486 514.347 162.665C511.033 157.843 509.01 152.25 508.471 146.42C502.886 87.1876 474.326 42.0543 436.864 39.6107C404.963 37.5092 375.306 67.1012 359.063 111.892C356.752 118.245 353.185 124.065 348.575 129.003C343.965 133.941 338.407 137.895 332.235 140.629C301.675 154.215 293.212 202.061 313.309 247.463C313.892 248.776 314.064 250.236 313.803 251.649C313.542 253.063 312.859 254.364 311.845 255.38C301.895 265.33 295.984 278.625 295.254 292.69C294.524 306.756 299.028 320.593 307.894 331.523C316.416 342.031 320.666 355.374 319.796 368.886C319.175 378.412 320.954 387.943 324.971 396.6C328.987 405.257 335.112 412.764 342.782 418.428C350.452 424.093 359.421 427.735 368.863 429.018C378.305 430.302 387.918 429.185 396.817 425.772C409.358 420.935 422.795 418.876 436.206 419.737C444.685 420.294 453.191 419.172 461.238 416.436C469.285 413.699 476.715 409.401 483.104 403.788C489.493 398.174 494.716 391.354 498.474 383.718C502.232 376.081 504.452 367.778 505.008 359.282C505.008 357.523 505.154 355.763 505.008 354.004C516.322 347.892 525.233 338.118 530.287 326.277C535.342 314.435 536.24 301.227 532.836 288.809C530.583 280.655 531.408 271.956 535.153 264.373H535.299Z" fill="#9B9BEA"/>
    <path d="M330.21 0C329.722 9.2368 329.405 17.765 329.357 26.0732C329.308 34.3814 329.576 42.2742 330.283 49.8005C330.851 56.9259 331.902 64.0042 333.43 70.9865C333.673 72.6482 334.283 74.2365 334.649 75.8737C335.002 77.4391 335.45 78.9815 335.99 80.4921L337.429 84.8906L339.137 89.7778L346.575 110.744C349.014 118.075 351.843 125.943 354.136 134.496C356.802 143.811 358.686 153.334 359.77 162.964C360.038 165.676 360.331 168.193 360.404 171.052L360.55 179.629C360.353 185.816 359.659 191.978 358.477 198.054C358.185 199.642 357.843 201.206 357.502 202.77C357.16 204.334 356.551 205.971 356.063 207.657L354.599 212.3L353.795 214.743L352.77 217.065C351.356 220.144 349.892 223.198 348.38 226.179C346.868 229.161 344.868 231.849 343.015 234.61L341.6 236.662C341.307 237.078 341.258 237.127 341.112 237.322L340.746 237.811L339.259 239.741C338.259 241.036 337.259 242.185 336.283 243.676L333.259 247.708L330.357 251.862C328.357 254.598 326.576 257.531 324.601 260.365C322.625 263.2 320.942 266.206 319.016 269.113C315.479 275.051 311.918 281.063 308.626 287.245C301.78 299.841 295.988 312.983 291.309 326.538L290.358 329.202L289.602 331.889C289.066 333.698 288.602 335.506 287.993 337.388C287.412 339.238 286.948 341.123 286.602 343.032C286.237 344.938 285.749 346.893 285.261 348.872C284.773 350.852 284.676 352.807 284.261 354.859L283.261 361.139C282.773 365.367 282.529 369.692 281.895 374.432C278.322 371.475 274.956 368.275 271.823 364.854C268.866 361.22 266.122 357.418 263.603 353.466C262.433 351.438 261.164 349.386 260.189 347.26C259.037 345.16 258.003 342.999 257.091 340.784C256.14 338.585 255.335 336.361 254.482 334.089C254.043 332.965 253.628 331.816 253.238 330.668L252.287 327.222C247.25 308.568 245.99 289.094 248.58 269.944C248.994 265.057 250.092 260.536 251.019 255.796C251.945 251.055 253.238 246.559 254.482 241.916C257.201 232.778 260.584 223.851 264.603 215.208C266.53 210.834 268.847 206.606 271.164 202.354C272.261 200.204 273.603 198.151 274.896 196.05L276.847 192.922L277.334 192.14C277.473 191.947 277.596 191.743 277.7 191.529L277.895 190.992C278.187 190.298 278.546 189.635 278.969 189.012C279.13 188.327 279.35 187.656 279.627 187.009L279.871 186.544V185.982C279.871 185.616 280.042 185.249 280.164 184.907L280.529 183.832C280.564 183.398 280.621 182.965 280.7 182.537C281.116 180.612 281.401 178.66 281.554 176.697C281.554 175.475 281.611 174.253 281.725 173.031C281.725 171.809 281.725 170.27 281.725 168.901C281.725 163.135 281.139 156.488 280.359 148.937C279.578 141.387 278.749 133.42 278.066 124.746C277.725 120.518 277.505 115.924 277.31 111.477C277.115 107.03 277.066 102.338 277.31 97.4507C277.31 95.0071 277.456 92.759 277.676 90.1199L278.481 82.3004C278.725 79.7102 279.31 77.1932 279.773 74.6763C280.237 72.1594 280.749 69.667 281.505 67.3456C286.586 48.8285 296.01 31.796 308.992 17.6672C315.131 10.7354 322.285 4.77836 330.21 0Z" fill="#8888EA"/>
    <path d="M309.796 60.6257C307.358 74.3556 307.243 88.3986 309.455 102.167C311.406 115.924 314.796 129.462 317.796 143.146C321.263 156.87 323.146 170.948 323.405 185.103C323.473 199.674 318.931 213.892 310.43 225.715C302.582 237.092 295.821 249.184 290.236 261.831C284.568 274.457 280.181 287.621 277.139 301.125C274.069 314.63 272.798 328.484 273.359 342.324C273.929 356.258 276.839 369.996 281.968 382.961C275.919 370.238 272.194 356.533 270.969 342.495C269.797 328.399 270.619 314.208 273.408 300.343C279.094 272.572 290.327 246.24 306.431 222.929C307.479 221.463 308.309 220.046 309.211 218.604C310.113 217.163 311.064 215.794 311.796 214.304C313.312 211.302 314.577 208.18 315.577 204.969C316.148 203.373 316.612 201.74 316.967 200.082L317.918 195.195C318.259 193.533 318.259 191.822 318.454 190.136C318.661 188.45 318.766 186.753 318.771 185.054V179.922C318.771 178.212 318.576 176.501 318.503 174.791C318.503 171.37 317.845 167.948 317.503 164.503C316.511 157.661 315.349 150.811 314.016 143.952C311.357 130.268 308.43 116.511 307.04 102.411C305.471 88.4293 306.405 74.2791 309.796 60.6257Z" fill="#B0B0FF"/>
    <path d="M215.581 32.4021C222.14 38.2777 227.882 45.0088 232.653 52.4152C237.546 59.8779 241.633 67.8397 244.848 76.1669C248.284 84.824 250.738 93.8404 252.165 103.047C252.604 105.49 252.75 107.787 252.994 110.182C253.238 112.577 253.457 115.069 253.409 117.513V124.843C253.409 127.287 253.14 129.437 252.994 131.734C252.75 136.377 252.092 140.678 251.555 145.174C251.018 149.67 250.238 153.873 249.458 157.979C247.897 166.385 246.238 174.302 244.726 181.828C243.214 189.354 241.946 196.368 241.263 202.745C240.492 208.246 240.443 213.824 241.116 219.337C241.116 219.924 241.116 220.51 241.263 221.121L241.653 222.734L241.994 224.347L242.141 225.153L242.433 225.886C242.799 226.888 243.092 227.914 243.385 228.941C243.677 229.967 244.409 230.896 244.824 231.922L245.141 232.704C245.141 232.973 245.653 233.657 245.897 234.121L247.555 237.224C248.653 239.302 249.823 241.33 250.75 243.456C252.726 247.659 254.701 251.813 256.311 256.113C259.71 264.611 262.529 273.331 264.75 282.211C265.725 286.707 266.749 291.13 267.506 295.651C268.262 300.172 268.993 304.643 269.237 309.286C271.037 327.644 269.382 346.178 264.359 363.925L263.408 367.199L262.213 370.449C261.384 372.6 260.628 374.726 259.774 376.827C258.917 378.934 257.94 380.99 256.847 382.985C255.823 385.013 254.726 386.993 253.628 388.923C251.36 392.784 248.555 396.4 245.994 399.919C243.092 403.234 240.014 406.39 236.775 409.376C237.019 404.904 237.58 400.75 237.897 396.645L238.043 390.462C238.043 388.41 238.336 386.504 238.043 384.476C237.751 382.447 237.824 380.468 237.775 378.538C237.775 376.601 237.653 374.667 237.409 372.746C237.141 370.816 237.019 368.91 236.824 367.028L236.531 364.218L236.019 361.384C233.704 346.771 229.929 332.428 224.751 318.572L223.849 316.128L222.8 313.685L220.752 308.626C219.41 305.254 217.776 301.98 216.41 298.657C215.044 295.333 213.313 292.108 211.654 288.882C209.996 285.657 208.411 282.455 206.606 279.352C205.703 277.813 204.899 276.2 203.996 274.66L201.289 270.091C200.411 268.551 199.435 267.11 198.533 265.644L197.143 263.444L196.387 262.222L195.289 260.292C189.141 249.972 185.251 238.461 183.875 226.522C183.195 220.945 182.959 215.323 183.168 209.71L183.875 201.841C184.119 199.227 184.582 196.954 184.973 194.339C186.614 185.213 188.954 176.226 191.972 167.46C194.679 159.225 197.704 151.527 200.508 144.197L204.728 133.372L206.679 128.118C207.362 126.358 208.02 124.623 208.581 122.913L210.386 117.781L211.874 112.894C212.412 111.292 212.86 109.66 213.215 108.007C213.581 106.321 214.166 104.659 214.41 102.9C214.654 101.141 215.044 99.4056 215.41 97.6462L216.166 92.2458C216.483 90.4131 216.63 88.5804 216.776 86.6988C216.922 84.8173 217.118 82.9601 217.191 81.0541C218.003 64.8201 217.465 48.5465 215.581 32.4021Z" fill="#9B9BEA"/>
    <path d="M233.873 66.6613C236.025 80.5256 235.728 94.661 232.995 108.422C230.556 122.229 226.41 135.644 222.727 149.108C220.857 155.836 219.158 162.597 217.63 169.39C217.02 172.811 216.191 176.183 215.825 179.629C215.606 181.339 215.337 183.05 215.142 184.785L214.801 189.965C213.814 203.791 217.23 217.574 224.556 229.332C231.636 241.479 237.54 254.277 242.19 267.549C246.886 280.789 250.157 294.494 251.945 308.431C253.788 322.377 253.714 336.51 251.726 350.436C249.666 364.335 245.174 377.761 238.458 390.096C244.763 377.614 248.888 364.142 250.653 350.265C252.385 336.462 252.229 322.486 250.189 308.724C246.098 281.107 236.688 254.549 222.483 230.529C215.03 218.319 211.615 204.063 212.728 189.794C213.924 175.771 216.723 161.931 221.069 148.546C224.971 135.106 229.19 121.789 231.971 108.129C234.949 94.5148 235.592 80.4919 233.873 66.6613Z" fill="#B0B0FF"/>
    <path d="M94.7084 156.952C101.255 161.213 107.202 166.333 112.391 172.176C117.762 178.034 122.495 184.448 126.512 191.309C130.71 198.418 134.082 205.986 136.56 213.864C137.268 215.843 137.731 217.944 138.267 220.022C138.804 222.099 139.341 224.176 139.633 226.326L140.609 232.802C140.877 234.903 140.999 236.858 141.194 238.911C141.609 243.016 141.633 246.901 141.779 250.909C141.926 254.916 141.779 258.728 141.779 262.442C141.584 270.042 141.219 277.104 140.901 284.044C140.584 290.984 140.462 297.19 140.755 302.884C140.834 307.845 141.564 312.775 142.926 317.546C143.072 318.059 143.194 318.572 143.316 319.085L143.877 320.429L144.389 321.797L144.633 322.482L144.999 323.092C145.462 323.923 145.877 324.779 146.267 325.536C146.657 326.294 147.438 327.1 147.95 327.98L148.34 328.615C148.462 328.835 148.926 329.397 149.194 329.764L151.072 332.207C152.316 333.869 153.511 335.506 154.73 337.241C157.047 340.638 159.364 344.034 161.364 347.577C169.765 361.536 176.061 376.663 180.046 392.466C184.19 408.323 185.324 424.818 183.387 441.094C181.241 457.197 175.51 472.861 165.413 484.81C165.022 480.851 164.925 477.112 164.632 473.471C164.34 469.831 163.779 466.141 163.193 462.769C162.015 456.004 160.385 449.326 158.315 442.78C154.222 430.314 148.895 418.288 142.414 406.883C136.061 395.647 128.862 384.913 120.878 374.775C118.951 372.331 116.951 369.887 114.927 367.444C113.951 366.198 112.903 365 111.878 363.925L110.342 362.19L109.513 361.213L108.269 359.673C101.487 351.515 96.5003 342.014 93.6353 331.792C92.2739 326.99 91.2953 322.087 90.7086 317.13L90.1964 310.117C90.0501 307.673 90.1964 305.645 90.1964 303.397C90.3852 295.201 91.2005 287.032 92.6353 278.961C93.8792 271.362 95.4888 264.177 96.9278 257.36C98.3668 250.542 99.8789 243.944 101.074 237.542L101.952 232.777L102.61 228.379C102.858 226.882 103.021 225.373 103.098 223.858C103.098 222.343 103.464 220.779 103.44 219.215C103.705 212.694 103.518 206.162 102.879 199.666C101.35 185.225 98.617 170.937 94.7084 156.952Z" fill="#9B9BEA"/>
    <path d="M115.585 184.492C119.655 196.337 121.571 208.818 121.244 221.341C121.073 233.852 119.537 246.266 118.22 258.582C117.553 264.739 117.041 270.889 116.683 277.031C116.683 280.085 116.415 283.164 116.683 286.194C116.683 287.709 116.683 289.249 116.829 290.764L117.268 295.284C118.309 307.29 123.116 318.658 130.999 327.76C147.016 347.226 158.922 369.746 165.998 393.957C169.49 406.044 171.256 418.565 171.242 431.148C171.168 443.679 168.847 456.095 164.388 467.802C171.705 443.88 169.681 418.368 162.364 395.032C158.622 383.322 153.72 372.017 147.73 361.286C141.825 350.493 134.917 340.283 127.097 330.79C118.637 320.929 113.514 308.636 112.464 295.675C111.651 283.1 112.29 270.473 114.366 258.044C116 245.704 118.049 233.486 118.78 221.146C119.761 208.835 118.681 196.446 115.585 184.492Z" fill="#B0B0FF"/>
    <path d="M450.107 223.272C444.705 226.07 439.469 229.178 434.425 232.582C433.599 233.171 432.611 233.488 431.597 233.488C430.583 233.489 429.595 233.173 428.769 232.584C427.942 231.995 427.32 231.164 426.987 230.204C426.655 229.245 426.629 228.205 426.913 227.23C429.656 217.398 431.854 207.421 433.498 197.345C435.845 178.485 436.107 159.424 434.279 140.507C433.221 128.082 431.396 115.734 428.816 103.535C428.62 132.467 427.889 167.069 422.377 195.61C421.231 202.281 417.279 215.648 412.792 231.384C412.54 232.421 411.956 233.346 411.13 234.019C410.304 234.692 409.281 235.076 408.217 235.112C407.153 235.148 406.107 234.834 405.237 234.219C404.368 233.603 403.723 232.719 403.402 231.702C401.183 225.495 398.866 219.191 396.89 214.084C391.451 199.691 383.11 179.531 376.062 165.7C379.354 177.772 387.964 207.242 390.695 216.185C392.817 223.345 396.256 234.537 399.719 245.679C402.834 255.696 403.255 266.359 400.939 276.591C397.41 291.832 394.731 307.259 392.915 322.799C390.086 346.747 390.012 374.506 396.671 397.867C395.598 373.184 397.688 348.465 402.89 324.314C406.402 306.403 410.012 291.081 414.548 273.61C417.88 260.777 425.379 249.421 435.864 241.33C441.511 237.043 447.372 233.046 453.424 229.356C469.9 219.58 486.9 210.721 504.349 202.819C485.532 207.487 467.327 214.351 450.107 223.272Z" fill="#B0B0FF"/>
    <path d="M509.105 203.723C507.812 198.689 500.715 196.172 493.276 198.103C491.215 198.664 489.194 199.366 487.228 200.204C482.502 202.155 477.198 202.155 472.472 200.204C470.152 199.24 467.668 198.734 465.156 198.713C454.376 198.713 444.181 207.071 439.986 215.11C438.864 217.285 440.181 219.557 440.132 221.879C439.449 247.194 452.034 243.309 465.717 243.309C479.399 243.309 489.155 235.294 489.155 224.347C489.155 223.891 489.155 223.426 489.155 222.954C489.017 221.506 489.45 220.061 490.362 218.929C491.273 217.796 492.591 217.066 494.032 216.894C495.38 216.763 496.717 216.534 498.032 216.21C505.422 214.426 510.397 208.806 509.105 203.723Z" fill="#41378C"/>
    <path d="M424.645 314.125C424.101 307.69 424.363 301.213 425.425 294.845C426.034 290.769 425.745 286.61 424.578 282.658C423.411 278.707 421.394 275.06 418.67 271.972C418.109 271.337 417.572 270.751 417.036 270.238C415.092 268.292 413.576 265.961 412.585 263.394C411.594 260.827 411.149 258.081 411.28 255.332C411.44 251.144 410.195 247.022 407.743 243.627C405.82 240.874 403.385 238.518 400.573 236.687C394.203 232.439 389.746 225.86 388.159 218.36C386.525 211.371 381.671 204.431 368.647 203.698C364.087 198.493 358.672 195.072 351.941 196.612C343.746 198.493 337.307 209.783 332.991 217.7C328.43 226.155 323.527 243.016 332.795 252.717C337.307 257.458 339.698 270.042 336.381 275.809C325.552 294.673 343.697 325.365 339.185 340.906C337.112 348.091 336.503 355.201 339.478 360.26C341.761 364.288 345.288 367.464 349.528 369.31C353.768 371.157 358.492 371.574 362.989 370.498C365.1 370.051 367.299 370.299 369.257 371.207C386.525 378.953 409.036 366.32 419.523 342.812C423.665 333.85 425.429 323.969 424.645 314.125Z" fill="#FFA50A"/>
    <path d="M183.387 471.297C184.802 467.729 185.826 463.966 186.534 462.671C187.105 461.885 187.732 461.142 188.412 460.447C189.387 459.299 191.094 457.662 191.314 456.171L192.363 449.891C192.826 446.836 194.631 444.759 197.679 445.199C200.972 445.688 202.045 448.742 201.167 451.944L200.509 456.366C200.035 458.976 200.109 461.656 200.728 464.235C201.533 469.611 199.313 475.475 197.094 480.02C195.704 482.88 191.631 484.126 186.119 485.519C183.412 486.203 178.997 486.447 181.095 483.613C182.851 481.169 191.07 478.603 189.997 470.148C189.997 469.733 189.729 468.682 189.216 468.584C187.704 468.316 186.924 471.639 185.948 473.178C184.582 475.329 182.826 476.013 181.875 475.622C180.924 475.231 182.387 473.838 183.387 471.297Z" fill="#FAB9AF"/>
    <path d="M186.436 266.303C202.704 290.006 229.41 339.147 223.825 375.996C219.995 401.214 201.313 454.485 201.313 454.485C199.609 454.508 197.906 454.41 196.216 454.192C194.549 453.887 192.915 453.42 191.338 452.799C191.338 452.799 205.264 379.198 202.947 366.075C200.63 352.953 169.071 290.593 166.803 277.471C164.022 262.174 177.339 253.035 186.436 266.303Z" fill="#6469D4"/>
    <path d="M195.119 407.69L174.095 259.559L117.317 251.764L87.7817 406.615L195.119 407.69Z" fill="#FAB9AF"/>
    <path d="M131.877 409.132L194.777 403.854C194.777 403.854 205.475 419.511 189.573 502.545L145.56 496.979C141.145 472.861 131.877 409.132 131.877 409.132Z" fill="#1E2D64"/>
    <path d="M150.966 508.982C150.966 508.982 146.023 497.614 152.438 478.554C171.29 422.352 156.974 409.987 156.974 409.987L131.902 409.156C131.902 409.156 141.145 472.885 145.56 497.126V508.982H150.966Z" fill="#0F1446"/>
    <path d="M144.853 409.938C151.34 444.857 149.211 506.056 149.211 506.056L95.9792 491.426C90.4917 457.216 85.8551 431.882 87.8794 409.791C89.9037 387.701 141.462 391.562 144.853 409.938Z" fill="#1E2D64"/>
    <path d="M194.265 409.816C195.341 409.298 196.22 408.443 196.77 407.381C197.32 406.319 197.511 405.107 197.314 403.927L174.119 259.559L117.341 251.764L86.8062 404.098C86.6681 404.777 86.6662 405.477 86.8004 406.157C86.9347 406.837 87.2025 407.483 87.5883 408.058C87.9741 408.633 88.4702 409.126 89.0477 409.507C89.6252 409.889 90.2726 410.152 90.9524 410.28C112.26 414.275 133.882 416.352 155.559 416.487C176.851 416.585 188.753 412.43 194.265 409.816Z" fill="white"/>
    <path d="M130.072 289.982C123.146 308.749 112.146 345.794 118.463 378.367C127.365 424.233 138.804 442.78 123.975 453.483C109.147 464.186 80.6844 446.323 79.8552 440.385C79.0259 434.447 85.3915 361.384 92.6107 329.739C99.8299 298.095 120 252.595 120 252.595L130.536 253.548C130.536 253.548 133.365 281.038 130.072 289.982Z" fill="#6469D4"/>
    <path d="M122.293 295.26C126.649 285.273 128.444 274.353 127.512 263.493C126.659 262.42 125.541 261.589 124.268 261.084C122.994 260.578 121.611 260.417 120.256 260.615C118.901 260.812 117.622 261.363 116.545 262.211C115.469 263.059 114.633 264.175 114.122 265.448C107.854 281.014 97.4644 308.358 92.611 329.666C85.3918 361.384 118.39 303.91 122.293 295.26Z" fill="#5159BF"/>
    <path d="M164.12 258.191C164.12 258.191 168.534 278.766 165.095 309.506C161.657 340.247 153.706 433.397 181.534 447.496C190.338 451.968 210.459 428.974 210.459 424.868C210.459 417.538 203.752 393.102 197.387 370.718C192.265 352.807 187.119 292.939 185.192 270.091C184.983 267.525 183.899 265.11 182.123 263.25C180.346 261.39 177.986 260.199 175.436 259.877L164.12 258.191Z" fill="#6469D4"/>
    <path d="M79.4894 368.275C79.4894 368.275 71.7824 376.852 72.9043 378.22C74.0262 379.589 78.2211 375.777 78.904 375.997C79.5869 376.216 72.9775 384.183 71.5873 385.527C70.1971 386.871 71.0019 387.799 72.4165 388.263C73.3189 388.557 72.8067 390.951 73.3189 391.807C73.8311 392.662 74.6603 394.25 76.4651 393.859C78.2699 393.468 87.2451 382.008 87.0012 377.389C86.7573 372.771 83.3429 366.809 79.4894 368.275Z" fill="#EA9F96"/>
    <path d="M88.4157 365.587C86.85 364.767 85.3351 363.853 83.8793 362.85L76.5626 357.45C75.8884 356.957 75.1052 356.635 74.28 356.512C73.4548 356.389 72.612 356.467 71.8237 356.741C71.0353 357.014 70.3248 357.475 69.7527 358.084C69.1806 358.692 68.7641 359.43 68.5385 360.235C68.215 361.405 68.3141 362.652 68.8183 363.756C69.3224 364.861 70.1993 365.751 71.2945 366.271C75.1724 368.104 78.3186 369.619 80.1478 370.523C81.4786 371.106 82.5893 372.099 83.3184 373.357C84.2208 374.897 84.3427 376.045 84.2695 380.322C84.1964 384.598 81.8306 386.064 80.4648 388.141C78.0259 391.978 73.6359 393.81 75.9772 395.057C77.8796 396.058 82.416 393.981 85.3914 390.169C87.3718 387.664 88.9591 384.871 90.0986 381.886C94.3423 370.816 90.7083 366.906 88.4157 365.587Z" fill="#FAB9AF"/>
    <path d="M122.902 195.561C123.414 200.839 121.964 206.121 118.829 210.394C113.683 216.674 121.268 222.612 122.902 226.766C124.536 230.92 122.487 237.371 127.39 240.255C132.292 243.138 146.218 243.92 148.438 238.813C150.657 233.706 138.731 192.653 122.902 195.561Z" fill="#32285F"/>
    <path d="M179.192 206.851C179.948 234.903 153.901 240.377 138.755 240.377C123.609 240.377 122.902 206.68 122.902 194.559C122.902 182.439 134.804 180.533 149.95 180.533C161.876 180.533 173.168 189.794 177.827 198.689C178.868 201.278 179.334 204.063 179.192 206.851Z" fill="#32285F"/>
    <path d="M150.754 191.358C138.096 191.358 133.365 200.4 133.121 217.114C133.321 222.915 135 228.568 137.999 233.535C138.854 234.996 139.402 236.617 139.607 238.298C139.813 239.979 139.672 241.685 139.194 243.309L136.511 252.595C134.609 261.343 138.779 266.157 144.901 267.892C146.475 268.289 148.113 268.36 149.716 268.099C151.318 267.839 152.85 267.252 154.218 266.377C157.364 264.349 157.632 259.95 157.047 256.236L156.34 253.548C156.095 252.68 156.028 251.771 156.142 250.876C156.257 249.981 156.551 249.118 157.006 248.34C157.462 247.562 158.07 246.884 158.793 246.347C159.517 245.81 160.342 245.425 161.217 245.215C170.973 243.089 172.363 232.997 174.973 217.065C177.583 200.62 163.437 191.358 150.754 191.358Z" fill="#FAB9AF"/>
    <path d="M180.265 184.027L172.949 186.251C170.275 187.047 167.428 187.047 164.754 186.251L150.242 182.024C141.462 182.024 126.951 186.911 128.78 199.691L130.389 208.683C130.708 210.439 131.6 212.04 132.924 213.234C134.248 214.428 135.93 215.148 137.706 215.281C137.901 215.931 138.32 216.49 138.889 216.859C139.457 217.228 140.138 217.382 140.81 217.294C141.481 217.205 142.1 216.881 142.554 216.378C143.009 215.875 143.27 215.226 143.291 214.548C143.302 212.587 143.98 210.688 145.212 209.164C146.445 207.64 148.159 206.583 150.071 206.166C155.131 204.896 160.426 204.896 165.485 206.166C175.558 208.879 186.192 202.623 187.216 192.214C187.216 191.562 187.216 190.894 187.216 190.21C187.267 189.315 187.115 188.421 186.771 187.594C186.428 186.767 185.902 186.028 185.234 185.434C184.565 184.839 183.771 184.404 182.91 184.16C182.05 183.917 181.146 183.871 180.265 184.027Z" fill="#32285F"/>
    <path d="M140.096 217.431C140.096 221.317 138.657 224.445 134.926 224.445C131.194 224.445 128.804 219.117 128.804 215.232C128.804 211.347 131.243 210.345 134.926 210.345C138.609 210.345 140.096 213.497 140.096 217.431Z" fill="#FAB9AF"/>
    <path d="M171.119 229.014C171.21 229.437 171.205 229.876 171.106 230.297C171.006 230.718 170.813 231.112 170.542 231.449C170.271 231.786 169.928 232.059 169.538 232.246C169.149 232.434 168.722 232.532 168.29 232.533C167.549 232.534 166.836 232.251 166.296 231.743C165.756 231.234 165.432 230.537 165.388 229.796V217.431C165.388 216.971 165.57 216.53 165.895 216.205C166.22 215.879 166.66 215.696 167.12 215.696C167.439 215.695 167.748 215.803 167.997 216.004C168.246 216.204 168.418 216.484 168.485 216.796L171.119 229.014Z" fill="#FA968C"/>
    <path d="M100.805 254.452C78.1723 266.67 57.1732 284.166 23.5162 324.73C22.3159 326.162 21.6888 327.99 21.7564 329.859C21.824 331.728 22.5814 333.505 23.882 334.846C31.1988 342.177 47.8078 356.839 79.8064 372.576C82.2296 369.25 83.7201 365.335 84.1233 361.237C84.1233 361.237 52.1735 329.153 50.2711 327.54C50.2711 327.54 103.927 295.773 117.122 284.215C130.316 272.657 129.682 260.146 125.609 254.892C121.536 249.638 106.781 251.202 100.805 254.452Z" fill="#6469D4"/>
    <path d="M145.072 280.452C144.709 280.454 144.355 280.571 144.062 280.786C143.769 281.001 143.55 281.303 143.438 281.649C141.487 287.88 132.658 316.568 130.682 332.036C129.073 344.645 134.17 366.833 137.097 378.122C138.259 382.578 141.136 386.391 145.096 388.728L147.096 389.901C147.499 390.142 147.945 390.3 148.41 390.367C148.874 390.433 149.347 390.407 149.801 390.289C150.255 390.17 150.681 389.963 151.054 389.678C151.427 389.393 151.74 389.037 151.974 388.63L153.608 385.82C154.216 384.77 154.581 383.598 154.678 382.389C154.775 381.18 154.601 379.964 154.169 378.831C150.73 369.887 142.316 346.136 143.048 330.35C143.291 324.803 148.657 291.033 150.047 282.431C150.09 282.183 150.078 281.929 150.012 281.686C149.946 281.444 149.827 281.218 149.664 281.027C149.501 280.836 149.298 280.683 149.069 280.579C148.84 280.475 148.591 280.424 148.34 280.427L145.072 280.452Z" fill="#C8E6EB"/>
    <path d="M147.023 276.249C146.658 276.26 146.305 276.386 146.016 276.61C145.727 276.834 145.516 277.144 145.413 277.495C143.609 283.751 135.414 312.634 133.804 328.151C132.487 340.784 138.072 362.874 141.243 374.09C142.493 378.529 145.449 382.29 149.462 384.549L151.486 385.673C151.896 385.909 152.349 386.061 152.819 386.119C153.288 386.176 153.764 386.139 154.219 386.009C154.674 385.879 155.098 385.659 155.466 385.362C155.835 385.065 156.14 384.697 156.364 384.28L157.925 381.421C158.509 380.356 158.847 379.173 158.914 377.959C158.982 376.745 158.777 375.532 158.315 374.408C154.681 365.538 145.73 341.982 146.121 326.196C146.243 320.649 150.852 286.756 152.047 278.13C152.083 277.882 152.064 277.629 151.992 277.388C151.919 277.148 151.794 276.927 151.627 276.74C151.459 276.554 151.253 276.406 151.022 276.309C150.791 276.211 150.542 276.166 150.291 276.175L147.023 276.249Z" fill="#FFA50A"/>
    <path d="M151.73 277.031H146.291C146.073 277.031 145.858 276.988 145.657 276.904C145.455 276.821 145.273 276.698 145.119 276.544C144.965 276.39 144.842 276.207 144.759 276.005C144.676 275.803 144.633 275.587 144.633 275.369V269.895C144.633 269.677 144.676 269.461 144.759 269.26C144.842 269.058 144.965 268.875 145.119 268.721C145.273 268.566 145.455 268.444 145.657 268.36C145.858 268.277 146.073 268.234 146.291 268.234L151.169 267.696C151.716 267.793 152.22 268.056 152.612 268.449C153.005 268.843 153.268 269.348 153.364 269.895V275.369C153.364 275.806 153.193 276.225 152.887 276.536C152.581 276.846 152.166 277.024 151.73 277.031Z" fill="#FFA50A"/>
    <path d="M136.853 251.495L127.658 253.108C128.957 262.3 132.075 271.139 136.828 279.108C136.954 279.289 137.122 279.438 137.317 279.54C137.513 279.642 137.73 279.696 137.95 279.696C138.171 279.696 138.388 279.642 138.583 279.54C138.779 279.438 138.946 279.289 139.072 279.108L145.608 270.018C145.973 269.505 146.18 268.897 146.206 268.268C146.232 267.639 146.075 267.016 145.755 266.474L136.853 251.495Z" fill="white"/>
    <path d="M156.827 255.429L166.022 258.459C165.707 265.569 163.344 272.435 159.218 278.228C159.096 278.415 158.929 278.568 158.733 278.674C158.537 278.78 158.318 278.835 158.096 278.835C157.873 278.835 157.654 278.78 157.458 278.674C157.262 278.568 157.096 278.415 156.974 278.228L151.633 269.92C151.331 269.447 151.155 268.905 151.121 268.345C151.086 267.785 151.196 267.225 151.437 266.719L156.827 255.429Z" fill="white"/>
    <path d="M351.234 265.057C348.16 249.76 311.357 255.014 341.478 214.621C341.831 214.098 342.36 213.718 342.969 213.552C343.578 213.386 344.225 213.445 344.795 213.717C347.892 215.33 356.526 214.572 361.575 217.431C371.013 222.807 387.525 239.717 385.695 250.444C381.793 273.341 399.67 288.125 405.841 311.705C411.914 335.97 377.306 368.69 356.624 366.002C353.354 365.609 350.225 364.44 347.497 362.591C344.769 360.742 342.522 358.267 340.941 355.373C339.693 353.244 338.892 350.883 338.586 348.433C338.28 345.984 338.475 343.497 339.161 341.126C343.722 325.512 361.477 316.128 351.234 265.057Z" fill="#FA870A"/>
    <path d="M424.353 404.025L443.352 270.238L494.642 263.176L521.3 403.072L424.353 404.025Z" fill="#FAB9AF"/>
    <path d="M434.815 273.83C434.815 273.83 390.159 333.991 390.232 367.664C390.232 390.682 399.866 440.776 399.866 440.776C401.382 441.032 402.914 441.179 404.451 441.216C405.995 441.171 407.531 440.975 409.036 440.63C409.036 440.63 408.743 376.607 412.573 365.171C416.402 353.735 453.619 299.194 454.351 287.269C455.083 275.345 442.4 264.129 434.815 273.83Z" fill="#6469D4"/>
    <path d="M481.423 405.32L424.596 400.432L429.992 501.96L449.88 494.352L469.058 484.639L481.423 405.32Z" fill="#1E2D64"/>
    <path d="M444.278 402.192C443.352 411.82 441.498 421.276 440.035 430.88C438.48 442.891 438.291 455.04 439.474 467.094V467.411C440.81 484.195 445.201 495.523 445.201 495.523L469.107 484.81C473.082 462.94 481.447 405.393 481.447 405.393L444.278 402.192Z" fill="#0F1446"/>
    <path d="M469.74 406.053C463.863 437.599 465.674 481.478 465.674 481.478L517.736 444.612C517.736 444.612 523.031 425.944 521.299 406.004C519.568 386.064 472.838 389.436 469.74 406.053Z" fill="#1E2D64"/>
    <path d="M422.401 400.628L443.376 270.238L494.593 263.176L522.153 400.848C522.277 401.461 522.279 402.093 522.158 402.706C522.038 403.32 521.797 403.904 521.45 404.424C521.103 404.944 520.657 405.391 520.137 405.737C519.617 406.084 519.034 406.324 518.421 406.444C499.18 410.047 479.656 411.92 460.083 412.04C440.839 412.04 430.035 408.301 425.108 405.931C424.137 405.469 423.345 404.699 422.855 403.74C422.366 402.781 422.206 401.687 422.401 400.628Z" fill="white"/>
    <path d="M478.618 271.313C478.634 280.699 480.284 290.01 483.496 298.828C489.764 316.104 499.154 348.75 493.569 377.536C485.521 419.077 475.18 435.718 488.691 445.37C502.203 455.022 527.714 438.919 528.543 433.543C529.372 428.167 523.543 362.19 517.031 333.6C510.519 305.01 492.301 263.933 492.301 263.933L484.569 264.764C482.954 264.933 481.46 265.696 480.374 266.906C479.288 268.116 478.689 269.686 478.692 271.313H478.618Z" fill="#6469D4"/>
    <path d="M513.69 391.342C512.172 383.097 509.357 375.146 505.349 367.786C499.241 356.289 494.908 343.93 492.496 331.132C490.329 319.984 487.279 309.026 483.374 298.363C480.21 289.639 478.6 280.425 478.618 271.142V265.375L492.935 263.273C492.935 263.273 510.446 305.01 516.958 333.6C523.47 362.19 529.153 428.167 528.47 433.543C527.982 437.16 516.129 445.761 504.373 447.863C513.449 430.512 516.716 410.696 513.69 391.342Z" fill="#434CB5"/>
    <path d="M457.278 268.332C451.459 283.239 449.471 299.372 451.498 315.249C454.595 342.91 461.79 427.166 436.669 439.872C428.718 443.904 410.548 426.066 410.548 419.444C410.548 412.822 416.621 390.683 422.352 370.572C426.986 354.322 433.23 299.585 435.474 279.083C435.986 274.465 436.669 270.824 441.254 270.189L457.278 268.332Z" fill="#6469D4"/>
    <path d="M486.154 216.552C486.871 216.385 487.619 216.408 488.324 216.618C489.03 216.829 489.668 217.219 490.178 217.752C490.687 218.284 491.049 218.94 491.229 219.655C491.409 220.37 491.4 221.119 491.203 221.83C490.569 224.232 490.569 226.758 491.203 229.161C492.837 235.172 485.74 236.907 483.179 239.326C480.618 241.745 480.13 246.877 475.862 247.366C471.594 247.854 461.521 243.969 461.57 239.693C461.497 236.198 475.472 219.215 486.154 216.552Z" fill="#41378C"/>
    <path d="M464.351 208.61C475.789 208.61 480.057 216.772 480.277 231.873C480.065 237.123 478.511 242.23 475.765 246.706C475.004 248.015 474.517 249.466 474.333 250.969C474.148 252.473 474.27 253.999 474.692 255.454L477.131 263.982C478.838 271.875 475.082 276.2 469.57 277.788C468.148 278.147 466.669 278.21 465.222 277.975C463.775 277.739 462.391 277.21 461.156 276.42C458.302 274.587 458.083 270.628 458.717 267.256L459.375 264.813C459.599 264.034 459.665 263.219 459.568 262.415C459.471 261.611 459.213 260.834 458.81 260.132C458.408 259.43 457.868 258.816 457.223 258.327C456.579 257.838 455.842 257.484 455.058 257.286C446.254 255.356 444.986 246.144 442.62 231.873C440.205 217.016 452.985 208.61 464.351 208.61Z" fill="#FAB9AF"/>
    <path d="M440.669 210.883C440.841 208.98 441.643 207.19 442.946 205.795C444.249 204.401 445.98 203.482 447.864 203.185C449.412 203.048 450.951 202.819 452.473 202.501L464.887 200.253C472.814 200.253 485.935 204.749 484.277 216.21L482.862 224.005C482.569 225.619 481.771 227.099 480.582 228.228C479.394 229.357 477.877 230.077 476.253 230.285C476.031 230.18 475.789 230.126 475.543 230.128C475.298 230.13 475.057 230.187 474.837 230.295C474.616 230.403 474.423 230.559 474.272 230.752C474.12 230.945 474.013 231.169 473.96 231.409L472.936 235.832C471.521 235.832 471.204 230.945 471.204 229.601C471.195 227.829 470.583 226.113 469.471 224.736C468.358 223.359 466.81 222.403 465.082 222.025C460.717 221.048 459.741 217.627 454.839 218.946L451.18 220.193C446.986 221.292 441.717 218.262 441.717 213.913C441.669 213.228 440.669 211.713 440.669 210.883Z" fill="#41378C"/>
    <path d="M474.106 232.191C474.106 235.685 475.399 238.52 478.765 238.52C482.13 238.52 484.277 233.633 484.277 230.211C484.277 226.79 482.106 225.862 478.765 225.862C475.423 225.862 474.106 228.672 474.106 232.191Z" fill="#FAB9AF"/>
    <path d="M446.034 242.649C445.951 243.033 445.954 243.432 446.044 243.814C446.133 244.197 446.307 244.555 446.553 244.862C446.798 245.169 447.109 245.417 447.462 245.588C447.816 245.759 448.203 245.849 448.595 245.85C449.257 245.846 449.893 245.592 450.377 245.14C450.86 244.687 451.156 244.068 451.205 243.407V232.24C451.215 232.034 451.184 231.829 451.114 231.635C451.045 231.442 450.938 231.264 450.8 231.112C450.662 230.96 450.495 230.836 450.309 230.749C450.123 230.662 449.922 230.612 449.717 230.602C449.427 230.601 449.145 230.7 448.918 230.883C448.692 231.065 448.535 231.32 448.473 231.604L446.034 242.649Z" fill="#FA968C"/>
    <path d="M449.546 218.384C445.108 219.582 442.571 226.961 442.425 229.894C442.207 229.894 441.991 229.851 441.79 229.767C441.589 229.684 441.406 229.561 441.252 229.407C441.098 229.253 440.976 229.07 440.893 228.868C440.809 228.666 440.766 228.45 440.766 228.232V223.345C440.766 222.514 443.205 217.089 444.083 217.089L449.546 218.384Z" fill="#41378C"/>
    <path d="M502.715 266.743C502.715 266.743 547.274 326.88 547.274 360.553C547.274 383.572 532.945 428.812 532.945 428.812L530.605 430.568L528.47 433.519C528.47 433.519 528.762 369.497 524.933 358.06C521.104 346.624 485.057 292.083 483.155 280.159C481.155 267.623 491.691 257.262 502.715 266.743Z" fill="#6469D4"/>
    <path d="M363.697 265.766C358.299 264.062 352.643 263.325 346.99 263.591C345.673 263.438 344.341 263.487 343.039 263.738C343.039 263.738 326.21 263.738 281.92 296.946C281.333 297.386 280.661 297.699 279.947 297.863C279.233 298.027 278.493 298.039 277.773 297.899L220.337 286.39C219.599 286.227 218.835 286.23 218.098 286.399C217.362 286.567 216.671 286.897 216.077 287.364C215.483 287.831 214.999 288.424 214.66 289.101C214.321 289.777 214.136 290.52 214.118 291.277C214.118 291.277 214.118 291.423 214.118 291.497C214.166 292.477 214.496 293.422 215.067 294.22C215.638 295.017 216.426 295.633 217.337 295.993C227.288 300.074 267.286 316.031 288.31 317.301C297.161 317.348 305.919 315.49 313.991 311.852C314.848 311.498 315.783 311.379 316.7 311.507C317.618 311.635 318.485 312.005 319.213 312.58C319.94 313.154 320.502 313.913 320.84 314.777C321.178 315.641 321.281 316.58 321.137 317.497C319.064 330.155 316.625 343.497 314.089 353.344C307.577 378.782 283.456 436.646 289.968 441.656C296.48 446.665 334.381 445.859 338.99 440.898C343.6 435.938 378.184 270.14 363.697 265.766Z" fill="#6469D4"/>
    <path d="M339.624 372.6C334.571 373.143 329.837 375.337 326.152 378.843C322.467 382.35 320.036 386.974 319.235 392.002C313.282 431.506 313.892 471.725 321.04 511.03L333.473 514.248C333.473 514.248 346.042 516.761 347.512 516.589C347.512 516.589 352.659 517.321 353.947 516.589C353.947 516.589 356.624 456.831 363.501 421.667C370.379 386.504 364.135 370.352 364.135 370.352L339.624 372.6Z" fill="#1E2D64"/>
    <path d="M338.576 511.03C341.697 464.039 361.526 434.447 353.502 372.136C353.484 371.786 353.484 371.435 353.502 371.085L364.209 370.279C364.209 370.279 370.452 386.504 363.575 421.594C357.819 450.917 356.776 477.149 353.947 516.589L338.576 511.03Z" fill="#0F1446"/>
    <path d="M372.574 369.594C378.273 369.331 383.896 370.978 388.556 374.275C393.216 377.572 396.646 382.331 398.305 387.799C403.378 404.611 408.207 432.932 403.67 474.18C403.67 474.18 400.158 496.613 403.67 511.03H395.479L383.78 515.419L372.666 517.759C362.91 488.974 345.844 397.5 349.331 371.549L372.574 369.594Z" fill="#1E2D64"/>
    <path d="M393.793 471.81C396.768 478.799 399.597 485.934 402.158 493.167C402.279 486.812 402.792 480.471 403.695 474.18C408.231 432.932 403.378 404.611 398.329 387.799C396.67 382.331 393.24 377.572 388.58 374.275C383.921 370.978 378.297 369.331 372.599 369.594L364.16 370.303L349.38 371.549V371.696L339.624 372.6C334.571 373.143 329.837 375.336 326.152 378.843C322.467 382.35 320.036 386.974 319.235 392.002C318.65 395.716 318.064 400.042 317.503 404.782C355.941 403.34 379.72 438.797 393.793 471.81Z" fill="#0F1446"/>
    <path d="M322.723 309.824C323.089 304.033 329.381 288.296 334.332 281.209C334.332 281.209 343.429 267.11 353.112 265.497C364.069 263.527 375.293 263.577 386.232 265.644L395.768 267.501C403.67 269.944 399.866 278.961 398.427 287.05L390.232 378.196C375.598 388.605 347.112 391.807 321.82 389.29C321.191 389.232 320.582 389.035 320.037 388.714C319.493 388.393 319.025 387.956 318.669 387.433C318.312 386.91 318.076 386.315 317.975 385.689C317.875 385.064 317.914 384.424 318.089 383.816L331.381 338.243C334.308 327.198 330.454 324.925 326.162 319.94C323.739 317.148 322.505 313.517 322.723 309.824Z" fill="white"/>
    <path d="M366.087 206.557C378.281 207.315 382.379 216.332 381.598 232.533C381.027 238.142 379.028 243.51 375.793 248.123C374.893 249.486 374.279 251.02 373.989 252.629C373.7 254.238 373.741 255.889 374.111 257.482L376.232 266.768C377.525 275.345 373.233 279.743 367.208 281.063C365.661 281.353 364.071 281.322 362.536 280.974C361.001 280.625 359.553 279.965 358.282 279.035C355.355 276.86 355.38 272.608 356.16 269.065L357.014 266.621C357.304 265.802 357.426 264.933 357.375 264.065C357.324 263.198 357.099 262.349 356.715 261.57C356.331 260.791 355.795 260.097 355.138 259.529C354.481 258.961 353.718 258.531 352.892 258.264C350.185 257.482 347.356 257.824 345.405 256.285C343.453 254.745 339.6 239.79 342.795 224.518C346.087 208.415 353.843 205.8 366.087 206.557Z" fill="#FAB9AF"/>
    <path d="M346.161 242.014C346.066 242.424 346.064 242.85 346.155 243.261C346.247 243.672 346.429 244.057 346.689 244.388C346.949 244.719 347.279 244.987 347.657 245.172C348.034 245.358 348.448 245.456 348.868 245.46C349.591 245.474 350.292 245.207 350.824 244.715C351.356 244.223 351.677 243.544 351.721 242.821L351.868 230.847C351.871 230.625 351.831 230.406 351.749 230.2C351.667 229.994 351.546 229.806 351.392 229.647C351.238 229.489 351.054 229.362 350.851 229.274C350.648 229.186 350.43 229.14 350.209 229.136C349.899 229.129 349.595 229.23 349.351 229.421C349.106 229.613 348.935 229.883 348.868 230.187L346.161 242.014Z" fill="#FA968C"/>
    <path d="M375.647 234.781C375.403 238.52 375.208 243.236 378.501 243.456C381.793 243.676 385.5 237.029 385.817 233.29C386.135 229.552 383.988 228.403 380.72 228.403C377.452 228.403 375.891 231.042 375.647 234.781Z" fill="#FAB9AF"/>
    <path d="M372.965 293.427C372.038 312.732 366.745 332.891 378.476 366.149C387.013 390.365 365.501 417.122 373.184 441.485C376.428 451.821 411.573 452.115 423.767 443.806C427.157 441.485 413.499 376.363 402.451 354.371C393.671 336.899 402.012 304.643 405.792 292.181C407.411 287.084 407.299 281.594 405.475 276.567C404.836 274.302 403.588 272.256 401.868 270.653C400.147 269.05 398.021 267.951 395.72 267.476C376.672 264.471 373.33 285.73 372.965 293.427Z" fill="#5159BF"/>
    <path d="M313.585 509.567L306.565 507.226L296.621 503.13L242.804 492.012H225.841L219.406 493.767L215.311 497.278L210.632 498.449L226.776 388.385C226.776 388.385 276.847 374.237 287.09 385.478C320.455 422.18 313.585 509.567 313.585 509.567Z" fill="#25377A"/>
    <path d="M287.114 385.527C276.895 374.286 226.8 388.434 226.8 388.434L223.751 408.276C313.479 408.57 283.167 497.278 283.167 497.278L297.791 502.545L306.565 504.3H313.585C313.585 504.3 320.454 422.181 287.114 385.527Z" fill="#1E2D64"/>
    <path d="M255.896 260.048C271.36 260.048 283.895 249.053 283.895 235.49C283.895 221.926 271.36 210.931 255.896 210.931C240.433 210.931 227.897 221.926 227.897 235.49C227.897 249.053 240.433 260.048 255.896 260.048Z" fill="#32285F"/>
    <path d="M265.847 396.767L248.165 397.305C236.214 397.671 225.824 395.057 224.581 383.132L207.508 295.675C207.264 289.371 212.386 283.189 217.849 280.232C217.849 280.232 267.018 271.117 286.139 281.991L287.651 282.529C290.276 284.004 292.483 286.124 294.066 288.688C295.649 291.253 296.555 294.179 296.699 297.19L287.7 382.105C286.7 393.664 277.432 396.327 265.847 396.767Z" fill="#434CB5"/>
    <path d="M293.626 287.905C292.944 289.102 292.188 290.348 291.407 291.399C285.347 299.999 281.954 310.199 281.651 320.722C281.432 329.935 282.383 339.587 279.603 345.671C276.213 353.002 263.823 353.002 257.652 347.724L257.457 347.553C255.808 345.94 253.623 344.991 251.321 344.888C249.018 344.784 246.757 345.533 244.97 346.991C241.353 350.059 236.732 351.678 231.995 351.536C229.178 351.639 226.374 351.106 223.79 349.977C221.207 348.847 218.91 347.15 217.069 345.012L224.386 383.01C225.629 394.934 236.019 397.525 247.97 397.182L265.652 396.645C277.237 396.303 286.505 393.639 287.602 381.983L296.724 296.995C296.629 293.721 295.55 290.553 293.626 287.905Z" fill="#323E96"/>
    <path d="M232.434 307.918C227.556 323.312 198.972 383.229 189.997 380.37C181.022 377.511 197.021 318.083 201.948 302.688C206.874 287.294 214.947 277.104 223.898 279.987C232.849 282.871 237.336 292.523 232.434 307.918Z" fill="#434CB5"/>
    <path d="M269.53 308.089C272.286 324.021 294.212 385.917 303.504 384.305C312.796 382.692 303.211 323.044 300.455 307.111C297.699 291.179 291.114 279.987 281.822 281.6C272.53 283.213 266.798 292.157 269.53 308.089Z" fill="#434CB5"/>
    <path d="M293.626 367.151C283.285 365.122 217.483 355.837 216.361 361.555C215.24 367.273 279.237 385.844 289.529 387.872C299.821 389.9 305.65 386.088 306.772 380.37C307.894 374.652 303.919 369.179 293.626 367.151Z" fill="#FA968C"/>
    <path d="M266.188 252.717H243.092C244.41 255.951 244.782 259.493 244.165 262.931L241.946 274.832C240.58 285.828 245.067 291.448 251.335 293.134C252.98 293.493 254.686 293.442 256.306 292.986C257.926 292.53 259.41 291.683 260.628 290.52C263.676 287.758 263.652 282.285 262.847 277.739L261.92 274.587C260.774 270.115 266.188 252.717 266.188 252.717Z" fill="#FAB9AF"/>
    <path d="M266.189 252.717H243.092C244.41 255.951 244.782 259.493 244.165 262.931L243.36 267.305C245.68 270.051 248.316 272.512 251.214 274.636C252.478 275.612 254.04 276.121 255.635 276.077C257.23 276.032 258.761 275.437 259.969 274.392C260.53 273.927 261.164 273.39 261.799 272.828C261.75 267.012 266.189 252.717 266.189 252.717Z" fill="#FA968C"/>
    <path d="M239.239 237.029C239.458 240.646 239.678 245.191 236.507 245.386C233.336 245.582 229.751 239.204 229.532 235.612C229.312 232.02 231.288 230.969 234.41 230.725C237.531 230.48 239.019 233.413 239.239 237.029Z" fill="#FA968C"/>
    <path d="M271.432 237.029C271.213 240.646 270.993 245.191 274.164 245.386C277.334 245.582 280.92 239.204 281.139 235.612C281.359 232.02 279.383 230.969 276.261 230.725C273.14 230.48 271.676 233.413 271.432 237.029Z" fill="#FA968C"/>
    <path d="M276.554 237.078C276.554 253.035 266.067 263.958 259.969 268.967C258.761 270.012 257.23 270.607 255.635 270.652C254.04 270.696 252.478 270.187 251.214 269.211C246.106 265.599 241.924 260.826 239.012 255.284C236.1 249.741 234.539 243.586 234.458 237.322C234.458 218.604 244.629 210.956 255.677 210.956C266.725 210.956 276.554 218.384 276.554 237.078Z" fill="#FAB9AF"/>
    <path d="M258.896 249.345C258.949 249.847 258.89 250.354 258.723 250.831C258.556 251.307 258.285 251.74 257.93 252.098C257.575 252.456 257.145 252.73 256.671 252.901C256.196 253.071 255.69 253.134 255.189 253.084C254.329 252.991 253.537 252.573 252.974 251.914C252.412 251.255 252.122 250.406 252.165 249.54L253.652 235.196C253.708 234.662 253.973 234.171 254.389 233.832C254.805 233.493 255.338 233.334 255.872 233.388C256.239 233.43 256.581 233.595 256.843 233.857C257.104 234.119 257.269 234.462 257.311 234.83L258.896 249.345Z" fill="#FA968C"/>
    <path d="M279.481 213.18C279.316 212.975 279.227 212.721 279.227 212.459C279.227 212.196 279.316 211.942 279.481 211.738C281.125 209.593 281.876 206.892 281.576 204.204C281.276 201.516 279.948 199.049 277.871 197.321C277.222 196.746 276.738 196.008 276.468 195.183C276.198 194.359 276.152 193.477 276.334 192.629C276.614 191.208 276.547 189.741 276.139 188.353C275.664 186.773 274.772 185.351 273.557 184.237C272.342 183.123 270.85 182.358 269.237 182.024C268.015 181.767 266.752 181.767 265.53 182.024C264.394 182.287 263.212 182.283 262.078 182.012C260.944 181.741 259.888 181.209 258.994 180.46C258.039 179.566 256.904 178.887 255.665 178.471C254.426 178.055 253.112 177.91 251.812 178.047C250.512 178.183 249.257 178.598 248.131 179.263C247.005 179.928 246.036 180.828 245.287 181.901C243.919 183.452 243.126 185.429 243.043 187.497C243.06 188.309 242.91 189.116 242.604 189.869C242.298 190.621 241.841 191.302 241.263 191.871C240.007 193.027 239.185 194.579 238.932 196.268C238.679 197.958 239.011 199.683 239.873 201.157C240.483 202.277 240.661 203.583 240.374 204.827C240.086 206.07 239.352 207.165 238.312 207.901C237.412 208.553 236.549 209.255 235.726 210.003C228.41 216.723 229.629 230.285 229.629 230.285C231.012 230.609 232.246 231.39 233.131 232.503C234.016 233.616 234.501 234.995 234.507 236.418V242.209C234.507 242.488 234.618 242.755 234.814 242.952C235.011 243.15 235.278 243.26 235.556 243.26C235.834 243.26 236.101 243.15 236.297 242.952C236.494 242.755 236.605 242.488 236.605 242.209L236.775 238.397C236.884 236.398 237.619 234.484 238.876 232.927C240.132 231.37 241.846 230.249 243.775 229.723C246.246 229.062 248.532 227.842 250.458 226.155C252.216 224.578 253.772 222.789 255.091 220.828C256.019 219.421 257.39 218.365 258.985 217.83C260.581 217.294 262.31 217.308 263.896 217.871C267.599 219.635 270.636 222.549 272.554 226.179C274.139 228.894 274.98 231.979 274.993 235.123V242.698C274.993 242.977 275.104 243.244 275.3 243.441C275.497 243.638 275.764 243.749 276.042 243.749C276.32 243.749 276.587 243.638 276.783 243.441C276.98 243.244 277.091 242.977 277.091 242.698V238.862C277.106 237.545 277.561 236.272 278.383 235.245C282.212 230.211 285.017 219.973 279.481 213.18Z" fill="#32285F"/>
    <path d="M284.968 365.734C284.02 362.513 282.527 359.48 280.554 356.766C278.676 354.615 270.92 356.497 266.408 357.816C264.152 358.473 261.803 358.746 259.457 358.623C242.263 357.743 209.167 358.232 201.484 359.722C191.143 361.75 186.119 369.912 187.314 375.606C189.241 384.769 194.777 386.822 205.118 384.794C223.675 379.947 241.847 373.723 259.481 366.173C263.819 364.212 268.621 363.517 273.335 364.17L284.968 365.734Z" fill="#FAB9AF"/>
    <path d="M383.866 214.719C370.672 198.542 351.965 199.422 343.112 207.804C339.597 211.305 334.936 213.414 329.991 213.742C329.572 213.784 329.172 213.935 328.829 214.178C328.486 214.422 328.211 214.75 328.032 215.131C327.853 215.512 327.775 215.934 327.807 216.354C327.838 216.774 327.977 217.179 328.21 217.529C329.945 219.825 332.272 221.604 334.941 222.672C337.61 223.74 340.52 224.057 343.356 223.589C346.021 223.081 348.484 221.818 350.453 219.948C351.608 218.867 353.096 218.211 354.672 218.091C357.838 217.966 360.944 218.98 363.428 220.95C364.931 222.165 366.678 223.041 368.55 223.516L370.989 224.054C371.875 224.287 372.651 224.827 373.178 225.578C373.705 226.33 373.949 227.244 373.867 228.159L373.111 235.856C373.069 236.155 373.122 236.459 373.263 236.726C373.403 236.993 373.623 237.209 373.892 237.344C374.162 237.479 374.466 237.526 374.764 237.478C375.061 237.43 375.336 237.29 375.55 237.078C375.993 235.534 376.748 234.098 377.768 232.859C378.787 231.619 380.049 230.601 381.476 229.869C386.305 227.45 391.183 223.931 383.866 214.719Z" fill="#FFA50A"/>
    <path d="M379.403 455.829C379.403 452.31 378.354 448.107 378.501 446.714C378.501 446.348 379.501 441.216 380.159 437.624C380.641 434.978 381.829 432.512 383.598 430.489C384.62 429.13 385.983 428.067 387.549 427.41C387.549 427.41 391.939 428.925 392.305 431.979L388.964 437.258C389.443 439.648 390.415 441.912 391.817 443.904C394.256 448.229 392.232 454.314 391.817 458.932C391.598 461.84 385.671 472.665 384.501 471.419C383.33 470.173 385.403 465.677 386.257 462.524C386.699 459.118 386.121 455.656 384.598 452.579C384.427 452.237 383.866 451.406 383.403 451.504C382.013 451.772 382.476 454.9 382.184 456.538C381.745 458.834 380.476 460.032 379.55 460.007C378.623 459.983 379.403 458.321 379.403 455.829Z" fill="#FAB9AF"/>
    <path d="M380.769 281.185C380.769 281.185 382.33 301.002 396.183 356.765L380.623 431.222C381.549 435.278 389.208 437.257 392.037 435.62C392.037 435.62 411.89 381.006 416.426 362.166C421.987 338.609 411.987 282.798 404.646 272.632C397.305 262.467 378.672 268.112 380.769 281.185Z" fill="#6469D4"/>
    <path d="M592.906 242.82H590.76C589.552 267.614 585.049 292.136 577.37 315.737C557.42 377.267 518.153 428.436 466.79 459.91C415.426 491.383 358.233 499.007 305.626 481.902C302.309 480.827 298.968 479.629 295.724 478.359C267.554 467.338 234.897 466.898 201.313 477.112C171.588 486.283 139.766 486.062 110.171 476.477C49.6615 456.782 7.44381 400.384 2.63914 332.794H0.468497C-5.11663 410.989 39.7107 481.535 109.488 504.236C139.502 513.957 171.774 514.188 201.923 504.896C235.044 494.829 267.213 495.122 294.943 506.094C298.212 507.364 301.577 508.537 304.967 509.686C323.084 515.584 342.014 518.585 361.063 518.58C453.741 518.58 544.762 448.693 579.297 342.201C589.835 310.181 594.447 276.501 592.906 242.82Z" fill="#8888EA"/>
    <path d="M138.926 66.6613C138.916 61.0968 137.373 55.6431 134.467 50.901C131.561 46.159 127.405 42.3126 122.456 39.7858C117.508 37.2589 111.96 36.1496 106.423 36.58C100.885 37.0105 95.5742 38.964 91.0742 42.2254C82.4189 48.5911 72.6488 53.2742 62.2706 56.0317C39.9788 61.7741 24.2722 76.6557 24.2722 93.7608C24.2722 116.12 50.6613 134.276 83.1965 134.276C115.732 134.276 142.145 116.193 142.145 93.7608C142.142 91.8145 141.938 89.8736 141.535 87.9695C139.936 80.9757 139.062 73.8351 138.926 66.6613Z" fill="#B0B0FF"/>
</svg>
